%TF.GenerationSoftware,KiCad,Pcbnew,6.0.11-2627ca5db0~126~ubuntu20.04.1*%
%TF.CreationDate,2025-05-12T21:47:31+10:00*%
%TF.ProjectId,encoder_pcb,656e636f-6465-4725-9f70-63622e6b6963,rev?*%
%TF.SameCoordinates,Original*%
%TF.FileFunction,Drillmap*%
%TF.FilePolarity,Positive*%
%FSLAX45Y45*%
G04 Gerber Fmt 4.5, Leading zero omitted, Abs format (unit mm)*
G04 Created by KiCad (PCBNEW 6.0.11-2627ca5db0~126~ubuntu20.04.1) date 2025-05-12 21:47:31*
%MOMM*%
%LPD*%
G01*
G04 APERTURE LIST*
%ADD10C,0.100000*%
%ADD11C,0.200000*%
%ADD12C,0.320000*%
G04 APERTURE END LIST*
D10*
X11900000Y-7500000D02*
X16900000Y-7500000D01*
X16900000Y-7500000D02*
X16900000Y-12500000D01*
X16900000Y-12500000D02*
X11900000Y-12500000D01*
X11900000Y-12500000D02*
X11900000Y-7500000D01*
D11*
D12*
X12240000Y-7840000D02*
X12560000Y-8160000D01*
X12560000Y-7840000D02*
X12240000Y-8160000D01*
X12240000Y-11840000D02*
X12560000Y-12160000D01*
X12560000Y-11840000D02*
X12240000Y-12160000D01*
X16240000Y-7840000D02*
X16560000Y-8160000D01*
X16560000Y-7840000D02*
X16240000Y-8160000D01*
X16240000Y-11840000D02*
X16560000Y-12160000D01*
X16560000Y-11840000D02*
X16240000Y-12160000D01*
D11*
X12152619Y-12815476D02*
X12152619Y-12615476D01*
X12200238Y-12615476D01*
X12228809Y-12625000D01*
X12247857Y-12644048D01*
X12257381Y-12663095D01*
X12266905Y-12701190D01*
X12266905Y-12729762D01*
X12257381Y-12767857D01*
X12247857Y-12786905D01*
X12228809Y-12805952D01*
X12200238Y-12815476D01*
X12152619Y-12815476D01*
X12352619Y-12815476D02*
X12352619Y-12682143D01*
X12352619Y-12720238D02*
X12362143Y-12701190D01*
X12371667Y-12691667D01*
X12390714Y-12682143D01*
X12409762Y-12682143D01*
X12476428Y-12815476D02*
X12476428Y-12682143D01*
X12476428Y-12615476D02*
X12466905Y-12625000D01*
X12476428Y-12634524D01*
X12485952Y-12625000D01*
X12476428Y-12615476D01*
X12476428Y-12634524D01*
X12600238Y-12815476D02*
X12581190Y-12805952D01*
X12571667Y-12786905D01*
X12571667Y-12615476D01*
X12705000Y-12815476D02*
X12685952Y-12805952D01*
X12676428Y-12786905D01*
X12676428Y-12615476D01*
X12933571Y-12815476D02*
X12933571Y-12615476D01*
X13000238Y-12758333D01*
X13066905Y-12615476D01*
X13066905Y-12815476D01*
X13247857Y-12815476D02*
X13247857Y-12710714D01*
X13238333Y-12691667D01*
X13219286Y-12682143D01*
X13181190Y-12682143D01*
X13162143Y-12691667D01*
X13247857Y-12805952D02*
X13228809Y-12815476D01*
X13181190Y-12815476D01*
X13162143Y-12805952D01*
X13152619Y-12786905D01*
X13152619Y-12767857D01*
X13162143Y-12748809D01*
X13181190Y-12739286D01*
X13228809Y-12739286D01*
X13247857Y-12729762D01*
X13343095Y-12682143D02*
X13343095Y-12882143D01*
X13343095Y-12691667D02*
X13362143Y-12682143D01*
X13400238Y-12682143D01*
X13419286Y-12691667D01*
X13428809Y-12701190D01*
X13438333Y-12720238D01*
X13438333Y-12777381D01*
X13428809Y-12796428D01*
X13419286Y-12805952D01*
X13400238Y-12815476D01*
X13362143Y-12815476D01*
X13343095Y-12805952D01*
X13524048Y-12796428D02*
X13533571Y-12805952D01*
X13524048Y-12815476D01*
X13514524Y-12805952D01*
X13524048Y-12796428D01*
X13524048Y-12815476D01*
X13524048Y-12691667D02*
X13533571Y-12701190D01*
X13524048Y-12710714D01*
X13514524Y-12701190D01*
X13524048Y-12691667D01*
X13524048Y-12710714D01*
X11695000Y-13045000D02*
X11895000Y-13245000D01*
X11895000Y-13045000D02*
X11695000Y-13245000D01*
X12133571Y-13035476D02*
X12257381Y-13035476D01*
X12190714Y-13111667D01*
X12219286Y-13111667D01*
X12238333Y-13121190D01*
X12247857Y-13130714D01*
X12257381Y-13149762D01*
X12257381Y-13197381D01*
X12247857Y-13216428D01*
X12238333Y-13225952D01*
X12219286Y-13235476D01*
X12162143Y-13235476D01*
X12143095Y-13225952D01*
X12133571Y-13216428D01*
X12343095Y-13216428D02*
X12352619Y-13225952D01*
X12343095Y-13235476D01*
X12333571Y-13225952D01*
X12343095Y-13216428D01*
X12343095Y-13235476D01*
X12428809Y-13054524D02*
X12438333Y-13045000D01*
X12457381Y-13035476D01*
X12505000Y-13035476D01*
X12524048Y-13045000D01*
X12533571Y-13054524D01*
X12543095Y-13073571D01*
X12543095Y-13092619D01*
X12533571Y-13121190D01*
X12419286Y-13235476D01*
X12543095Y-13235476D01*
X12666905Y-13035476D02*
X12685952Y-13035476D01*
X12705000Y-13045000D01*
X12714524Y-13054524D01*
X12724048Y-13073571D01*
X12733571Y-13111667D01*
X12733571Y-13159286D01*
X12724048Y-13197381D01*
X12714524Y-13216428D01*
X12705000Y-13225952D01*
X12685952Y-13235476D01*
X12666905Y-13235476D01*
X12647857Y-13225952D01*
X12638333Y-13216428D01*
X12628809Y-13197381D01*
X12619286Y-13159286D01*
X12619286Y-13111667D01*
X12628809Y-13073571D01*
X12638333Y-13054524D01*
X12647857Y-13045000D01*
X12666905Y-13035476D01*
X12857381Y-13035476D02*
X12876428Y-13035476D01*
X12895476Y-13045000D01*
X12905000Y-13054524D01*
X12914524Y-13073571D01*
X12924048Y-13111667D01*
X12924048Y-13159286D01*
X12914524Y-13197381D01*
X12905000Y-13216428D01*
X12895476Y-13225952D01*
X12876428Y-13235476D01*
X12857381Y-13235476D01*
X12838333Y-13225952D01*
X12828809Y-13216428D01*
X12819286Y-13197381D01*
X12809762Y-13159286D01*
X12809762Y-13111667D01*
X12819286Y-13073571D01*
X12828809Y-13054524D01*
X12838333Y-13045000D01*
X12857381Y-13035476D01*
X13009762Y-13235476D02*
X13009762Y-13102143D01*
X13009762Y-13121190D02*
X13019286Y-13111667D01*
X13038333Y-13102143D01*
X13066905Y-13102143D01*
X13085952Y-13111667D01*
X13095476Y-13130714D01*
X13095476Y-13235476D01*
X13095476Y-13130714D02*
X13105000Y-13111667D01*
X13124048Y-13102143D01*
X13152619Y-13102143D01*
X13171667Y-13111667D01*
X13181190Y-13130714D01*
X13181190Y-13235476D01*
X13276428Y-13235476D02*
X13276428Y-13102143D01*
X13276428Y-13121190D02*
X13285952Y-13111667D01*
X13305000Y-13102143D01*
X13333571Y-13102143D01*
X13352619Y-13111667D01*
X13362143Y-13130714D01*
X13362143Y-13235476D01*
X13362143Y-13130714D02*
X13371667Y-13111667D01*
X13390714Y-13102143D01*
X13419286Y-13102143D01*
X13438333Y-13111667D01*
X13447857Y-13130714D01*
X13447857Y-13235476D01*
X13838333Y-13025952D02*
X13666905Y-13283095D01*
X14095476Y-13035476D02*
X14114524Y-13035476D01*
X14133571Y-13045000D01*
X14143095Y-13054524D01*
X14152619Y-13073571D01*
X14162143Y-13111667D01*
X14162143Y-13159286D01*
X14152619Y-13197381D01*
X14143095Y-13216428D01*
X14133571Y-13225952D01*
X14114524Y-13235476D01*
X14095476Y-13235476D01*
X14076428Y-13225952D01*
X14066905Y-13216428D01*
X14057381Y-13197381D01*
X14047857Y-13159286D01*
X14047857Y-13111667D01*
X14057381Y-13073571D01*
X14066905Y-13054524D01*
X14076428Y-13045000D01*
X14095476Y-13035476D01*
X14247857Y-13216428D02*
X14257381Y-13225952D01*
X14247857Y-13235476D01*
X14238333Y-13225952D01*
X14247857Y-13216428D01*
X14247857Y-13235476D01*
X14447857Y-13235476D02*
X14333571Y-13235476D01*
X14390714Y-13235476D02*
X14390714Y-13035476D01*
X14371667Y-13064048D01*
X14352619Y-13083095D01*
X14333571Y-13092619D01*
X14524048Y-13054524D02*
X14533571Y-13045000D01*
X14552619Y-13035476D01*
X14600238Y-13035476D01*
X14619286Y-13045000D01*
X14628809Y-13054524D01*
X14638333Y-13073571D01*
X14638333Y-13092619D01*
X14628809Y-13121190D01*
X14514524Y-13235476D01*
X14638333Y-13235476D01*
X14809762Y-13035476D02*
X14771667Y-13035476D01*
X14752619Y-13045000D01*
X14743095Y-13054524D01*
X14724048Y-13083095D01*
X14714524Y-13121190D01*
X14714524Y-13197381D01*
X14724048Y-13216428D01*
X14733571Y-13225952D01*
X14752619Y-13235476D01*
X14790714Y-13235476D01*
X14809762Y-13225952D01*
X14819286Y-13216428D01*
X14828809Y-13197381D01*
X14828809Y-13149762D01*
X14819286Y-13130714D01*
X14809762Y-13121190D01*
X14790714Y-13111667D01*
X14752619Y-13111667D01*
X14733571Y-13121190D01*
X14724048Y-13130714D01*
X14714524Y-13149762D01*
X14952619Y-13035476D02*
X14971667Y-13035476D01*
X14990714Y-13045000D01*
X15000238Y-13054524D01*
X15009762Y-13073571D01*
X15019286Y-13111667D01*
X15019286Y-13159286D01*
X15009762Y-13197381D01*
X15000238Y-13216428D01*
X14990714Y-13225952D01*
X14971667Y-13235476D01*
X14952619Y-13235476D01*
X14933571Y-13225952D01*
X14924048Y-13216428D01*
X14914524Y-13197381D01*
X14905000Y-13159286D01*
X14905000Y-13111667D01*
X14914524Y-13073571D01*
X14924048Y-13054524D01*
X14933571Y-13045000D01*
X14952619Y-13035476D01*
X15095476Y-13035476D02*
X15095476Y-13073571D01*
X15171667Y-13035476D02*
X15171667Y-13073571D01*
X15466905Y-13311667D02*
X15457381Y-13302143D01*
X15438333Y-13273571D01*
X15428809Y-13254524D01*
X15419286Y-13225952D01*
X15409762Y-13178333D01*
X15409762Y-13140238D01*
X15419286Y-13092619D01*
X15428809Y-13064048D01*
X15438333Y-13045000D01*
X15457381Y-13016428D01*
X15466905Y-13006905D01*
X15628809Y-13102143D02*
X15628809Y-13235476D01*
X15581190Y-13025952D02*
X15533571Y-13168809D01*
X15657381Y-13168809D01*
X15885952Y-13235476D02*
X15885952Y-13035476D01*
X15971667Y-13235476D02*
X15971667Y-13130714D01*
X15962143Y-13111667D01*
X15943095Y-13102143D01*
X15914524Y-13102143D01*
X15895476Y-13111667D01*
X15885952Y-13121190D01*
X16095476Y-13235476D02*
X16076428Y-13225952D01*
X16066905Y-13216428D01*
X16057381Y-13197381D01*
X16057381Y-13140238D01*
X16066905Y-13121190D01*
X16076428Y-13111667D01*
X16095476Y-13102143D01*
X16124048Y-13102143D01*
X16143095Y-13111667D01*
X16152619Y-13121190D01*
X16162143Y-13140238D01*
X16162143Y-13197381D01*
X16152619Y-13216428D01*
X16143095Y-13225952D01*
X16124048Y-13235476D01*
X16095476Y-13235476D01*
X16276428Y-13235476D02*
X16257381Y-13225952D01*
X16247857Y-13206905D01*
X16247857Y-13035476D01*
X16428809Y-13225952D02*
X16409762Y-13235476D01*
X16371667Y-13235476D01*
X16352619Y-13225952D01*
X16343095Y-13206905D01*
X16343095Y-13130714D01*
X16352619Y-13111667D01*
X16371667Y-13102143D01*
X16409762Y-13102143D01*
X16428809Y-13111667D01*
X16438333Y-13130714D01*
X16438333Y-13149762D01*
X16343095Y-13168809D01*
X16514524Y-13225952D02*
X16533571Y-13235476D01*
X16571667Y-13235476D01*
X16590714Y-13225952D01*
X16600238Y-13206905D01*
X16600238Y-13197381D01*
X16590714Y-13178333D01*
X16571667Y-13168809D01*
X16543095Y-13168809D01*
X16524048Y-13159286D01*
X16514524Y-13140238D01*
X16514524Y-13130714D01*
X16524048Y-13111667D01*
X16543095Y-13102143D01*
X16571667Y-13102143D01*
X16590714Y-13111667D01*
X16666905Y-13311667D02*
X16676428Y-13302143D01*
X16695476Y-13273571D01*
X16705000Y-13254524D01*
X16714524Y-13225952D01*
X16724048Y-13178333D01*
X16724048Y-13140238D01*
X16714524Y-13092619D01*
X16705000Y-13064048D01*
X16695476Y-13045000D01*
X16676428Y-13016428D01*
X16666905Y-13006905D01*
X17028810Y-13311667D02*
X17019286Y-13302143D01*
X17000238Y-13273571D01*
X16990714Y-13254524D01*
X16981190Y-13225952D01*
X16971667Y-13178333D01*
X16971667Y-13140238D01*
X16981190Y-13092619D01*
X16990714Y-13064048D01*
X17000238Y-13045000D01*
X17019286Y-13016428D01*
X17028810Y-13006905D01*
X17105000Y-13102143D02*
X17105000Y-13235476D01*
X17105000Y-13121190D02*
X17114524Y-13111667D01*
X17133571Y-13102143D01*
X17162143Y-13102143D01*
X17181190Y-13111667D01*
X17190714Y-13130714D01*
X17190714Y-13235476D01*
X17314524Y-13235476D02*
X17295476Y-13225952D01*
X17285952Y-13216428D01*
X17276429Y-13197381D01*
X17276429Y-13140238D01*
X17285952Y-13121190D01*
X17295476Y-13111667D01*
X17314524Y-13102143D01*
X17343095Y-13102143D01*
X17362143Y-13111667D01*
X17371667Y-13121190D01*
X17381190Y-13140238D01*
X17381190Y-13197381D01*
X17371667Y-13216428D01*
X17362143Y-13225952D01*
X17343095Y-13235476D01*
X17314524Y-13235476D01*
X17438333Y-13102143D02*
X17514524Y-13102143D01*
X17466905Y-13035476D02*
X17466905Y-13206905D01*
X17476429Y-13225952D01*
X17495476Y-13235476D01*
X17514524Y-13235476D01*
X17733571Y-13102143D02*
X17733571Y-13302143D01*
X17733571Y-13111667D02*
X17752619Y-13102143D01*
X17790714Y-13102143D01*
X17809762Y-13111667D01*
X17819286Y-13121190D01*
X17828810Y-13140238D01*
X17828810Y-13197381D01*
X17819286Y-13216428D01*
X17809762Y-13225952D01*
X17790714Y-13235476D01*
X17752619Y-13235476D01*
X17733571Y-13225952D01*
X17943095Y-13235476D02*
X17924048Y-13225952D01*
X17914524Y-13206905D01*
X17914524Y-13035476D01*
X18105000Y-13235476D02*
X18105000Y-13130714D01*
X18095476Y-13111667D01*
X18076429Y-13102143D01*
X18038333Y-13102143D01*
X18019286Y-13111667D01*
X18105000Y-13225952D02*
X18085952Y-13235476D01*
X18038333Y-13235476D01*
X18019286Y-13225952D01*
X18009762Y-13206905D01*
X18009762Y-13187857D01*
X18019286Y-13168809D01*
X18038333Y-13159286D01*
X18085952Y-13159286D01*
X18105000Y-13149762D01*
X18171667Y-13102143D02*
X18247857Y-13102143D01*
X18200238Y-13035476D02*
X18200238Y-13206905D01*
X18209762Y-13225952D01*
X18228810Y-13235476D01*
X18247857Y-13235476D01*
X18390714Y-13225952D02*
X18371667Y-13235476D01*
X18333571Y-13235476D01*
X18314524Y-13225952D01*
X18305000Y-13206905D01*
X18305000Y-13130714D01*
X18314524Y-13111667D01*
X18333571Y-13102143D01*
X18371667Y-13102143D01*
X18390714Y-13111667D01*
X18400238Y-13130714D01*
X18400238Y-13149762D01*
X18305000Y-13168809D01*
X18571667Y-13235476D02*
X18571667Y-13035476D01*
X18571667Y-13225952D02*
X18552619Y-13235476D01*
X18514524Y-13235476D01*
X18495476Y-13225952D01*
X18485952Y-13216428D01*
X18476429Y-13197381D01*
X18476429Y-13140238D01*
X18485952Y-13121190D01*
X18495476Y-13111667D01*
X18514524Y-13102143D01*
X18552619Y-13102143D01*
X18571667Y-13111667D01*
X18647857Y-13311667D02*
X18657381Y-13302143D01*
X18676429Y-13273571D01*
X18685952Y-13254524D01*
X18695476Y-13225952D01*
X18705000Y-13178333D01*
X18705000Y-13140238D01*
X18695476Y-13092619D01*
X18685952Y-13064048D01*
X18676429Y-13045000D01*
X18657381Y-13016428D01*
X18647857Y-13006905D01*
M02*
