%TF.GenerationSoftware,KiCad,Pcbnew,6.0.11-2627ca5db0~126~ubuntu20.04.1*%
%TF.CreationDate,2025-05-12T21:47:31+10:00*%
%TF.ProjectId,encoder_pcb,656e636f-6465-4725-9f70-63622e6b6963,rev?*%
%TF.SameCoordinates,Original*%
%TF.FileFunction,Drillmap*%
%TF.FilePolarity,Positive*%
%FSLAX45Y45*%
G04 Gerber Fmt 4.5, Leading zero omitted, Abs format (unit mm)*
G04 Created by KiCad (PCBNEW 6.0.11-2627ca5db0~126~ubuntu20.04.1) date 2025-05-12 21:47:31*
%MOMM*%
%LPD*%
G01*
G04 APERTURE LIST*
%ADD10C,0.100000*%
%ADD11C,0.200000*%
%ADD12C,0.020000*%
%ADD13C,0.040000*%
%ADD14C,0.095000*%
%ADD15C,0.120000*%
%ADD16C,0.130000*%
G04 APERTURE END LIST*
D10*
X11900000Y-7500000D02*
X16900000Y-7500000D01*
X16900000Y-7500000D02*
X16900000Y-12500000D01*
X16900000Y-12500000D02*
X11900000Y-12500000D01*
X11900000Y-12500000D02*
X11900000Y-7500000D01*
D11*
D12*
X14100000Y-9476000D02*
X14120000Y-9496000D01*
X14120000Y-9476000D02*
X14100000Y-9496000D01*
X14100000Y-9616000D02*
X14120000Y-9636000D01*
X14120000Y-9616000D02*
X14100000Y-9636000D01*
X14170000Y-9406000D02*
X14190000Y-9426000D01*
X14190000Y-9406000D02*
X14170000Y-9426000D01*
X14170000Y-9546000D02*
X14190000Y-9566000D01*
X14190000Y-9546000D02*
X14170000Y-9566000D01*
X14170000Y-9686000D02*
X14190000Y-9706000D01*
X14190000Y-9686000D02*
X14170000Y-9706000D01*
X14240000Y-9476000D02*
X14260000Y-9496000D01*
X14260000Y-9476000D02*
X14240000Y-9496000D01*
X14240000Y-9616000D02*
X14260000Y-9636000D01*
X14260000Y-9616000D02*
X14240000Y-9636000D01*
X14310000Y-9406000D02*
X14330000Y-9426000D01*
X14330000Y-9406000D02*
X14310000Y-9426000D01*
X14310000Y-9546000D02*
X14330000Y-9566000D01*
X14330000Y-9546000D02*
X14310000Y-9566000D01*
X14310000Y-9686000D02*
X14330000Y-9706000D01*
X14330000Y-9686000D02*
X14310000Y-9706000D01*
X14380000Y-9476000D02*
X14400000Y-9496000D01*
X14400000Y-9476000D02*
X14380000Y-9496000D01*
X14380000Y-9616000D02*
X14400000Y-9636000D01*
X14400000Y-9616000D02*
X14380000Y-9636000D01*
D13*
X13195000Y-9495000D02*
G75*
G03*
X13195000Y-9495000I-20000J0D01*
G01*
X13395000Y-8800000D02*
G75*
G03*
X13395000Y-8800000I-20000J0D01*
G01*
X13545000Y-9053500D02*
G75*
G03*
X13545000Y-9053500I-20000J0D01*
G01*
X13695000Y-8800000D02*
G75*
G03*
X13695000Y-8800000I-20000J0D01*
G01*
X13845000Y-10425000D02*
G75*
G03*
X13845000Y-10425000I-20000J0D01*
G01*
X13845000Y-10700000D02*
G75*
G03*
X13845000Y-10700000I-20000J0D01*
G01*
X14245000Y-8125000D02*
G75*
G03*
X14245000Y-8125000I-20000J0D01*
G01*
X14245000Y-8350000D02*
G75*
G03*
X14245000Y-8350000I-20000J0D01*
G01*
X15145000Y-8800000D02*
G75*
G03*
X15145000Y-8800000I-20000J0D01*
G01*
X15295000Y-9688500D02*
G75*
G03*
X15295000Y-9688500I-20000J0D01*
G01*
X15295000Y-9815500D02*
G75*
G03*
X15295000Y-9815500I-20000J0D01*
G01*
X15295000Y-10069500D02*
G75*
G03*
X15295000Y-10069500I-20000J0D01*
G01*
X15295000Y-10196500D02*
G75*
G03*
X15295000Y-10196500I-20000J0D01*
G01*
X15445000Y-8800000D02*
G75*
G03*
X15445000Y-8800000I-20000J0D01*
G01*
D14*
X13225000Y-11902500D02*
X13225000Y-11997500D01*
X13177500Y-11950000D02*
X13272500Y-11950000D01*
X13475000Y-11902500D02*
X13475000Y-11997500D01*
X13427500Y-11950000D02*
X13522500Y-11950000D01*
X13725000Y-11902500D02*
X13725000Y-11997500D01*
X13677500Y-11950000D02*
X13772500Y-11950000D01*
X13975000Y-11902500D02*
X13975000Y-11997500D01*
X13927500Y-11950000D02*
X14022500Y-11950000D01*
X14825000Y-11902500D02*
X14825000Y-11997500D01*
X14777500Y-11950000D02*
X14872500Y-11950000D01*
X15075000Y-11902500D02*
X15075000Y-11997500D01*
X15027500Y-11950000D02*
X15122500Y-11950000D01*
X15325000Y-11902500D02*
X15325000Y-11997500D01*
X15277500Y-11950000D02*
X15372500Y-11950000D01*
X15575000Y-11902500D02*
X15575000Y-11997500D01*
X15527500Y-11950000D02*
X15622500Y-11950000D01*
X16347500Y-9577500D02*
X16347500Y-9672500D01*
X16300000Y-9625000D02*
X16395000Y-9625000D01*
X16347500Y-9827500D02*
X16347500Y-9922500D01*
X16300000Y-9875000D02*
X16395000Y-9875000D01*
X16347500Y-10077500D02*
X16347500Y-10172500D01*
X16300000Y-10125000D02*
X16395000Y-10125000D01*
X16347500Y-10327500D02*
X16347500Y-10422500D01*
X16300000Y-10375000D02*
X16395000Y-10375000D01*
D10*
X13250356Y-11182856D02*
X13250356Y-11112144D01*
X13179644Y-11112144D01*
X13179644Y-11182856D01*
X13250356Y-11182856D01*
X13504356Y-11182856D02*
X13504356Y-11112144D01*
X13433644Y-11112144D01*
X13433644Y-11182856D01*
X13504356Y-11182856D01*
X13758356Y-11182856D02*
X13758356Y-11112144D01*
X13687644Y-11112144D01*
X13687644Y-11182856D01*
X13758356Y-11182856D01*
X14012356Y-11182856D02*
X14012356Y-11112144D01*
X13941644Y-11112144D01*
X13941644Y-11182856D01*
X14012356Y-11182856D01*
X14855356Y-11185356D02*
X14855356Y-11114644D01*
X14784644Y-11114644D01*
X14784644Y-11185356D01*
X14855356Y-11185356D01*
X15109356Y-11185356D02*
X15109356Y-11114644D01*
X15038644Y-11114644D01*
X15038644Y-11185356D01*
X15109356Y-11185356D01*
X15363356Y-11185356D02*
X15363356Y-11114644D01*
X15292644Y-11114644D01*
X15292644Y-11185356D01*
X15363356Y-11185356D01*
X15617356Y-11185356D02*
X15617356Y-11114644D01*
X15546644Y-11114644D01*
X15546644Y-11185356D01*
X15617356Y-11185356D01*
X15935356Y-9653356D02*
X15935356Y-9582644D01*
X15864644Y-9582644D01*
X15864644Y-9653356D01*
X15935356Y-9653356D01*
X15935356Y-9907356D02*
X15935356Y-9836644D01*
X15864644Y-9836644D01*
X15864644Y-9907356D01*
X15935356Y-9907356D01*
X15935356Y-10161356D02*
X15935356Y-10090644D01*
X15864644Y-10090644D01*
X15864644Y-10161356D01*
X15935356Y-10161356D01*
X15935356Y-10415356D02*
X15935356Y-10344644D01*
X15864644Y-10344644D01*
X15864644Y-10415356D01*
X15935356Y-10415356D01*
D15*
X16175000Y-8585000D02*
X16235000Y-8525000D01*
X16175000Y-8465000D01*
X16115000Y-8525000D01*
X16175000Y-8585000D01*
X16175000Y-9235000D02*
X16235000Y-9175000D01*
X16175000Y-9115000D01*
X16115000Y-9175000D01*
X16175000Y-9235000D01*
X16175000Y-10885000D02*
X16235000Y-10825000D01*
X16175000Y-10765000D01*
X16115000Y-10825000D01*
X16175000Y-10885000D01*
X16175000Y-11535000D02*
X16235000Y-11475000D01*
X16175000Y-11415000D01*
X16115000Y-11475000D01*
X16175000Y-11535000D01*
X16625000Y-8585000D02*
X16685000Y-8525000D01*
X16625000Y-8465000D01*
X16565000Y-8525000D01*
X16625000Y-8585000D01*
X16625000Y-9235000D02*
X16685000Y-9175000D01*
X16625000Y-9115000D01*
X16565000Y-9175000D01*
X16625000Y-9235000D01*
X16625000Y-10885000D02*
X16685000Y-10825000D01*
X16625000Y-10765000D01*
X16565000Y-10825000D01*
X16625000Y-10885000D01*
X16625000Y-11535000D02*
X16685000Y-11475000D01*
X16625000Y-11415000D01*
X16565000Y-11475000D01*
X16625000Y-11535000D01*
D16*
X15178800Y-8110000D02*
X15308800Y-8240000D01*
X15308800Y-8110000D02*
X15178800Y-8240000D01*
X15308800Y-8175000D02*
G75*
G03*
X15308800Y-8175000I-65000J0D01*
G01*
X15686800Y-8110000D02*
X15816800Y-8240000D01*
X15816800Y-8110000D02*
X15686800Y-8240000D01*
X15816800Y-8175000D02*
G75*
G03*
X15816800Y-8175000I-65000J0D01*
G01*
D11*
X12152619Y-12815476D02*
X12152619Y-12615476D01*
X12200238Y-12615476D01*
X12228809Y-12625000D01*
X12247857Y-12644048D01*
X12257381Y-12663095D01*
X12266905Y-12701190D01*
X12266905Y-12729762D01*
X12257381Y-12767857D01*
X12247857Y-12786905D01*
X12228809Y-12805952D01*
X12200238Y-12815476D01*
X12152619Y-12815476D01*
X12352619Y-12815476D02*
X12352619Y-12682143D01*
X12352619Y-12720238D02*
X12362143Y-12701190D01*
X12371667Y-12691667D01*
X12390714Y-12682143D01*
X12409762Y-12682143D01*
X12476428Y-12815476D02*
X12476428Y-12682143D01*
X12476428Y-12615476D02*
X12466905Y-12625000D01*
X12476428Y-12634524D01*
X12485952Y-12625000D01*
X12476428Y-12615476D01*
X12476428Y-12634524D01*
X12600238Y-12815476D02*
X12581190Y-12805952D01*
X12571667Y-12786905D01*
X12571667Y-12615476D01*
X12705000Y-12815476D02*
X12685952Y-12805952D01*
X12676428Y-12786905D01*
X12676428Y-12615476D01*
X12933571Y-12815476D02*
X12933571Y-12615476D01*
X13000238Y-12758333D01*
X13066905Y-12615476D01*
X13066905Y-12815476D01*
X13247857Y-12815476D02*
X13247857Y-12710714D01*
X13238333Y-12691667D01*
X13219286Y-12682143D01*
X13181190Y-12682143D01*
X13162143Y-12691667D01*
X13247857Y-12805952D02*
X13228809Y-12815476D01*
X13181190Y-12815476D01*
X13162143Y-12805952D01*
X13152619Y-12786905D01*
X13152619Y-12767857D01*
X13162143Y-12748809D01*
X13181190Y-12739286D01*
X13228809Y-12739286D01*
X13247857Y-12729762D01*
X13343095Y-12682143D02*
X13343095Y-12882143D01*
X13343095Y-12691667D02*
X13362143Y-12682143D01*
X13400238Y-12682143D01*
X13419286Y-12691667D01*
X13428809Y-12701190D01*
X13438333Y-12720238D01*
X13438333Y-12777381D01*
X13428809Y-12796428D01*
X13419286Y-12805952D01*
X13400238Y-12815476D01*
X13362143Y-12815476D01*
X13343095Y-12805952D01*
X13524048Y-12796428D02*
X13533571Y-12805952D01*
X13524048Y-12815476D01*
X13514524Y-12805952D01*
X13524048Y-12796428D01*
X13524048Y-12815476D01*
X13524048Y-12691667D02*
X13533571Y-12701190D01*
X13524048Y-12710714D01*
X13514524Y-12701190D01*
X13524048Y-12691667D01*
X13524048Y-12710714D01*
D12*
X11875000Y-13135000D02*
X11895000Y-13155000D01*
X11895000Y-13135000D02*
X11875000Y-13155000D01*
D11*
X12190714Y-13035476D02*
X12209762Y-13035476D01*
X12228809Y-13045000D01*
X12238333Y-13054524D01*
X12247857Y-13073571D01*
X12257381Y-13111667D01*
X12257381Y-13159286D01*
X12247857Y-13197381D01*
X12238333Y-13216428D01*
X12228809Y-13225952D01*
X12209762Y-13235476D01*
X12190714Y-13235476D01*
X12171667Y-13225952D01*
X12162143Y-13216428D01*
X12152619Y-13197381D01*
X12143095Y-13159286D01*
X12143095Y-13111667D01*
X12152619Y-13073571D01*
X12162143Y-13054524D01*
X12171667Y-13045000D01*
X12190714Y-13035476D01*
X12343095Y-13216428D02*
X12352619Y-13225952D01*
X12343095Y-13235476D01*
X12333571Y-13225952D01*
X12343095Y-13216428D01*
X12343095Y-13235476D01*
X12428809Y-13054524D02*
X12438333Y-13045000D01*
X12457381Y-13035476D01*
X12505000Y-13035476D01*
X12524048Y-13045000D01*
X12533571Y-13054524D01*
X12543095Y-13073571D01*
X12543095Y-13092619D01*
X12533571Y-13121190D01*
X12419286Y-13235476D01*
X12543095Y-13235476D01*
X12666905Y-13035476D02*
X12685952Y-13035476D01*
X12705000Y-13045000D01*
X12714524Y-13054524D01*
X12724048Y-13073571D01*
X12733571Y-13111667D01*
X12733571Y-13159286D01*
X12724048Y-13197381D01*
X12714524Y-13216428D01*
X12705000Y-13225952D01*
X12685952Y-13235476D01*
X12666905Y-13235476D01*
X12647857Y-13225952D01*
X12638333Y-13216428D01*
X12628809Y-13197381D01*
X12619286Y-13159286D01*
X12619286Y-13111667D01*
X12628809Y-13073571D01*
X12638333Y-13054524D01*
X12647857Y-13045000D01*
X12666905Y-13035476D01*
X12857381Y-13035476D02*
X12876428Y-13035476D01*
X12895476Y-13045000D01*
X12905000Y-13054524D01*
X12914524Y-13073571D01*
X12924048Y-13111667D01*
X12924048Y-13159286D01*
X12914524Y-13197381D01*
X12905000Y-13216428D01*
X12895476Y-13225952D01*
X12876428Y-13235476D01*
X12857381Y-13235476D01*
X12838333Y-13225952D01*
X12828809Y-13216428D01*
X12819286Y-13197381D01*
X12809762Y-13159286D01*
X12809762Y-13111667D01*
X12819286Y-13073571D01*
X12828809Y-13054524D01*
X12838333Y-13045000D01*
X12857381Y-13035476D01*
X13009762Y-13235476D02*
X13009762Y-13102143D01*
X13009762Y-13121190D02*
X13019286Y-13111667D01*
X13038333Y-13102143D01*
X13066905Y-13102143D01*
X13085952Y-13111667D01*
X13095476Y-13130714D01*
X13095476Y-13235476D01*
X13095476Y-13130714D02*
X13105000Y-13111667D01*
X13124048Y-13102143D01*
X13152619Y-13102143D01*
X13171667Y-13111667D01*
X13181190Y-13130714D01*
X13181190Y-13235476D01*
X13276428Y-13235476D02*
X13276428Y-13102143D01*
X13276428Y-13121190D02*
X13285952Y-13111667D01*
X13305000Y-13102143D01*
X13333571Y-13102143D01*
X13352619Y-13111667D01*
X13362143Y-13130714D01*
X13362143Y-13235476D01*
X13362143Y-13130714D02*
X13371667Y-13111667D01*
X13390714Y-13102143D01*
X13419286Y-13102143D01*
X13438333Y-13111667D01*
X13447857Y-13130714D01*
X13447857Y-13235476D01*
X13838333Y-13025952D02*
X13666905Y-13283095D01*
X14095476Y-13035476D02*
X14114524Y-13035476D01*
X14133571Y-13045000D01*
X14143095Y-13054524D01*
X14152619Y-13073571D01*
X14162143Y-13111667D01*
X14162143Y-13159286D01*
X14152619Y-13197381D01*
X14143095Y-13216428D01*
X14133571Y-13225952D01*
X14114524Y-13235476D01*
X14095476Y-13235476D01*
X14076428Y-13225952D01*
X14066905Y-13216428D01*
X14057381Y-13197381D01*
X14047857Y-13159286D01*
X14047857Y-13111667D01*
X14057381Y-13073571D01*
X14066905Y-13054524D01*
X14076428Y-13045000D01*
X14095476Y-13035476D01*
X14247857Y-13216428D02*
X14257381Y-13225952D01*
X14247857Y-13235476D01*
X14238333Y-13225952D01*
X14247857Y-13216428D01*
X14247857Y-13235476D01*
X14381190Y-13035476D02*
X14400238Y-13035476D01*
X14419286Y-13045000D01*
X14428809Y-13054524D01*
X14438333Y-13073571D01*
X14447857Y-13111667D01*
X14447857Y-13159286D01*
X14438333Y-13197381D01*
X14428809Y-13216428D01*
X14419286Y-13225952D01*
X14400238Y-13235476D01*
X14381190Y-13235476D01*
X14362143Y-13225952D01*
X14352619Y-13216428D01*
X14343095Y-13197381D01*
X14333571Y-13159286D01*
X14333571Y-13111667D01*
X14343095Y-13073571D01*
X14352619Y-13054524D01*
X14362143Y-13045000D01*
X14381190Y-13035476D01*
X14571667Y-13035476D02*
X14590714Y-13035476D01*
X14609762Y-13045000D01*
X14619286Y-13054524D01*
X14628809Y-13073571D01*
X14638333Y-13111667D01*
X14638333Y-13159286D01*
X14628809Y-13197381D01*
X14619286Y-13216428D01*
X14609762Y-13225952D01*
X14590714Y-13235476D01*
X14571667Y-13235476D01*
X14552619Y-13225952D01*
X14543095Y-13216428D01*
X14533571Y-13197381D01*
X14524048Y-13159286D01*
X14524048Y-13111667D01*
X14533571Y-13073571D01*
X14543095Y-13054524D01*
X14552619Y-13045000D01*
X14571667Y-13035476D01*
X14705000Y-13035476D02*
X14838333Y-13035476D01*
X14752619Y-13235476D01*
X14924048Y-13235476D02*
X14962143Y-13235476D01*
X14981190Y-13225952D01*
X14990714Y-13216428D01*
X15009762Y-13187857D01*
X15019286Y-13149762D01*
X15019286Y-13073571D01*
X15009762Y-13054524D01*
X15000238Y-13045000D01*
X14981190Y-13035476D01*
X14943095Y-13035476D01*
X14924048Y-13045000D01*
X14914524Y-13054524D01*
X14905000Y-13073571D01*
X14905000Y-13121190D01*
X14914524Y-13140238D01*
X14924048Y-13149762D01*
X14943095Y-13159286D01*
X14981190Y-13159286D01*
X15000238Y-13149762D01*
X15009762Y-13140238D01*
X15019286Y-13121190D01*
X15095476Y-13035476D02*
X15095476Y-13073571D01*
X15171667Y-13035476D02*
X15171667Y-13073571D01*
X15466905Y-13311667D02*
X15457381Y-13302143D01*
X15438333Y-13273571D01*
X15428809Y-13254524D01*
X15419286Y-13225952D01*
X15409762Y-13178333D01*
X15409762Y-13140238D01*
X15419286Y-13092619D01*
X15428809Y-13064048D01*
X15438333Y-13045000D01*
X15457381Y-13016428D01*
X15466905Y-13006905D01*
X15647857Y-13235476D02*
X15533571Y-13235476D01*
X15590714Y-13235476D02*
X15590714Y-13035476D01*
X15571667Y-13064048D01*
X15552619Y-13083095D01*
X15533571Y-13092619D01*
X15724048Y-13054524D02*
X15733571Y-13045000D01*
X15752619Y-13035476D01*
X15800238Y-13035476D01*
X15819286Y-13045000D01*
X15828809Y-13054524D01*
X15838333Y-13073571D01*
X15838333Y-13092619D01*
X15828809Y-13121190D01*
X15714524Y-13235476D01*
X15838333Y-13235476D01*
X16076428Y-13235476D02*
X16076428Y-13035476D01*
X16162143Y-13235476D02*
X16162143Y-13130714D01*
X16152619Y-13111667D01*
X16133571Y-13102143D01*
X16105000Y-13102143D01*
X16085952Y-13111667D01*
X16076428Y-13121190D01*
X16285952Y-13235476D02*
X16266905Y-13225952D01*
X16257381Y-13216428D01*
X16247857Y-13197381D01*
X16247857Y-13140238D01*
X16257381Y-13121190D01*
X16266905Y-13111667D01*
X16285952Y-13102143D01*
X16314524Y-13102143D01*
X16333571Y-13111667D01*
X16343095Y-13121190D01*
X16352619Y-13140238D01*
X16352619Y-13197381D01*
X16343095Y-13216428D01*
X16333571Y-13225952D01*
X16314524Y-13235476D01*
X16285952Y-13235476D01*
X16466905Y-13235476D02*
X16447857Y-13225952D01*
X16438333Y-13206905D01*
X16438333Y-13035476D01*
X16619286Y-13225952D02*
X16600238Y-13235476D01*
X16562143Y-13235476D01*
X16543095Y-13225952D01*
X16533571Y-13206905D01*
X16533571Y-13130714D01*
X16543095Y-13111667D01*
X16562143Y-13102143D01*
X16600238Y-13102143D01*
X16619286Y-13111667D01*
X16628809Y-13130714D01*
X16628809Y-13149762D01*
X16533571Y-13168809D01*
X16705000Y-13225952D02*
X16724048Y-13235476D01*
X16762143Y-13235476D01*
X16781190Y-13225952D01*
X16790714Y-13206905D01*
X16790714Y-13197381D01*
X16781190Y-13178333D01*
X16762143Y-13168809D01*
X16733571Y-13168809D01*
X16714524Y-13159286D01*
X16705000Y-13140238D01*
X16705000Y-13130714D01*
X16714524Y-13111667D01*
X16733571Y-13102143D01*
X16762143Y-13102143D01*
X16781190Y-13111667D01*
X16857381Y-13311667D02*
X16866905Y-13302143D01*
X16885952Y-13273571D01*
X16895476Y-13254524D01*
X16905000Y-13225952D01*
X16914524Y-13178333D01*
X16914524Y-13140238D01*
X16905000Y-13092619D01*
X16895476Y-13064048D01*
X16885952Y-13045000D01*
X16866905Y-13016428D01*
X16857381Y-13006905D01*
D13*
X11895000Y-13409000D02*
G75*
G03*
X11895000Y-13409000I-20000J0D01*
G01*
D11*
X12190714Y-13299476D02*
X12209762Y-13299476D01*
X12228809Y-13309000D01*
X12238333Y-13318524D01*
X12247857Y-13337571D01*
X12257381Y-13375667D01*
X12257381Y-13423286D01*
X12247857Y-13461381D01*
X12238333Y-13480428D01*
X12228809Y-13489952D01*
X12209762Y-13499476D01*
X12190714Y-13499476D01*
X12171667Y-13489952D01*
X12162143Y-13480428D01*
X12152619Y-13461381D01*
X12143095Y-13423286D01*
X12143095Y-13375667D01*
X12152619Y-13337571D01*
X12162143Y-13318524D01*
X12171667Y-13309000D01*
X12190714Y-13299476D01*
X12343095Y-13480428D02*
X12352619Y-13489952D01*
X12343095Y-13499476D01*
X12333571Y-13489952D01*
X12343095Y-13480428D01*
X12343095Y-13499476D01*
X12524048Y-13366143D02*
X12524048Y-13499476D01*
X12476428Y-13289952D02*
X12428809Y-13432809D01*
X12552619Y-13432809D01*
X12666905Y-13299476D02*
X12685952Y-13299476D01*
X12705000Y-13309000D01*
X12714524Y-13318524D01*
X12724048Y-13337571D01*
X12733571Y-13375667D01*
X12733571Y-13423286D01*
X12724048Y-13461381D01*
X12714524Y-13480428D01*
X12705000Y-13489952D01*
X12685952Y-13499476D01*
X12666905Y-13499476D01*
X12647857Y-13489952D01*
X12638333Y-13480428D01*
X12628809Y-13461381D01*
X12619286Y-13423286D01*
X12619286Y-13375667D01*
X12628809Y-13337571D01*
X12638333Y-13318524D01*
X12647857Y-13309000D01*
X12666905Y-13299476D01*
X12857381Y-13299476D02*
X12876428Y-13299476D01*
X12895476Y-13309000D01*
X12905000Y-13318524D01*
X12914524Y-13337571D01*
X12924048Y-13375667D01*
X12924048Y-13423286D01*
X12914524Y-13461381D01*
X12905000Y-13480428D01*
X12895476Y-13489952D01*
X12876428Y-13499476D01*
X12857381Y-13499476D01*
X12838333Y-13489952D01*
X12828809Y-13480428D01*
X12819286Y-13461381D01*
X12809762Y-13423286D01*
X12809762Y-13375667D01*
X12819286Y-13337571D01*
X12828809Y-13318524D01*
X12838333Y-13309000D01*
X12857381Y-13299476D01*
X13009762Y-13499476D02*
X13009762Y-13366143D01*
X13009762Y-13385190D02*
X13019286Y-13375667D01*
X13038333Y-13366143D01*
X13066905Y-13366143D01*
X13085952Y-13375667D01*
X13095476Y-13394714D01*
X13095476Y-13499476D01*
X13095476Y-13394714D02*
X13105000Y-13375667D01*
X13124048Y-13366143D01*
X13152619Y-13366143D01*
X13171667Y-13375667D01*
X13181190Y-13394714D01*
X13181190Y-13499476D01*
X13276428Y-13499476D02*
X13276428Y-13366143D01*
X13276428Y-13385190D02*
X13285952Y-13375667D01*
X13305000Y-13366143D01*
X13333571Y-13366143D01*
X13352619Y-13375667D01*
X13362143Y-13394714D01*
X13362143Y-13499476D01*
X13362143Y-13394714D02*
X13371667Y-13375667D01*
X13390714Y-13366143D01*
X13419286Y-13366143D01*
X13438333Y-13375667D01*
X13447857Y-13394714D01*
X13447857Y-13499476D01*
X13838333Y-13289952D02*
X13666905Y-13547095D01*
X14095476Y-13299476D02*
X14114524Y-13299476D01*
X14133571Y-13309000D01*
X14143095Y-13318524D01*
X14152619Y-13337571D01*
X14162143Y-13375667D01*
X14162143Y-13423286D01*
X14152619Y-13461381D01*
X14143095Y-13480428D01*
X14133571Y-13489952D01*
X14114524Y-13499476D01*
X14095476Y-13499476D01*
X14076428Y-13489952D01*
X14066905Y-13480428D01*
X14057381Y-13461381D01*
X14047857Y-13423286D01*
X14047857Y-13375667D01*
X14057381Y-13337571D01*
X14066905Y-13318524D01*
X14076428Y-13309000D01*
X14095476Y-13299476D01*
X14247857Y-13480428D02*
X14257381Y-13489952D01*
X14247857Y-13499476D01*
X14238333Y-13489952D01*
X14247857Y-13480428D01*
X14247857Y-13499476D01*
X14381190Y-13299476D02*
X14400238Y-13299476D01*
X14419286Y-13309000D01*
X14428809Y-13318524D01*
X14438333Y-13337571D01*
X14447857Y-13375667D01*
X14447857Y-13423286D01*
X14438333Y-13461381D01*
X14428809Y-13480428D01*
X14419286Y-13489952D01*
X14400238Y-13499476D01*
X14381190Y-13499476D01*
X14362143Y-13489952D01*
X14352619Y-13480428D01*
X14343095Y-13461381D01*
X14333571Y-13423286D01*
X14333571Y-13375667D01*
X14343095Y-13337571D01*
X14352619Y-13318524D01*
X14362143Y-13309000D01*
X14381190Y-13299476D01*
X14638333Y-13499476D02*
X14524048Y-13499476D01*
X14581190Y-13499476D02*
X14581190Y-13299476D01*
X14562143Y-13328048D01*
X14543095Y-13347095D01*
X14524048Y-13356619D01*
X14819286Y-13299476D02*
X14724048Y-13299476D01*
X14714524Y-13394714D01*
X14724048Y-13385190D01*
X14743095Y-13375667D01*
X14790714Y-13375667D01*
X14809762Y-13385190D01*
X14819286Y-13394714D01*
X14828809Y-13413762D01*
X14828809Y-13461381D01*
X14819286Y-13480428D01*
X14809762Y-13489952D01*
X14790714Y-13499476D01*
X14743095Y-13499476D01*
X14724048Y-13489952D01*
X14714524Y-13480428D01*
X14895476Y-13299476D02*
X15028809Y-13299476D01*
X14943095Y-13499476D01*
X15095476Y-13299476D02*
X15095476Y-13337571D01*
X15171667Y-13299476D02*
X15171667Y-13337571D01*
X15466905Y-13575667D02*
X15457381Y-13566143D01*
X15438333Y-13537571D01*
X15428809Y-13518524D01*
X15419286Y-13489952D01*
X15409762Y-13442333D01*
X15409762Y-13404238D01*
X15419286Y-13356619D01*
X15428809Y-13328048D01*
X15438333Y-13309000D01*
X15457381Y-13280428D01*
X15466905Y-13270905D01*
X15647857Y-13499476D02*
X15533571Y-13499476D01*
X15590714Y-13499476D02*
X15590714Y-13299476D01*
X15571667Y-13328048D01*
X15552619Y-13347095D01*
X15533571Y-13356619D01*
X15819286Y-13366143D02*
X15819286Y-13499476D01*
X15771667Y-13289952D02*
X15724048Y-13432809D01*
X15847857Y-13432809D01*
X16076428Y-13499476D02*
X16076428Y-13299476D01*
X16162143Y-13499476D02*
X16162143Y-13394714D01*
X16152619Y-13375667D01*
X16133571Y-13366143D01*
X16105000Y-13366143D01*
X16085952Y-13375667D01*
X16076428Y-13385190D01*
X16285952Y-13499476D02*
X16266905Y-13489952D01*
X16257381Y-13480428D01*
X16247857Y-13461381D01*
X16247857Y-13404238D01*
X16257381Y-13385190D01*
X16266905Y-13375667D01*
X16285952Y-13366143D01*
X16314524Y-13366143D01*
X16333571Y-13375667D01*
X16343095Y-13385190D01*
X16352619Y-13404238D01*
X16352619Y-13461381D01*
X16343095Y-13480428D01*
X16333571Y-13489952D01*
X16314524Y-13499476D01*
X16285952Y-13499476D01*
X16466905Y-13499476D02*
X16447857Y-13489952D01*
X16438333Y-13470905D01*
X16438333Y-13299476D01*
X16619286Y-13489952D02*
X16600238Y-13499476D01*
X16562143Y-13499476D01*
X16543095Y-13489952D01*
X16533571Y-13470905D01*
X16533571Y-13394714D01*
X16543095Y-13375667D01*
X16562143Y-13366143D01*
X16600238Y-13366143D01*
X16619286Y-13375667D01*
X16628809Y-13394714D01*
X16628809Y-13413762D01*
X16533571Y-13432809D01*
X16705000Y-13489952D02*
X16724048Y-13499476D01*
X16762143Y-13499476D01*
X16781190Y-13489952D01*
X16790714Y-13470905D01*
X16790714Y-13461381D01*
X16781190Y-13442333D01*
X16762143Y-13432809D01*
X16733571Y-13432809D01*
X16714524Y-13423286D01*
X16705000Y-13404238D01*
X16705000Y-13394714D01*
X16714524Y-13375667D01*
X16733571Y-13366143D01*
X16762143Y-13366143D01*
X16781190Y-13375667D01*
X16857381Y-13575667D02*
X16866905Y-13566143D01*
X16885952Y-13537571D01*
X16895476Y-13518524D01*
X16905000Y-13489952D01*
X16914524Y-13442333D01*
X16914524Y-13404238D01*
X16905000Y-13356619D01*
X16895476Y-13328048D01*
X16885952Y-13309000D01*
X16866905Y-13280428D01*
X16857381Y-13270905D01*
D14*
X11847500Y-13625500D02*
X11847500Y-13720500D01*
X11800000Y-13673000D02*
X11895000Y-13673000D01*
D11*
X12190714Y-13563476D02*
X12209762Y-13563476D01*
X12228809Y-13573000D01*
X12238333Y-13582524D01*
X12247857Y-13601571D01*
X12257381Y-13639667D01*
X12257381Y-13687286D01*
X12247857Y-13725381D01*
X12238333Y-13744428D01*
X12228809Y-13753952D01*
X12209762Y-13763476D01*
X12190714Y-13763476D01*
X12171667Y-13753952D01*
X12162143Y-13744428D01*
X12152619Y-13725381D01*
X12143095Y-13687286D01*
X12143095Y-13639667D01*
X12152619Y-13601571D01*
X12162143Y-13582524D01*
X12171667Y-13573000D01*
X12190714Y-13563476D01*
X12343095Y-13744428D02*
X12352619Y-13753952D01*
X12343095Y-13763476D01*
X12333571Y-13753952D01*
X12343095Y-13744428D01*
X12343095Y-13763476D01*
X12447857Y-13763476D02*
X12485952Y-13763476D01*
X12505000Y-13753952D01*
X12514524Y-13744428D01*
X12533571Y-13715857D01*
X12543095Y-13677762D01*
X12543095Y-13601571D01*
X12533571Y-13582524D01*
X12524048Y-13573000D01*
X12505000Y-13563476D01*
X12466905Y-13563476D01*
X12447857Y-13573000D01*
X12438333Y-13582524D01*
X12428809Y-13601571D01*
X12428809Y-13649190D01*
X12438333Y-13668238D01*
X12447857Y-13677762D01*
X12466905Y-13687286D01*
X12505000Y-13687286D01*
X12524048Y-13677762D01*
X12533571Y-13668238D01*
X12543095Y-13649190D01*
X12724048Y-13563476D02*
X12628809Y-13563476D01*
X12619286Y-13658714D01*
X12628809Y-13649190D01*
X12647857Y-13639667D01*
X12695476Y-13639667D01*
X12714524Y-13649190D01*
X12724048Y-13658714D01*
X12733571Y-13677762D01*
X12733571Y-13725381D01*
X12724048Y-13744428D01*
X12714524Y-13753952D01*
X12695476Y-13763476D01*
X12647857Y-13763476D01*
X12628809Y-13753952D01*
X12619286Y-13744428D01*
X12857381Y-13563476D02*
X12876428Y-13563476D01*
X12895476Y-13573000D01*
X12905000Y-13582524D01*
X12914524Y-13601571D01*
X12924048Y-13639667D01*
X12924048Y-13687286D01*
X12914524Y-13725381D01*
X12905000Y-13744428D01*
X12895476Y-13753952D01*
X12876428Y-13763476D01*
X12857381Y-13763476D01*
X12838333Y-13753952D01*
X12828809Y-13744428D01*
X12819286Y-13725381D01*
X12809762Y-13687286D01*
X12809762Y-13639667D01*
X12819286Y-13601571D01*
X12828809Y-13582524D01*
X12838333Y-13573000D01*
X12857381Y-13563476D01*
X13009762Y-13763476D02*
X13009762Y-13630143D01*
X13009762Y-13649190D02*
X13019286Y-13639667D01*
X13038333Y-13630143D01*
X13066905Y-13630143D01*
X13085952Y-13639667D01*
X13095476Y-13658714D01*
X13095476Y-13763476D01*
X13095476Y-13658714D02*
X13105000Y-13639667D01*
X13124048Y-13630143D01*
X13152619Y-13630143D01*
X13171667Y-13639667D01*
X13181190Y-13658714D01*
X13181190Y-13763476D01*
X13276428Y-13763476D02*
X13276428Y-13630143D01*
X13276428Y-13649190D02*
X13285952Y-13639667D01*
X13305000Y-13630143D01*
X13333571Y-13630143D01*
X13352619Y-13639667D01*
X13362143Y-13658714D01*
X13362143Y-13763476D01*
X13362143Y-13658714D02*
X13371667Y-13639667D01*
X13390714Y-13630143D01*
X13419286Y-13630143D01*
X13438333Y-13639667D01*
X13447857Y-13658714D01*
X13447857Y-13763476D01*
X13838333Y-13553952D02*
X13666905Y-13811095D01*
X14095476Y-13563476D02*
X14114524Y-13563476D01*
X14133571Y-13573000D01*
X14143095Y-13582524D01*
X14152619Y-13601571D01*
X14162143Y-13639667D01*
X14162143Y-13687286D01*
X14152619Y-13725381D01*
X14143095Y-13744428D01*
X14133571Y-13753952D01*
X14114524Y-13763476D01*
X14095476Y-13763476D01*
X14076428Y-13753952D01*
X14066905Y-13744428D01*
X14057381Y-13725381D01*
X14047857Y-13687286D01*
X14047857Y-13639667D01*
X14057381Y-13601571D01*
X14066905Y-13582524D01*
X14076428Y-13573000D01*
X14095476Y-13563476D01*
X14247857Y-13744428D02*
X14257381Y-13753952D01*
X14247857Y-13763476D01*
X14238333Y-13753952D01*
X14247857Y-13744428D01*
X14247857Y-13763476D01*
X14381190Y-13563476D02*
X14400238Y-13563476D01*
X14419286Y-13573000D01*
X14428809Y-13582524D01*
X14438333Y-13601571D01*
X14447857Y-13639667D01*
X14447857Y-13687286D01*
X14438333Y-13725381D01*
X14428809Y-13744428D01*
X14419286Y-13753952D01*
X14400238Y-13763476D01*
X14381190Y-13763476D01*
X14362143Y-13753952D01*
X14352619Y-13744428D01*
X14343095Y-13725381D01*
X14333571Y-13687286D01*
X14333571Y-13639667D01*
X14343095Y-13601571D01*
X14352619Y-13582524D01*
X14362143Y-13573000D01*
X14381190Y-13563476D01*
X14514524Y-13563476D02*
X14638333Y-13563476D01*
X14571667Y-13639667D01*
X14600238Y-13639667D01*
X14619286Y-13649190D01*
X14628809Y-13658714D01*
X14638333Y-13677762D01*
X14638333Y-13725381D01*
X14628809Y-13744428D01*
X14619286Y-13753952D01*
X14600238Y-13763476D01*
X14543095Y-13763476D01*
X14524048Y-13753952D01*
X14514524Y-13744428D01*
X14705000Y-13563476D02*
X14838333Y-13563476D01*
X14752619Y-13763476D01*
X15000238Y-13630143D02*
X15000238Y-13763476D01*
X14952619Y-13553952D02*
X14905000Y-13696809D01*
X15028809Y-13696809D01*
X15095476Y-13563476D02*
X15095476Y-13601571D01*
X15171667Y-13563476D02*
X15171667Y-13601571D01*
X15466905Y-13839667D02*
X15457381Y-13830143D01*
X15438333Y-13801571D01*
X15428809Y-13782524D01*
X15419286Y-13753952D01*
X15409762Y-13706333D01*
X15409762Y-13668238D01*
X15419286Y-13620619D01*
X15428809Y-13592048D01*
X15438333Y-13573000D01*
X15457381Y-13544428D01*
X15466905Y-13534905D01*
X15647857Y-13763476D02*
X15533571Y-13763476D01*
X15590714Y-13763476D02*
X15590714Y-13563476D01*
X15571667Y-13592048D01*
X15552619Y-13611095D01*
X15533571Y-13620619D01*
X15724048Y-13582524D02*
X15733571Y-13573000D01*
X15752619Y-13563476D01*
X15800238Y-13563476D01*
X15819286Y-13573000D01*
X15828809Y-13582524D01*
X15838333Y-13601571D01*
X15838333Y-13620619D01*
X15828809Y-13649190D01*
X15714524Y-13763476D01*
X15838333Y-13763476D01*
X16076428Y-13763476D02*
X16076428Y-13563476D01*
X16162143Y-13763476D02*
X16162143Y-13658714D01*
X16152619Y-13639667D01*
X16133571Y-13630143D01*
X16105000Y-13630143D01*
X16085952Y-13639667D01*
X16076428Y-13649190D01*
X16285952Y-13763476D02*
X16266905Y-13753952D01*
X16257381Y-13744428D01*
X16247857Y-13725381D01*
X16247857Y-13668238D01*
X16257381Y-13649190D01*
X16266905Y-13639667D01*
X16285952Y-13630143D01*
X16314524Y-13630143D01*
X16333571Y-13639667D01*
X16343095Y-13649190D01*
X16352619Y-13668238D01*
X16352619Y-13725381D01*
X16343095Y-13744428D01*
X16333571Y-13753952D01*
X16314524Y-13763476D01*
X16285952Y-13763476D01*
X16466905Y-13763476D02*
X16447857Y-13753952D01*
X16438333Y-13734905D01*
X16438333Y-13563476D01*
X16619286Y-13753952D02*
X16600238Y-13763476D01*
X16562143Y-13763476D01*
X16543095Y-13753952D01*
X16533571Y-13734905D01*
X16533571Y-13658714D01*
X16543095Y-13639667D01*
X16562143Y-13630143D01*
X16600238Y-13630143D01*
X16619286Y-13639667D01*
X16628809Y-13658714D01*
X16628809Y-13677762D01*
X16533571Y-13696809D01*
X16705000Y-13753952D02*
X16724048Y-13763476D01*
X16762143Y-13763476D01*
X16781190Y-13753952D01*
X16790714Y-13734905D01*
X16790714Y-13725381D01*
X16781190Y-13706333D01*
X16762143Y-13696809D01*
X16733571Y-13696809D01*
X16714524Y-13687286D01*
X16705000Y-13668238D01*
X16705000Y-13658714D01*
X16714524Y-13639667D01*
X16733571Y-13630143D01*
X16762143Y-13630143D01*
X16781190Y-13639667D01*
X16857381Y-13839667D02*
X16866905Y-13830143D01*
X16885952Y-13801571D01*
X16895476Y-13782524D01*
X16905000Y-13753952D01*
X16914524Y-13706333D01*
X16914524Y-13668238D01*
X16905000Y-13620619D01*
X16895476Y-13592048D01*
X16885952Y-13573000D01*
X16866905Y-13544428D01*
X16857381Y-13534905D01*
D10*
X11880356Y-13972356D02*
X11880356Y-13901644D01*
X11809644Y-13901644D01*
X11809644Y-13972356D01*
X11880356Y-13972356D01*
D11*
X12257381Y-14027476D02*
X12143095Y-14027476D01*
X12200238Y-14027476D02*
X12200238Y-13827476D01*
X12181190Y-13856048D01*
X12162143Y-13875095D01*
X12143095Y-13884619D01*
X12343095Y-14008428D02*
X12352619Y-14017952D01*
X12343095Y-14027476D01*
X12333571Y-14017952D01*
X12343095Y-14008428D01*
X12343095Y-14027476D01*
X12476428Y-13827476D02*
X12495476Y-13827476D01*
X12514524Y-13837000D01*
X12524048Y-13846524D01*
X12533571Y-13865571D01*
X12543095Y-13903667D01*
X12543095Y-13951286D01*
X12533571Y-13989381D01*
X12524048Y-14008428D01*
X12514524Y-14017952D01*
X12495476Y-14027476D01*
X12476428Y-14027476D01*
X12457381Y-14017952D01*
X12447857Y-14008428D01*
X12438333Y-13989381D01*
X12428809Y-13951286D01*
X12428809Y-13903667D01*
X12438333Y-13865571D01*
X12447857Y-13846524D01*
X12457381Y-13837000D01*
X12476428Y-13827476D01*
X12666905Y-13827476D02*
X12685952Y-13827476D01*
X12705000Y-13837000D01*
X12714524Y-13846524D01*
X12724048Y-13865571D01*
X12733571Y-13903667D01*
X12733571Y-13951286D01*
X12724048Y-13989381D01*
X12714524Y-14008428D01*
X12705000Y-14017952D01*
X12685952Y-14027476D01*
X12666905Y-14027476D01*
X12647857Y-14017952D01*
X12638333Y-14008428D01*
X12628809Y-13989381D01*
X12619286Y-13951286D01*
X12619286Y-13903667D01*
X12628809Y-13865571D01*
X12638333Y-13846524D01*
X12647857Y-13837000D01*
X12666905Y-13827476D01*
X12857381Y-13827476D02*
X12876428Y-13827476D01*
X12895476Y-13837000D01*
X12905000Y-13846524D01*
X12914524Y-13865571D01*
X12924048Y-13903667D01*
X12924048Y-13951286D01*
X12914524Y-13989381D01*
X12905000Y-14008428D01*
X12895476Y-14017952D01*
X12876428Y-14027476D01*
X12857381Y-14027476D01*
X12838333Y-14017952D01*
X12828809Y-14008428D01*
X12819286Y-13989381D01*
X12809762Y-13951286D01*
X12809762Y-13903667D01*
X12819286Y-13865571D01*
X12828809Y-13846524D01*
X12838333Y-13837000D01*
X12857381Y-13827476D01*
X13009762Y-14027476D02*
X13009762Y-13894143D01*
X13009762Y-13913190D02*
X13019286Y-13903667D01*
X13038333Y-13894143D01*
X13066905Y-13894143D01*
X13085952Y-13903667D01*
X13095476Y-13922714D01*
X13095476Y-14027476D01*
X13095476Y-13922714D02*
X13105000Y-13903667D01*
X13124048Y-13894143D01*
X13152619Y-13894143D01*
X13171667Y-13903667D01*
X13181190Y-13922714D01*
X13181190Y-14027476D01*
X13276428Y-14027476D02*
X13276428Y-13894143D01*
X13276428Y-13913190D02*
X13285952Y-13903667D01*
X13305000Y-13894143D01*
X13333571Y-13894143D01*
X13352619Y-13903667D01*
X13362143Y-13922714D01*
X13362143Y-14027476D01*
X13362143Y-13922714D02*
X13371667Y-13903667D01*
X13390714Y-13894143D01*
X13419286Y-13894143D01*
X13438333Y-13903667D01*
X13447857Y-13922714D01*
X13447857Y-14027476D01*
X13838333Y-13817952D02*
X13666905Y-14075095D01*
X14095476Y-13827476D02*
X14114524Y-13827476D01*
X14133571Y-13837000D01*
X14143095Y-13846524D01*
X14152619Y-13865571D01*
X14162143Y-13903667D01*
X14162143Y-13951286D01*
X14152619Y-13989381D01*
X14143095Y-14008428D01*
X14133571Y-14017952D01*
X14114524Y-14027476D01*
X14095476Y-14027476D01*
X14076428Y-14017952D01*
X14066905Y-14008428D01*
X14057381Y-13989381D01*
X14047857Y-13951286D01*
X14047857Y-13903667D01*
X14057381Y-13865571D01*
X14066905Y-13846524D01*
X14076428Y-13837000D01*
X14095476Y-13827476D01*
X14247857Y-14008428D02*
X14257381Y-14017952D01*
X14247857Y-14027476D01*
X14238333Y-14017952D01*
X14247857Y-14008428D01*
X14247857Y-14027476D01*
X14381190Y-13827476D02*
X14400238Y-13827476D01*
X14419286Y-13837000D01*
X14428809Y-13846524D01*
X14438333Y-13865571D01*
X14447857Y-13903667D01*
X14447857Y-13951286D01*
X14438333Y-13989381D01*
X14428809Y-14008428D01*
X14419286Y-14017952D01*
X14400238Y-14027476D01*
X14381190Y-14027476D01*
X14362143Y-14017952D01*
X14352619Y-14008428D01*
X14343095Y-13989381D01*
X14333571Y-13951286D01*
X14333571Y-13903667D01*
X14343095Y-13865571D01*
X14352619Y-13846524D01*
X14362143Y-13837000D01*
X14381190Y-13827476D01*
X14514524Y-13827476D02*
X14638333Y-13827476D01*
X14571667Y-13903667D01*
X14600238Y-13903667D01*
X14619286Y-13913190D01*
X14628809Y-13922714D01*
X14638333Y-13941762D01*
X14638333Y-13989381D01*
X14628809Y-14008428D01*
X14619286Y-14017952D01*
X14600238Y-14027476D01*
X14543095Y-14027476D01*
X14524048Y-14017952D01*
X14514524Y-14008428D01*
X14733571Y-14027476D02*
X14771667Y-14027476D01*
X14790714Y-14017952D01*
X14800238Y-14008428D01*
X14819286Y-13979857D01*
X14828809Y-13941762D01*
X14828809Y-13865571D01*
X14819286Y-13846524D01*
X14809762Y-13837000D01*
X14790714Y-13827476D01*
X14752619Y-13827476D01*
X14733571Y-13837000D01*
X14724048Y-13846524D01*
X14714524Y-13865571D01*
X14714524Y-13913190D01*
X14724048Y-13932238D01*
X14733571Y-13941762D01*
X14752619Y-13951286D01*
X14790714Y-13951286D01*
X14809762Y-13941762D01*
X14819286Y-13932238D01*
X14828809Y-13913190D01*
X15000238Y-13894143D02*
X15000238Y-14027476D01*
X14952619Y-13817952D02*
X14905000Y-13960809D01*
X15028809Y-13960809D01*
X15095476Y-13827476D02*
X15095476Y-13865571D01*
X15171667Y-13827476D02*
X15171667Y-13865571D01*
X15466905Y-14103667D02*
X15457381Y-14094143D01*
X15438333Y-14065571D01*
X15428809Y-14046524D01*
X15419286Y-14017952D01*
X15409762Y-13970333D01*
X15409762Y-13932238D01*
X15419286Y-13884619D01*
X15428809Y-13856048D01*
X15438333Y-13837000D01*
X15457381Y-13808428D01*
X15466905Y-13798905D01*
X15647857Y-14027476D02*
X15533571Y-14027476D01*
X15590714Y-14027476D02*
X15590714Y-13827476D01*
X15571667Y-13856048D01*
X15552619Y-13875095D01*
X15533571Y-13884619D01*
X15724048Y-13846524D02*
X15733571Y-13837000D01*
X15752619Y-13827476D01*
X15800238Y-13827476D01*
X15819286Y-13837000D01*
X15828809Y-13846524D01*
X15838333Y-13865571D01*
X15838333Y-13884619D01*
X15828809Y-13913190D01*
X15714524Y-14027476D01*
X15838333Y-14027476D01*
X16076428Y-14027476D02*
X16076428Y-13827476D01*
X16162143Y-14027476D02*
X16162143Y-13922714D01*
X16152619Y-13903667D01*
X16133571Y-13894143D01*
X16105000Y-13894143D01*
X16085952Y-13903667D01*
X16076428Y-13913190D01*
X16285952Y-14027476D02*
X16266905Y-14017952D01*
X16257381Y-14008428D01*
X16247857Y-13989381D01*
X16247857Y-13932238D01*
X16257381Y-13913190D01*
X16266905Y-13903667D01*
X16285952Y-13894143D01*
X16314524Y-13894143D01*
X16333571Y-13903667D01*
X16343095Y-13913190D01*
X16352619Y-13932238D01*
X16352619Y-13989381D01*
X16343095Y-14008428D01*
X16333571Y-14017952D01*
X16314524Y-14027476D01*
X16285952Y-14027476D01*
X16466905Y-14027476D02*
X16447857Y-14017952D01*
X16438333Y-13998905D01*
X16438333Y-13827476D01*
X16619286Y-14017952D02*
X16600238Y-14027476D01*
X16562143Y-14027476D01*
X16543095Y-14017952D01*
X16533571Y-13998905D01*
X16533571Y-13922714D01*
X16543095Y-13903667D01*
X16562143Y-13894143D01*
X16600238Y-13894143D01*
X16619286Y-13903667D01*
X16628809Y-13922714D01*
X16628809Y-13941762D01*
X16533571Y-13960809D01*
X16705000Y-14017952D02*
X16724048Y-14027476D01*
X16762143Y-14027476D01*
X16781190Y-14017952D01*
X16790714Y-13998905D01*
X16790714Y-13989381D01*
X16781190Y-13970333D01*
X16762143Y-13960809D01*
X16733571Y-13960809D01*
X16714524Y-13951286D01*
X16705000Y-13932238D01*
X16705000Y-13922714D01*
X16714524Y-13903667D01*
X16733571Y-13894143D01*
X16762143Y-13894143D01*
X16781190Y-13903667D01*
X16857381Y-14103667D02*
X16866905Y-14094143D01*
X16885952Y-14065571D01*
X16895476Y-14046524D01*
X16905000Y-14017952D01*
X16914524Y-13970333D01*
X16914524Y-13932238D01*
X16905000Y-13884619D01*
X16895476Y-13856048D01*
X16885952Y-13837000D01*
X16866905Y-13808428D01*
X16857381Y-13798905D01*
D15*
X11835000Y-14261000D02*
X11895000Y-14201000D01*
X11835000Y-14141000D01*
X11775000Y-14201000D01*
X11835000Y-14261000D01*
D11*
X12257381Y-14291476D02*
X12143095Y-14291476D01*
X12200238Y-14291476D02*
X12200238Y-14091476D01*
X12181190Y-14120048D01*
X12162143Y-14139095D01*
X12143095Y-14148619D01*
X12343095Y-14272428D02*
X12352619Y-14281952D01*
X12343095Y-14291476D01*
X12333571Y-14281952D01*
X12343095Y-14272428D01*
X12343095Y-14291476D01*
X12428809Y-14110524D02*
X12438333Y-14101000D01*
X12457381Y-14091476D01*
X12505000Y-14091476D01*
X12524048Y-14101000D01*
X12533571Y-14110524D01*
X12543095Y-14129571D01*
X12543095Y-14148619D01*
X12533571Y-14177190D01*
X12419286Y-14291476D01*
X12543095Y-14291476D01*
X12666905Y-14091476D02*
X12685952Y-14091476D01*
X12705000Y-14101000D01*
X12714524Y-14110524D01*
X12724048Y-14129571D01*
X12733571Y-14167667D01*
X12733571Y-14215286D01*
X12724048Y-14253381D01*
X12714524Y-14272428D01*
X12705000Y-14281952D01*
X12685952Y-14291476D01*
X12666905Y-14291476D01*
X12647857Y-14281952D01*
X12638333Y-14272428D01*
X12628809Y-14253381D01*
X12619286Y-14215286D01*
X12619286Y-14167667D01*
X12628809Y-14129571D01*
X12638333Y-14110524D01*
X12647857Y-14101000D01*
X12666905Y-14091476D01*
X12857381Y-14091476D02*
X12876428Y-14091476D01*
X12895476Y-14101000D01*
X12905000Y-14110524D01*
X12914524Y-14129571D01*
X12924048Y-14167667D01*
X12924048Y-14215286D01*
X12914524Y-14253381D01*
X12905000Y-14272428D01*
X12895476Y-14281952D01*
X12876428Y-14291476D01*
X12857381Y-14291476D01*
X12838333Y-14281952D01*
X12828809Y-14272428D01*
X12819286Y-14253381D01*
X12809762Y-14215286D01*
X12809762Y-14167667D01*
X12819286Y-14129571D01*
X12828809Y-14110524D01*
X12838333Y-14101000D01*
X12857381Y-14091476D01*
X13009762Y-14291476D02*
X13009762Y-14158143D01*
X13009762Y-14177190D02*
X13019286Y-14167667D01*
X13038333Y-14158143D01*
X13066905Y-14158143D01*
X13085952Y-14167667D01*
X13095476Y-14186714D01*
X13095476Y-14291476D01*
X13095476Y-14186714D02*
X13105000Y-14167667D01*
X13124048Y-14158143D01*
X13152619Y-14158143D01*
X13171667Y-14167667D01*
X13181190Y-14186714D01*
X13181190Y-14291476D01*
X13276428Y-14291476D02*
X13276428Y-14158143D01*
X13276428Y-14177190D02*
X13285952Y-14167667D01*
X13305000Y-14158143D01*
X13333571Y-14158143D01*
X13352619Y-14167667D01*
X13362143Y-14186714D01*
X13362143Y-14291476D01*
X13362143Y-14186714D02*
X13371667Y-14167667D01*
X13390714Y-14158143D01*
X13419286Y-14158143D01*
X13438333Y-14167667D01*
X13447857Y-14186714D01*
X13447857Y-14291476D01*
X13838333Y-14081952D02*
X13666905Y-14339095D01*
X14095476Y-14091476D02*
X14114524Y-14091476D01*
X14133571Y-14101000D01*
X14143095Y-14110524D01*
X14152619Y-14129571D01*
X14162143Y-14167667D01*
X14162143Y-14215286D01*
X14152619Y-14253381D01*
X14143095Y-14272428D01*
X14133571Y-14281952D01*
X14114524Y-14291476D01*
X14095476Y-14291476D01*
X14076428Y-14281952D01*
X14066905Y-14272428D01*
X14057381Y-14253381D01*
X14047857Y-14215286D01*
X14047857Y-14167667D01*
X14057381Y-14129571D01*
X14066905Y-14110524D01*
X14076428Y-14101000D01*
X14095476Y-14091476D01*
X14247857Y-14272428D02*
X14257381Y-14281952D01*
X14247857Y-14291476D01*
X14238333Y-14281952D01*
X14247857Y-14272428D01*
X14247857Y-14291476D01*
X14381190Y-14091476D02*
X14400238Y-14091476D01*
X14419286Y-14101000D01*
X14428809Y-14110524D01*
X14438333Y-14129571D01*
X14447857Y-14167667D01*
X14447857Y-14215286D01*
X14438333Y-14253381D01*
X14428809Y-14272428D01*
X14419286Y-14281952D01*
X14400238Y-14291476D01*
X14381190Y-14291476D01*
X14362143Y-14281952D01*
X14352619Y-14272428D01*
X14343095Y-14253381D01*
X14333571Y-14215286D01*
X14333571Y-14167667D01*
X14343095Y-14129571D01*
X14352619Y-14110524D01*
X14362143Y-14101000D01*
X14381190Y-14091476D01*
X14619286Y-14158143D02*
X14619286Y-14291476D01*
X14571667Y-14081952D02*
X14524048Y-14224809D01*
X14647857Y-14224809D01*
X14705000Y-14091476D02*
X14838333Y-14091476D01*
X14752619Y-14291476D01*
X14905000Y-14110524D02*
X14914524Y-14101000D01*
X14933571Y-14091476D01*
X14981190Y-14091476D01*
X15000238Y-14101000D01*
X15009762Y-14110524D01*
X15019286Y-14129571D01*
X15019286Y-14148619D01*
X15009762Y-14177190D01*
X14895476Y-14291476D01*
X15019286Y-14291476D01*
X15095476Y-14091476D02*
X15095476Y-14129571D01*
X15171667Y-14091476D02*
X15171667Y-14129571D01*
X15466905Y-14367667D02*
X15457381Y-14358143D01*
X15438333Y-14329571D01*
X15428809Y-14310524D01*
X15419286Y-14281952D01*
X15409762Y-14234333D01*
X15409762Y-14196238D01*
X15419286Y-14148619D01*
X15428809Y-14120048D01*
X15438333Y-14101000D01*
X15457381Y-14072428D01*
X15466905Y-14062905D01*
X15571667Y-14177190D02*
X15552619Y-14167667D01*
X15543095Y-14158143D01*
X15533571Y-14139095D01*
X15533571Y-14129571D01*
X15543095Y-14110524D01*
X15552619Y-14101000D01*
X15571667Y-14091476D01*
X15609762Y-14091476D01*
X15628809Y-14101000D01*
X15638333Y-14110524D01*
X15647857Y-14129571D01*
X15647857Y-14139095D01*
X15638333Y-14158143D01*
X15628809Y-14167667D01*
X15609762Y-14177190D01*
X15571667Y-14177190D01*
X15552619Y-14186714D01*
X15543095Y-14196238D01*
X15533571Y-14215286D01*
X15533571Y-14253381D01*
X15543095Y-14272428D01*
X15552619Y-14281952D01*
X15571667Y-14291476D01*
X15609762Y-14291476D01*
X15628809Y-14281952D01*
X15638333Y-14272428D01*
X15647857Y-14253381D01*
X15647857Y-14215286D01*
X15638333Y-14196238D01*
X15628809Y-14186714D01*
X15609762Y-14177190D01*
X15885952Y-14291476D02*
X15885952Y-14091476D01*
X15971667Y-14291476D02*
X15971667Y-14186714D01*
X15962143Y-14167667D01*
X15943095Y-14158143D01*
X15914524Y-14158143D01*
X15895476Y-14167667D01*
X15885952Y-14177190D01*
X16095476Y-14291476D02*
X16076428Y-14281952D01*
X16066905Y-14272428D01*
X16057381Y-14253381D01*
X16057381Y-14196238D01*
X16066905Y-14177190D01*
X16076428Y-14167667D01*
X16095476Y-14158143D01*
X16124048Y-14158143D01*
X16143095Y-14167667D01*
X16152619Y-14177190D01*
X16162143Y-14196238D01*
X16162143Y-14253381D01*
X16152619Y-14272428D01*
X16143095Y-14281952D01*
X16124048Y-14291476D01*
X16095476Y-14291476D01*
X16276428Y-14291476D02*
X16257381Y-14281952D01*
X16247857Y-14262905D01*
X16247857Y-14091476D01*
X16428809Y-14281952D02*
X16409762Y-14291476D01*
X16371667Y-14291476D01*
X16352619Y-14281952D01*
X16343095Y-14262905D01*
X16343095Y-14186714D01*
X16352619Y-14167667D01*
X16371667Y-14158143D01*
X16409762Y-14158143D01*
X16428809Y-14167667D01*
X16438333Y-14186714D01*
X16438333Y-14205762D01*
X16343095Y-14224809D01*
X16514524Y-14281952D02*
X16533571Y-14291476D01*
X16571667Y-14291476D01*
X16590714Y-14281952D01*
X16600238Y-14262905D01*
X16600238Y-14253381D01*
X16590714Y-14234333D01*
X16571667Y-14224809D01*
X16543095Y-14224809D01*
X16524048Y-14215286D01*
X16514524Y-14196238D01*
X16514524Y-14186714D01*
X16524048Y-14167667D01*
X16543095Y-14158143D01*
X16571667Y-14158143D01*
X16590714Y-14167667D01*
X16666905Y-14367667D02*
X16676428Y-14358143D01*
X16695476Y-14329571D01*
X16705000Y-14310524D01*
X16714524Y-14281952D01*
X16724048Y-14234333D01*
X16724048Y-14196238D01*
X16714524Y-14148619D01*
X16705000Y-14120048D01*
X16695476Y-14101000D01*
X16676428Y-14072428D01*
X16666905Y-14062905D01*
D16*
X11765000Y-14400000D02*
X11895000Y-14530000D01*
X11895000Y-14400000D02*
X11765000Y-14530000D01*
X11895000Y-14465000D02*
G75*
G03*
X11895000Y-14465000I-65000J0D01*
G01*
D11*
X12257381Y-14555476D02*
X12143095Y-14555476D01*
X12200238Y-14555476D02*
X12200238Y-14355476D01*
X12181190Y-14384048D01*
X12162143Y-14403095D01*
X12143095Y-14412619D01*
X12343095Y-14536428D02*
X12352619Y-14545952D01*
X12343095Y-14555476D01*
X12333571Y-14545952D01*
X12343095Y-14536428D01*
X12343095Y-14555476D01*
X12419286Y-14355476D02*
X12543095Y-14355476D01*
X12476428Y-14431667D01*
X12505000Y-14431667D01*
X12524048Y-14441190D01*
X12533571Y-14450714D01*
X12543095Y-14469762D01*
X12543095Y-14517381D01*
X12533571Y-14536428D01*
X12524048Y-14545952D01*
X12505000Y-14555476D01*
X12447857Y-14555476D01*
X12428809Y-14545952D01*
X12419286Y-14536428D01*
X12666905Y-14355476D02*
X12685952Y-14355476D01*
X12705000Y-14365000D01*
X12714524Y-14374524D01*
X12724048Y-14393571D01*
X12733571Y-14431667D01*
X12733571Y-14479286D01*
X12724048Y-14517381D01*
X12714524Y-14536428D01*
X12705000Y-14545952D01*
X12685952Y-14555476D01*
X12666905Y-14555476D01*
X12647857Y-14545952D01*
X12638333Y-14536428D01*
X12628809Y-14517381D01*
X12619286Y-14479286D01*
X12619286Y-14431667D01*
X12628809Y-14393571D01*
X12638333Y-14374524D01*
X12647857Y-14365000D01*
X12666905Y-14355476D01*
X12857381Y-14355476D02*
X12876428Y-14355476D01*
X12895476Y-14365000D01*
X12905000Y-14374524D01*
X12914524Y-14393571D01*
X12924048Y-14431667D01*
X12924048Y-14479286D01*
X12914524Y-14517381D01*
X12905000Y-14536428D01*
X12895476Y-14545952D01*
X12876428Y-14555476D01*
X12857381Y-14555476D01*
X12838333Y-14545952D01*
X12828809Y-14536428D01*
X12819286Y-14517381D01*
X12809762Y-14479286D01*
X12809762Y-14431667D01*
X12819286Y-14393571D01*
X12828809Y-14374524D01*
X12838333Y-14365000D01*
X12857381Y-14355476D01*
X13009762Y-14555476D02*
X13009762Y-14422143D01*
X13009762Y-14441190D02*
X13019286Y-14431667D01*
X13038333Y-14422143D01*
X13066905Y-14422143D01*
X13085952Y-14431667D01*
X13095476Y-14450714D01*
X13095476Y-14555476D01*
X13095476Y-14450714D02*
X13105000Y-14431667D01*
X13124048Y-14422143D01*
X13152619Y-14422143D01*
X13171667Y-14431667D01*
X13181190Y-14450714D01*
X13181190Y-14555476D01*
X13276428Y-14555476D02*
X13276428Y-14422143D01*
X13276428Y-14441190D02*
X13285952Y-14431667D01*
X13305000Y-14422143D01*
X13333571Y-14422143D01*
X13352619Y-14431667D01*
X13362143Y-14450714D01*
X13362143Y-14555476D01*
X13362143Y-14450714D02*
X13371667Y-14431667D01*
X13390714Y-14422143D01*
X13419286Y-14422143D01*
X13438333Y-14431667D01*
X13447857Y-14450714D01*
X13447857Y-14555476D01*
X13838333Y-14345952D02*
X13666905Y-14603095D01*
X14095476Y-14355476D02*
X14114524Y-14355476D01*
X14133571Y-14365000D01*
X14143095Y-14374524D01*
X14152619Y-14393571D01*
X14162143Y-14431667D01*
X14162143Y-14479286D01*
X14152619Y-14517381D01*
X14143095Y-14536428D01*
X14133571Y-14545952D01*
X14114524Y-14555476D01*
X14095476Y-14555476D01*
X14076428Y-14545952D01*
X14066905Y-14536428D01*
X14057381Y-14517381D01*
X14047857Y-14479286D01*
X14047857Y-14431667D01*
X14057381Y-14393571D01*
X14066905Y-14374524D01*
X14076428Y-14365000D01*
X14095476Y-14355476D01*
X14247857Y-14536428D02*
X14257381Y-14545952D01*
X14247857Y-14555476D01*
X14238333Y-14545952D01*
X14247857Y-14536428D01*
X14247857Y-14555476D01*
X14381190Y-14355476D02*
X14400238Y-14355476D01*
X14419286Y-14365000D01*
X14428809Y-14374524D01*
X14438333Y-14393571D01*
X14447857Y-14431667D01*
X14447857Y-14479286D01*
X14438333Y-14517381D01*
X14428809Y-14536428D01*
X14419286Y-14545952D01*
X14400238Y-14555476D01*
X14381190Y-14555476D01*
X14362143Y-14545952D01*
X14352619Y-14536428D01*
X14343095Y-14517381D01*
X14333571Y-14479286D01*
X14333571Y-14431667D01*
X14343095Y-14393571D01*
X14352619Y-14374524D01*
X14362143Y-14365000D01*
X14381190Y-14355476D01*
X14628809Y-14355476D02*
X14533571Y-14355476D01*
X14524048Y-14450714D01*
X14533571Y-14441190D01*
X14552619Y-14431667D01*
X14600238Y-14431667D01*
X14619286Y-14441190D01*
X14628809Y-14450714D01*
X14638333Y-14469762D01*
X14638333Y-14517381D01*
X14628809Y-14536428D01*
X14619286Y-14545952D01*
X14600238Y-14555476D01*
X14552619Y-14555476D01*
X14533571Y-14545952D01*
X14524048Y-14536428D01*
X14828809Y-14555476D02*
X14714524Y-14555476D01*
X14771667Y-14555476D02*
X14771667Y-14355476D01*
X14752619Y-14384048D01*
X14733571Y-14403095D01*
X14714524Y-14412619D01*
X14905000Y-14374524D02*
X14914524Y-14365000D01*
X14933571Y-14355476D01*
X14981190Y-14355476D01*
X15000238Y-14365000D01*
X15009762Y-14374524D01*
X15019286Y-14393571D01*
X15019286Y-14412619D01*
X15009762Y-14441190D01*
X14895476Y-14555476D01*
X15019286Y-14555476D01*
X15095476Y-14355476D02*
X15095476Y-14393571D01*
X15171667Y-14355476D02*
X15171667Y-14393571D01*
X15466905Y-14631667D02*
X15457381Y-14622143D01*
X15438333Y-14593571D01*
X15428809Y-14574524D01*
X15419286Y-14545952D01*
X15409762Y-14498333D01*
X15409762Y-14460238D01*
X15419286Y-14412619D01*
X15428809Y-14384048D01*
X15438333Y-14365000D01*
X15457381Y-14336428D01*
X15466905Y-14326905D01*
X15533571Y-14374524D02*
X15543095Y-14365000D01*
X15562143Y-14355476D01*
X15609762Y-14355476D01*
X15628809Y-14365000D01*
X15638333Y-14374524D01*
X15647857Y-14393571D01*
X15647857Y-14412619D01*
X15638333Y-14441190D01*
X15524048Y-14555476D01*
X15647857Y-14555476D01*
X15885952Y-14555476D02*
X15885952Y-14355476D01*
X15971667Y-14555476D02*
X15971667Y-14450714D01*
X15962143Y-14431667D01*
X15943095Y-14422143D01*
X15914524Y-14422143D01*
X15895476Y-14431667D01*
X15885952Y-14441190D01*
X16095476Y-14555476D02*
X16076428Y-14545952D01*
X16066905Y-14536428D01*
X16057381Y-14517381D01*
X16057381Y-14460238D01*
X16066905Y-14441190D01*
X16076428Y-14431667D01*
X16095476Y-14422143D01*
X16124048Y-14422143D01*
X16143095Y-14431667D01*
X16152619Y-14441190D01*
X16162143Y-14460238D01*
X16162143Y-14517381D01*
X16152619Y-14536428D01*
X16143095Y-14545952D01*
X16124048Y-14555476D01*
X16095476Y-14555476D01*
X16276428Y-14555476D02*
X16257381Y-14545952D01*
X16247857Y-14526905D01*
X16247857Y-14355476D01*
X16428809Y-14545952D02*
X16409762Y-14555476D01*
X16371667Y-14555476D01*
X16352619Y-14545952D01*
X16343095Y-14526905D01*
X16343095Y-14450714D01*
X16352619Y-14431667D01*
X16371667Y-14422143D01*
X16409762Y-14422143D01*
X16428809Y-14431667D01*
X16438333Y-14450714D01*
X16438333Y-14469762D01*
X16343095Y-14488809D01*
X16514524Y-14545952D02*
X16533571Y-14555476D01*
X16571667Y-14555476D01*
X16590714Y-14545952D01*
X16600238Y-14526905D01*
X16600238Y-14517381D01*
X16590714Y-14498333D01*
X16571667Y-14488809D01*
X16543095Y-14488809D01*
X16524048Y-14479286D01*
X16514524Y-14460238D01*
X16514524Y-14450714D01*
X16524048Y-14431667D01*
X16543095Y-14422143D01*
X16571667Y-14422143D01*
X16590714Y-14431667D01*
X16666905Y-14631667D02*
X16676428Y-14622143D01*
X16695476Y-14593571D01*
X16705000Y-14574524D01*
X16714524Y-14545952D01*
X16724048Y-14498333D01*
X16724048Y-14460238D01*
X16714524Y-14412619D01*
X16705000Y-14384048D01*
X16695476Y-14365000D01*
X16676428Y-14336428D01*
X16666905Y-14326905D01*
M02*
