%TF.GenerationSoftware,KiCad,Pcbnew,6.0.11-2627ca5db0~126~ubuntu20.04.1*%
%TF.CreationDate,2025-05-12T21:47:33+10:00*%
%TF.ProjectId,encoder_pcb,656e636f-6465-4725-9f70-63622e6b6963,rev?*%
%TF.SameCoordinates,Original*%
%TF.FileFunction,Copper,L2,Bot*%
%TF.FilePolarity,Positive*%
%FSLAX46Y46*%
G04 Gerber Fmt 4.6, Leading zero omitted, Abs format (unit mm)*
G04 Created by KiCad (PCBNEW 6.0.11-2627ca5db0~126~ubuntu20.04.1) date 2025-05-12 21:47:33*
%MOMM*%
%LPD*%
G01*
G04 APERTURE LIST*
G04 Aperture macros list*
%AMRoundRect*
0 Rectangle with rounded corners*
0 $1 Rounding radius*
0 $2 $3 $4 $5 $6 $7 $8 $9 X,Y pos of 4 corners*
0 Add a 4 corners polygon primitive as box body*
4,1,4,$2,$3,$4,$5,$6,$7,$8,$9,$2,$3,0*
0 Add four circle primitives for the rounded corners*
1,1,$1+$1,$2,$3*
1,1,$1+$1,$4,$5*
1,1,$1+$1,$6,$7*
1,1,$1+$1,$8,$9*
0 Add four rect primitives between the rounded corners*
20,1,$1+$1,$2,$3,$4,$5,0*
20,1,$1+$1,$4,$5,$6,$7,0*
20,1,$1+$1,$6,$7,$8,$9,0*
20,1,$1+$1,$8,$9,$2,$3,0*%
G04 Aperture macros list end*
%TA.AperFunction,ComponentPad*%
%ADD10R,1.700000X1.700000*%
%TD*%
%TA.AperFunction,ComponentPad*%
%ADD11O,1.700000X1.700000*%
%TD*%
%TA.AperFunction,ComponentPad*%
%ADD12C,0.475000*%
%TD*%
%TA.AperFunction,ComponentPad*%
%ADD13R,2.200000X2.200000*%
%TD*%
%TA.AperFunction,ComponentPad*%
%ADD14C,2.200000*%
%TD*%
%TA.AperFunction,ComponentPad*%
%ADD15RoundRect,0.250000X-0.600000X-0.725000X0.600000X-0.725000X0.600000X0.725000X-0.600000X0.725000X0*%
%TD*%
%TA.AperFunction,ComponentPad*%
%ADD16O,1.700000X1.950000*%
%TD*%
%TA.AperFunction,ComponentPad*%
%ADD17C,2.300000*%
%TD*%
%TA.AperFunction,ComponentPad*%
%ADD18RoundRect,0.250000X0.725000X-0.600000X0.725000X0.600000X-0.725000X0.600000X-0.725000X-0.600000X0*%
%TD*%
%TA.AperFunction,ComponentPad*%
%ADD19O,1.950000X1.700000*%
%TD*%
%TA.AperFunction,ViaPad*%
%ADD20C,0.800000*%
%TD*%
%TA.AperFunction,Conductor*%
%ADD21C,0.500000*%
%TD*%
%TA.AperFunction,Conductor*%
%ADD22C,0.250000*%
%TD*%
G04 APERTURE END LIST*
D10*
%TO.P,J5,1,Pin_1*%
%TO.N,/GND*%
X159000000Y-103800000D03*
D11*
%TO.P,J5,2,Pin_2*%
%TO.N,/VIN*%
X159000000Y-101260000D03*
%TO.P,J5,3,Pin_3*%
%TO.N,/TTLTX*%
X159000000Y-98720000D03*
%TO.P,J5,4,Pin_4*%
%TO.N,/TTLRX*%
X159000000Y-96180000D03*
%TD*%
D12*
%TO.P,U1,39,GND*%
%TO.N,/GND*%
X142500000Y-96260000D03*
X141100000Y-96260000D03*
X141100000Y-94860000D03*
X143900000Y-94860000D03*
X143200000Y-94160000D03*
X143200000Y-96960000D03*
X141800000Y-95560000D03*
X141800000Y-94160000D03*
X142500000Y-94860000D03*
X141800000Y-96960000D03*
X143200000Y-95560000D03*
X143900000Y-96260000D03*
%TD*%
D13*
%TO.P,S2,1,COM_1*%
%TO.N,/IO0*%
X161750000Y-114750000D03*
D14*
%TO.P,S2,2,COM_2*%
X161750000Y-108250000D03*
%TO.P,S2,3,NO_1*%
%TO.N,/GND*%
X166250000Y-114750000D03*
%TO.P,S2,4,NO_2*%
X166250000Y-108250000D03*
%TD*%
D15*
%TO.P,J3,1,Pin_1*%
%TO.N,/GND*%
X132250000Y-119500000D03*
D16*
%TO.P,J3,2,Pin_2*%
%TO.N,/3.3V*%
X134750000Y-119500000D03*
%TO.P,J3,3,Pin_3*%
%TO.N,/LEFT_A*%
X137250000Y-119500000D03*
%TO.P,J3,4,Pin_4*%
%TO.N,/LEFT_B*%
X139750000Y-119500000D03*
%TD*%
D10*
%TO.P,J6,1,Pin_1*%
%TO.N,/GND*%
X132150000Y-111475000D03*
D11*
%TO.P,J6,2,Pin_2*%
%TO.N,/3.3V*%
X134690000Y-111475000D03*
%TO.P,J6,3,Pin_3*%
%TO.N,/LEFT_A*%
X137230000Y-111475000D03*
%TO.P,J6,4,Pin_4*%
%TO.N,/LEFT_B*%
X139770000Y-111475000D03*
%TD*%
D13*
%TO.P,S1,1,COM_1*%
%TO.N,/EN*%
X161750000Y-91750000D03*
D14*
%TO.P,S1,2,COM_2*%
X161750000Y-85250000D03*
%TO.P,S1,3,NO_1*%
%TO.N,/GND*%
X166250000Y-91750000D03*
%TO.P,S1,4,NO_2*%
X166250000Y-85250000D03*
%TD*%
D13*
%TO.P,J1,1,Pin_1*%
%TO.N,/VIN*%
X152438000Y-81750000D03*
D17*
%TO.P,J1,2,Pin_2*%
%TO.N,/GND*%
X157518000Y-81750000D03*
%TD*%
D15*
%TO.P,J4,1,Pin_1*%
%TO.N,/GND*%
X148250000Y-119500000D03*
D16*
%TO.P,J4,2,Pin_2*%
%TO.N,/3.3V*%
X150750000Y-119500000D03*
%TO.P,J4,3,Pin_3*%
%TO.N,/RIGHT_A*%
X153250000Y-119500000D03*
%TO.P,J4,4,Pin_4*%
%TO.N,/RIGHT_B*%
X155750000Y-119500000D03*
%TD*%
D18*
%TO.P,J2,1,Pin_1*%
%TO.N,/GND*%
X163475000Y-103750000D03*
D19*
%TO.P,J2,2,Pin_2*%
%TO.N,/VIN*%
X163475000Y-101250000D03*
%TO.P,J2,3,Pin_3*%
%TO.N,/TTLTX*%
X163475000Y-98750000D03*
%TO.P,J2,4,Pin_4*%
%TO.N,/TTLRX*%
X163475000Y-96250000D03*
%TD*%
D10*
%TO.P,J7,1,Pin_1*%
%TO.N,/GND*%
X148200000Y-111500000D03*
D11*
%TO.P,J7,2,Pin_2*%
%TO.N,/3.3V*%
X150740000Y-111500000D03*
%TO.P,J7,3,Pin_3*%
%TO.N,/RIGHT_A*%
X153280000Y-111500000D03*
%TO.P,J7,4,Pin_4*%
%TO.N,/RIGHT_B*%
X155820000Y-111500000D03*
%TD*%
D20*
%TO.N,/3.3V*%
X131750000Y-94950000D03*
%TO.N,/GND*%
X136750000Y-88000000D03*
X142250000Y-83500000D03*
X133750000Y-88000000D03*
X142250000Y-81250000D03*
X138250000Y-104250000D03*
X151250000Y-88000000D03*
X154250000Y-88000000D03*
X138250000Y-107000000D03*
%TO.N,/EN*%
X135250000Y-90535000D03*
%TO.N,/LEFT_A*%
X152750000Y-100695000D03*
%TO.N,/LEFT_B*%
X152750000Y-101965000D03*
%TO.N,/RIGHT_B*%
X152750000Y-96885000D03*
%TO.N,/RIGHT_A*%
X152750000Y-98155000D03*
%TD*%
D21*
%TO.N,/3.3V*%
X150740000Y-119490000D02*
X150750000Y-119500000D01*
X131750000Y-107750000D02*
X131750000Y-94950000D01*
X134750000Y-119500000D02*
X134750000Y-121000000D01*
X134750000Y-121000000D02*
X136000000Y-122250000D01*
X134000000Y-109250000D02*
X134690000Y-109940000D01*
X133250000Y-109250000D02*
X134000000Y-109250000D01*
X150750000Y-121000000D02*
X150750000Y-119500000D01*
X136000000Y-122250000D02*
X149500000Y-122250000D01*
X150740000Y-111500000D02*
X150740000Y-119490000D01*
X134690000Y-119440000D02*
X134750000Y-119500000D01*
X134690000Y-109940000D02*
X134690000Y-111475000D01*
X131750000Y-107750000D02*
X133250000Y-109250000D01*
X134690000Y-111475000D02*
X134690000Y-119440000D01*
X149500000Y-122250000D02*
X150750000Y-121000000D01*
%TO.N,/VIN*%
X163475000Y-101250000D02*
X159010000Y-101250000D01*
X164000000Y-89750000D02*
X164000000Y-93500000D01*
X152438000Y-83688000D02*
X155750000Y-87000000D01*
X159750000Y-88250000D02*
X162500000Y-88250000D01*
X159010000Y-101250000D02*
X159000000Y-101260000D01*
X165750000Y-95250000D02*
X165750000Y-101000000D01*
X155750000Y-87000000D02*
X158500000Y-87000000D01*
X164000000Y-93500000D02*
X165750000Y-95250000D01*
X162500000Y-88250000D02*
X164000000Y-89750000D01*
X165750000Y-101000000D02*
X165500000Y-101250000D01*
X165500000Y-101250000D02*
X163475000Y-101250000D01*
X152438000Y-81750000D02*
X152438000Y-83688000D01*
X158500000Y-87000000D02*
X159750000Y-88250000D01*
D22*
%TO.N,/EN*%
X159035000Y-90535000D02*
X135250000Y-90535000D01*
X160250000Y-91750000D02*
X161750000Y-91750000D01*
X159035000Y-90535000D02*
X160250000Y-91750000D01*
D21*
%TO.N,/LEFT_A*%
X152750000Y-100695000D02*
X146805000Y-100695000D01*
X137230000Y-111475000D02*
X137230000Y-119480000D01*
X146805000Y-100695000D02*
X137230000Y-110270000D01*
X137230000Y-110270000D02*
X137230000Y-111475000D01*
X137230000Y-119480000D02*
X137250000Y-119500000D01*
%TO.N,/LEFT_B*%
X147785000Y-101965000D02*
X139770000Y-109980000D01*
X139770000Y-119480000D02*
X139750000Y-119500000D01*
X139770000Y-111475000D02*
X139770000Y-119480000D01*
X147785000Y-101965000D02*
X152750000Y-101965000D01*
X139770000Y-109980000D02*
X139770000Y-111475000D01*
%TO.N,/RIGHT_B*%
X154385000Y-96885000D02*
X152750000Y-96885000D01*
X156750000Y-99250000D02*
X156750000Y-110570000D01*
X155820000Y-111500000D02*
X155820000Y-119430000D01*
X155820000Y-119430000D02*
X155750000Y-119500000D01*
X156750000Y-110570000D02*
X155820000Y-111500000D01*
X156750000Y-99250000D02*
X154385000Y-96885000D01*
%TO.N,/RIGHT_A*%
X153280000Y-119470000D02*
X153250000Y-119500000D01*
X153905000Y-98155000D02*
X152750000Y-98155000D01*
X153280000Y-111500000D02*
X153280000Y-119470000D01*
X155500000Y-99750000D02*
X155500000Y-109280000D01*
X155500000Y-99750000D02*
X153905000Y-98155000D01*
X155500000Y-109280000D02*
X153280000Y-111500000D01*
%TD*%
%TA.AperFunction,Conductor*%
%TO.N,/GND*%
G36*
X168433621Y-75528502D02*
G01*
X168480114Y-75582158D01*
X168491500Y-75634500D01*
X168491500Y-124365500D01*
X168471498Y-124433621D01*
X168417842Y-124480114D01*
X168365500Y-124491500D01*
X119634500Y-124491500D01*
X119566379Y-124471498D01*
X119519886Y-124417842D01*
X119508500Y-124365500D01*
X119508500Y-120132703D01*
X121890743Y-120132703D01*
X121928268Y-120417734D01*
X122004129Y-120695036D01*
X122005813Y-120698984D01*
X122103902Y-120928948D01*
X122116923Y-120959476D01*
X122184571Y-121072507D01*
X122242673Y-121169588D01*
X122264561Y-121206161D01*
X122444313Y-121430528D01*
X122525548Y-121507617D01*
X122605797Y-121583770D01*
X122652851Y-121628423D01*
X122886317Y-121796186D01*
X122890112Y-121798195D01*
X122890113Y-121798196D01*
X122911869Y-121809715D01*
X123140392Y-121930712D01*
X123410373Y-122029511D01*
X123691264Y-122090755D01*
X123719841Y-122093004D01*
X123914282Y-122108307D01*
X123914291Y-122108307D01*
X123916739Y-122108500D01*
X124072271Y-122108500D01*
X124074407Y-122108354D01*
X124074418Y-122108354D01*
X124282548Y-122094165D01*
X124282554Y-122094164D01*
X124286825Y-122093873D01*
X124291020Y-122093004D01*
X124291022Y-122093004D01*
X124427583Y-122064724D01*
X124568342Y-122035574D01*
X124839343Y-121939607D01*
X125094812Y-121807750D01*
X125098313Y-121805289D01*
X125098317Y-121805287D01*
X125212417Y-121725096D01*
X125330023Y-121642441D01*
X125512023Y-121473316D01*
X125537479Y-121449661D01*
X125537481Y-121449658D01*
X125540622Y-121446740D01*
X125722713Y-121224268D01*
X125872927Y-120979142D01*
X125876880Y-120970138D01*
X125986757Y-120719830D01*
X125988483Y-120715898D01*
X126067244Y-120439406D01*
X126091055Y-120272095D01*
X130892001Y-120272095D01*
X130892338Y-120278614D01*
X130902257Y-120374206D01*
X130905149Y-120387600D01*
X130956588Y-120541784D01*
X130962761Y-120554962D01*
X131048063Y-120692807D01*
X131057099Y-120704208D01*
X131171829Y-120818739D01*
X131183240Y-120827751D01*
X131321243Y-120912816D01*
X131334424Y-120918963D01*
X131488710Y-120970138D01*
X131502086Y-120973005D01*
X131596438Y-120982672D01*
X131602854Y-120983000D01*
X131977885Y-120983000D01*
X131993124Y-120978525D01*
X131994329Y-120977135D01*
X131996000Y-120969452D01*
X131996000Y-119772115D01*
X131991525Y-119756876D01*
X131990135Y-119755671D01*
X131982452Y-119754000D01*
X130910116Y-119754000D01*
X130894877Y-119758475D01*
X130893672Y-119759865D01*
X130892001Y-119767548D01*
X130892001Y-120272095D01*
X126091055Y-120272095D01*
X126107751Y-120154784D01*
X126107845Y-120136951D01*
X126109235Y-119871583D01*
X126109235Y-119871576D01*
X126109257Y-119867297D01*
X126071732Y-119582266D01*
X125995871Y-119304964D01*
X125985295Y-119280170D01*
X125962994Y-119227885D01*
X130892000Y-119227885D01*
X130896475Y-119243124D01*
X130897865Y-119244329D01*
X130905548Y-119246000D01*
X131977885Y-119246000D01*
X131993124Y-119241525D01*
X131994329Y-119240135D01*
X131996000Y-119232452D01*
X131996000Y-118035116D01*
X131991525Y-118019877D01*
X131990135Y-118018672D01*
X131982452Y-118017001D01*
X131602905Y-118017001D01*
X131596386Y-118017338D01*
X131500794Y-118027257D01*
X131487400Y-118030149D01*
X131333216Y-118081588D01*
X131320038Y-118087761D01*
X131182193Y-118173063D01*
X131170792Y-118182099D01*
X131056261Y-118296829D01*
X131047249Y-118308240D01*
X130962184Y-118446243D01*
X130956037Y-118459424D01*
X130904862Y-118613710D01*
X130901995Y-118627086D01*
X130892328Y-118721438D01*
X130892000Y-118727855D01*
X130892000Y-119227885D01*
X125962994Y-119227885D01*
X125884763Y-119044476D01*
X125884761Y-119044472D01*
X125883077Y-119040524D01*
X125735439Y-118793839D01*
X125555687Y-118569472D01*
X125347149Y-118371577D01*
X125113683Y-118203814D01*
X125108180Y-118200900D01*
X125059822Y-118175296D01*
X124859608Y-118069288D01*
X124589627Y-117970489D01*
X124308736Y-117909245D01*
X124277685Y-117906801D01*
X124085718Y-117891693D01*
X124085709Y-117891693D01*
X124083261Y-117891500D01*
X123927729Y-117891500D01*
X123925593Y-117891646D01*
X123925582Y-117891646D01*
X123717452Y-117905835D01*
X123717446Y-117905836D01*
X123713175Y-117906127D01*
X123708980Y-117906996D01*
X123708978Y-117906996D01*
X123572416Y-117935277D01*
X123431658Y-117964426D01*
X123160657Y-118060393D01*
X123156848Y-118062359D01*
X122924133Y-118182472D01*
X122905188Y-118192250D01*
X122901687Y-118194711D01*
X122901683Y-118194713D01*
X122819818Y-118252249D01*
X122669977Y-118357559D01*
X122654892Y-118371577D01*
X122514051Y-118502455D01*
X122459378Y-118553260D01*
X122277287Y-118775732D01*
X122127073Y-119020858D01*
X122125347Y-119024791D01*
X122125346Y-119024792D01*
X122034190Y-119232452D01*
X122011517Y-119284102D01*
X121932756Y-119560594D01*
X121892249Y-119845216D01*
X121892227Y-119849505D01*
X121892226Y-119849512D01*
X121891030Y-120077872D01*
X121890743Y-120132703D01*
X119508500Y-120132703D01*
X119508500Y-112369669D01*
X130792001Y-112369669D01*
X130792371Y-112376490D01*
X130797895Y-112427352D01*
X130801521Y-112442604D01*
X130846676Y-112563054D01*
X130855214Y-112578649D01*
X130931715Y-112680724D01*
X130944276Y-112693285D01*
X131046351Y-112769786D01*
X131061946Y-112778324D01*
X131182394Y-112823478D01*
X131197649Y-112827105D01*
X131248514Y-112832631D01*
X131255328Y-112833000D01*
X131877885Y-112833000D01*
X131893124Y-112828525D01*
X131894329Y-112827135D01*
X131896000Y-112819452D01*
X131896000Y-111747115D01*
X131891525Y-111731876D01*
X131890135Y-111730671D01*
X131882452Y-111729000D01*
X130810116Y-111729000D01*
X130794877Y-111733475D01*
X130793672Y-111734865D01*
X130792001Y-111742548D01*
X130792001Y-112369669D01*
X119508500Y-112369669D01*
X119508500Y-111202885D01*
X130792000Y-111202885D01*
X130796475Y-111218124D01*
X130797865Y-111219329D01*
X130805548Y-111221000D01*
X131877885Y-111221000D01*
X131893124Y-111216525D01*
X131894329Y-111215135D01*
X131896000Y-111207452D01*
X131896000Y-110135116D01*
X131891525Y-110119877D01*
X131890135Y-110118672D01*
X131882452Y-110117001D01*
X131255331Y-110117001D01*
X131248510Y-110117371D01*
X131197648Y-110122895D01*
X131182396Y-110126521D01*
X131061946Y-110171676D01*
X131046351Y-110180214D01*
X130944276Y-110256715D01*
X130931715Y-110269276D01*
X130855214Y-110371351D01*
X130846676Y-110386946D01*
X130801522Y-110507394D01*
X130797895Y-110522649D01*
X130792369Y-110573514D01*
X130792000Y-110580328D01*
X130792000Y-111202885D01*
X119508500Y-111202885D01*
X119508500Y-94950000D01*
X130836496Y-94950000D01*
X130837186Y-94956565D01*
X130855034Y-95126376D01*
X130856458Y-95139928D01*
X130915473Y-95321556D01*
X130918776Y-95327278D01*
X130918777Y-95327279D01*
X130974619Y-95423999D01*
X130991500Y-95486999D01*
X130991500Y-107682930D01*
X130990067Y-107701880D01*
X130986801Y-107723349D01*
X130987394Y-107730641D01*
X130987394Y-107730644D01*
X130991085Y-107776018D01*
X130991500Y-107786233D01*
X130991500Y-107794293D01*
X130991925Y-107797937D01*
X130994789Y-107822507D01*
X130995222Y-107826882D01*
X130999998Y-107885592D01*
X131001140Y-107899637D01*
X131003396Y-107906601D01*
X131004587Y-107912560D01*
X131005971Y-107918415D01*
X131006818Y-107925681D01*
X131031735Y-107994327D01*
X131033152Y-107998455D01*
X131055649Y-108067899D01*
X131059445Y-108074154D01*
X131061951Y-108079628D01*
X131064670Y-108085058D01*
X131067167Y-108091937D01*
X131071180Y-108098057D01*
X131071180Y-108098058D01*
X131107186Y-108152976D01*
X131109523Y-108156680D01*
X131147405Y-108219107D01*
X131151121Y-108223315D01*
X131151122Y-108223316D01*
X131154803Y-108227484D01*
X131154776Y-108227508D01*
X131157429Y-108230500D01*
X131160132Y-108233733D01*
X131164144Y-108239852D01*
X131176051Y-108251132D01*
X131220383Y-108293128D01*
X131222825Y-108295506D01*
X132666230Y-109738911D01*
X132678616Y-109753323D01*
X132687149Y-109764918D01*
X132687154Y-109764923D01*
X132691492Y-109770818D01*
X132697070Y-109775557D01*
X132697073Y-109775560D01*
X132731768Y-109805035D01*
X132739284Y-109811965D01*
X132744979Y-109817660D01*
X132747861Y-109819940D01*
X132767251Y-109835281D01*
X132770655Y-109838072D01*
X132820705Y-109880593D01*
X132820708Y-109880595D01*
X132826285Y-109885333D01*
X132829925Y-109887192D01*
X132874649Y-109940613D01*
X132883557Y-110011049D01*
X132852970Y-110075119D01*
X132792601Y-110112482D01*
X132759162Y-110117000D01*
X132422115Y-110117000D01*
X132406876Y-110121475D01*
X132405671Y-110122865D01*
X132404000Y-110130548D01*
X132404000Y-112814884D01*
X132408475Y-112830123D01*
X132409865Y-112831328D01*
X132417548Y-112832999D01*
X133044669Y-112832999D01*
X133051490Y-112832629D01*
X133102352Y-112827105D01*
X133117604Y-112823479D01*
X133238054Y-112778324D01*
X133253649Y-112769786D01*
X133355724Y-112693285D01*
X133368285Y-112680724D01*
X133444786Y-112578649D01*
X133453324Y-112563054D01*
X133494225Y-112453952D01*
X133536867Y-112397188D01*
X133603428Y-112372488D01*
X133672777Y-112387696D01*
X133707444Y-112415684D01*
X133732865Y-112445031D01*
X133732869Y-112445035D01*
X133736250Y-112448938D01*
X133885985Y-112573250D01*
X133925620Y-112632152D01*
X133931500Y-112670194D01*
X133931500Y-118229064D01*
X133911498Y-118297185D01*
X133888081Y-118324229D01*
X133857594Y-118350684D01*
X133836402Y-118369074D01*
X133772555Y-118424477D01*
X133769168Y-118428608D01*
X133742994Y-118460529D01*
X133684334Y-118500524D01*
X133613364Y-118502455D01*
X133552616Y-118465710D01*
X133538416Y-118446941D01*
X133451937Y-118307193D01*
X133442901Y-118295792D01*
X133328171Y-118181261D01*
X133316760Y-118172249D01*
X133178757Y-118087184D01*
X133165576Y-118081037D01*
X133011290Y-118029862D01*
X132997914Y-118026995D01*
X132903562Y-118017328D01*
X132897145Y-118017000D01*
X132522115Y-118017000D01*
X132506876Y-118021475D01*
X132505671Y-118022865D01*
X132504000Y-118030548D01*
X132504000Y-120964884D01*
X132508475Y-120980123D01*
X132509865Y-120981328D01*
X132517548Y-120982999D01*
X132897095Y-120982999D01*
X132903614Y-120982662D01*
X132999206Y-120972743D01*
X133012600Y-120969851D01*
X133166784Y-120918412D01*
X133179962Y-120912239D01*
X133317807Y-120826937D01*
X133329208Y-120817901D01*
X133443739Y-120703171D01*
X133452753Y-120691757D01*
X133538723Y-120552287D01*
X133591495Y-120504793D01*
X133661566Y-120493369D01*
X133726690Y-120521643D01*
X133737149Y-120531426D01*
X133846576Y-120646135D01*
X133940341Y-120715898D01*
X133940713Y-120716175D01*
X133983426Y-120772885D01*
X133991500Y-120817264D01*
X133991500Y-120932930D01*
X133990067Y-120951880D01*
X133988089Y-120964884D01*
X133986801Y-120973349D01*
X133987394Y-120980641D01*
X133987394Y-120980644D01*
X133991085Y-121026018D01*
X133991500Y-121036233D01*
X133991500Y-121044293D01*
X133991925Y-121047937D01*
X133994789Y-121072507D01*
X133995222Y-121076882D01*
X134001140Y-121149637D01*
X134003396Y-121156601D01*
X134004587Y-121162560D01*
X134005971Y-121168415D01*
X134006818Y-121175681D01*
X134031735Y-121244327D01*
X134033152Y-121248455D01*
X134055649Y-121317899D01*
X134059445Y-121324154D01*
X134061951Y-121329628D01*
X134064670Y-121335058D01*
X134067167Y-121341937D01*
X134071180Y-121348057D01*
X134071180Y-121348058D01*
X134107186Y-121402976D01*
X134109523Y-121406680D01*
X134147405Y-121469107D01*
X134151121Y-121473315D01*
X134151122Y-121473316D01*
X134154803Y-121477484D01*
X134154776Y-121477508D01*
X134157429Y-121480500D01*
X134160132Y-121483733D01*
X134164144Y-121489852D01*
X134169456Y-121494884D01*
X134220383Y-121543128D01*
X134222825Y-121545506D01*
X135416230Y-122738911D01*
X135428616Y-122753323D01*
X135437149Y-122764918D01*
X135437154Y-122764923D01*
X135441492Y-122770818D01*
X135447070Y-122775557D01*
X135447073Y-122775560D01*
X135481768Y-122805035D01*
X135489284Y-122811965D01*
X135494979Y-122817660D01*
X135497861Y-122819940D01*
X135517251Y-122835281D01*
X135520655Y-122838072D01*
X135570703Y-122880591D01*
X135576285Y-122885333D01*
X135582801Y-122888661D01*
X135587850Y-122892028D01*
X135592979Y-122895195D01*
X135598716Y-122899734D01*
X135664875Y-122930655D01*
X135668769Y-122932558D01*
X135733808Y-122965769D01*
X135740916Y-122967508D01*
X135746559Y-122969607D01*
X135752322Y-122971524D01*
X135758950Y-122974622D01*
X135766112Y-122976112D01*
X135766113Y-122976112D01*
X135830412Y-122989486D01*
X135834696Y-122990456D01*
X135905610Y-123007808D01*
X135911212Y-123008156D01*
X135911215Y-123008156D01*
X135916764Y-123008500D01*
X135916762Y-123008536D01*
X135920755Y-123008775D01*
X135924947Y-123009149D01*
X135932115Y-123010640D01*
X136009520Y-123008546D01*
X136012928Y-123008500D01*
X149432930Y-123008500D01*
X149451880Y-123009933D01*
X149466115Y-123012099D01*
X149466119Y-123012099D01*
X149473349Y-123013199D01*
X149480641Y-123012606D01*
X149480644Y-123012606D01*
X149526018Y-123008915D01*
X149536233Y-123008500D01*
X149544293Y-123008500D01*
X149561680Y-123006473D01*
X149572507Y-123005211D01*
X149576882Y-123004778D01*
X149642339Y-122999454D01*
X149642342Y-122999453D01*
X149649637Y-122998860D01*
X149656601Y-122996604D01*
X149662560Y-122995413D01*
X149668415Y-122994029D01*
X149675681Y-122993182D01*
X149744327Y-122968265D01*
X149748455Y-122966848D01*
X149810936Y-122946607D01*
X149810938Y-122946606D01*
X149817899Y-122944351D01*
X149824154Y-122940555D01*
X149829628Y-122938049D01*
X149835058Y-122935330D01*
X149841937Y-122932833D01*
X149848058Y-122928820D01*
X149902976Y-122892814D01*
X149906680Y-122890477D01*
X149969107Y-122852595D01*
X149977484Y-122845197D01*
X149977508Y-122845224D01*
X149980500Y-122842571D01*
X149983733Y-122839868D01*
X149989852Y-122835856D01*
X150043128Y-122779617D01*
X150045506Y-122777175D01*
X151238911Y-121583770D01*
X151253323Y-121571384D01*
X151264918Y-121562851D01*
X151264923Y-121562846D01*
X151270818Y-121558508D01*
X151275557Y-121552930D01*
X151275560Y-121552927D01*
X151305035Y-121518232D01*
X151311965Y-121510716D01*
X151317660Y-121505021D01*
X151335281Y-121482749D01*
X151338072Y-121479345D01*
X151380591Y-121429297D01*
X151380592Y-121429295D01*
X151385333Y-121423715D01*
X151388661Y-121417199D01*
X151392028Y-121412150D01*
X151395195Y-121407021D01*
X151399734Y-121401284D01*
X151430655Y-121335125D01*
X151432561Y-121331225D01*
X151465769Y-121266192D01*
X151467508Y-121259084D01*
X151469607Y-121253441D01*
X151471524Y-121247678D01*
X151474622Y-121241050D01*
X151489487Y-121169583D01*
X151490457Y-121165299D01*
X151506473Y-121099845D01*
X151507808Y-121094390D01*
X151508500Y-121083236D01*
X151508536Y-121083238D01*
X151508775Y-121079245D01*
X151509149Y-121075053D01*
X151510640Y-121067885D01*
X151508546Y-120990479D01*
X151508500Y-120987072D01*
X151508500Y-120822808D01*
X151528502Y-120754687D01*
X151554103Y-120727529D01*
X151553317Y-120726623D01*
X151723412Y-120579023D01*
X151723414Y-120579021D01*
X151727445Y-120575523D01*
X151794807Y-120493369D01*
X151870240Y-120401373D01*
X151870244Y-120401367D01*
X151873624Y-120397245D01*
X151891552Y-120365750D01*
X151942632Y-120316445D01*
X152012262Y-120302583D01*
X152078333Y-120328566D01*
X152105573Y-120357716D01*
X152187441Y-120479319D01*
X152191120Y-120483176D01*
X152191122Y-120483178D01*
X152247030Y-120541784D01*
X152346576Y-120646135D01*
X152531542Y-120783754D01*
X152536293Y-120786170D01*
X152536297Y-120786172D01*
X152618078Y-120827751D01*
X152737051Y-120888240D01*
X152742145Y-120889822D01*
X152742148Y-120889823D01*
X152942004Y-120951880D01*
X152957227Y-120956607D01*
X152962516Y-120957308D01*
X153180489Y-120986198D01*
X153180494Y-120986198D01*
X153185774Y-120986898D01*
X153191103Y-120986698D01*
X153191105Y-120986698D01*
X153300966Y-120982574D01*
X153416158Y-120978249D01*
X153421468Y-120977135D01*
X153636572Y-120932002D01*
X153641791Y-120930907D01*
X153646750Y-120928949D01*
X153646752Y-120928948D01*
X153851256Y-120848185D01*
X153851258Y-120848184D01*
X153856221Y-120846224D01*
X153887597Y-120827185D01*
X154048757Y-120729390D01*
X154048756Y-120729390D01*
X154053317Y-120726623D01*
X154094488Y-120690897D01*
X154223412Y-120579023D01*
X154223414Y-120579021D01*
X154227445Y-120575523D01*
X154294807Y-120493369D01*
X154370240Y-120401373D01*
X154370244Y-120401367D01*
X154373624Y-120397245D01*
X154391552Y-120365750D01*
X154442632Y-120316445D01*
X154512262Y-120302583D01*
X154578333Y-120328566D01*
X154605573Y-120357716D01*
X154687441Y-120479319D01*
X154691120Y-120483176D01*
X154691122Y-120483178D01*
X154747030Y-120541784D01*
X154846576Y-120646135D01*
X155031542Y-120783754D01*
X155036293Y-120786170D01*
X155036297Y-120786172D01*
X155118078Y-120827751D01*
X155237051Y-120888240D01*
X155242145Y-120889822D01*
X155242148Y-120889823D01*
X155442004Y-120951880D01*
X155457227Y-120956607D01*
X155462516Y-120957308D01*
X155680489Y-120986198D01*
X155680494Y-120986198D01*
X155685774Y-120986898D01*
X155691103Y-120986698D01*
X155691105Y-120986698D01*
X155800966Y-120982574D01*
X155916158Y-120978249D01*
X155921468Y-120977135D01*
X156136572Y-120932002D01*
X156141791Y-120930907D01*
X156146750Y-120928949D01*
X156146752Y-120928948D01*
X156351256Y-120848185D01*
X156351258Y-120848184D01*
X156356221Y-120846224D01*
X156387597Y-120827185D01*
X156548757Y-120729390D01*
X156548756Y-120729390D01*
X156553317Y-120726623D01*
X156594488Y-120690897D01*
X156723412Y-120579023D01*
X156723414Y-120579021D01*
X156727445Y-120575523D01*
X156794807Y-120493369D01*
X156870240Y-120401373D01*
X156870244Y-120401367D01*
X156873624Y-120397245D01*
X156879115Y-120387600D01*
X156985032Y-120201529D01*
X156987675Y-120196886D01*
X157010972Y-120132703D01*
X161890743Y-120132703D01*
X161928268Y-120417734D01*
X162004129Y-120695036D01*
X162005813Y-120698984D01*
X162103902Y-120928948D01*
X162116923Y-120959476D01*
X162184571Y-121072507D01*
X162242673Y-121169588D01*
X162264561Y-121206161D01*
X162444313Y-121430528D01*
X162525548Y-121507617D01*
X162605797Y-121583770D01*
X162652851Y-121628423D01*
X162886317Y-121796186D01*
X162890112Y-121798195D01*
X162890113Y-121798196D01*
X162911869Y-121809715D01*
X163140392Y-121930712D01*
X163410373Y-122029511D01*
X163691264Y-122090755D01*
X163719841Y-122093004D01*
X163914282Y-122108307D01*
X163914291Y-122108307D01*
X163916739Y-122108500D01*
X164072271Y-122108500D01*
X164074407Y-122108354D01*
X164074418Y-122108354D01*
X164282548Y-122094165D01*
X164282554Y-122094164D01*
X164286825Y-122093873D01*
X164291020Y-122093004D01*
X164291022Y-122093004D01*
X164427583Y-122064724D01*
X164568342Y-122035574D01*
X164839343Y-121939607D01*
X165094812Y-121807750D01*
X165098313Y-121805289D01*
X165098317Y-121805287D01*
X165212417Y-121725096D01*
X165330023Y-121642441D01*
X165512023Y-121473316D01*
X165537479Y-121449661D01*
X165537481Y-121449658D01*
X165540622Y-121446740D01*
X165722713Y-121224268D01*
X165872927Y-120979142D01*
X165876880Y-120970138D01*
X165986757Y-120719830D01*
X165988483Y-120715898D01*
X166067244Y-120439406D01*
X166107751Y-120154784D01*
X166107845Y-120136951D01*
X166109235Y-119871583D01*
X166109235Y-119871576D01*
X166109257Y-119867297D01*
X166071732Y-119582266D01*
X165995871Y-119304964D01*
X165985295Y-119280170D01*
X165884763Y-119044476D01*
X165884761Y-119044472D01*
X165883077Y-119040524D01*
X165735439Y-118793839D01*
X165555687Y-118569472D01*
X165347149Y-118371577D01*
X165113683Y-118203814D01*
X165108180Y-118200900D01*
X165059822Y-118175296D01*
X164859608Y-118069288D01*
X164589627Y-117970489D01*
X164308736Y-117909245D01*
X164277685Y-117906801D01*
X164085718Y-117891693D01*
X164085709Y-117891693D01*
X164083261Y-117891500D01*
X163927729Y-117891500D01*
X163925593Y-117891646D01*
X163925582Y-117891646D01*
X163717452Y-117905835D01*
X163717446Y-117905836D01*
X163713175Y-117906127D01*
X163708980Y-117906996D01*
X163708978Y-117906996D01*
X163572416Y-117935277D01*
X163431658Y-117964426D01*
X163160657Y-118060393D01*
X163156848Y-118062359D01*
X162924133Y-118182472D01*
X162905188Y-118192250D01*
X162901687Y-118194711D01*
X162901683Y-118194713D01*
X162819818Y-118252249D01*
X162669977Y-118357559D01*
X162654892Y-118371577D01*
X162514051Y-118502455D01*
X162459378Y-118553260D01*
X162277287Y-118775732D01*
X162127073Y-119020858D01*
X162125347Y-119024791D01*
X162125346Y-119024792D01*
X162034190Y-119232452D01*
X162011517Y-119284102D01*
X161932756Y-119560594D01*
X161892249Y-119845216D01*
X161892227Y-119849505D01*
X161892226Y-119849512D01*
X161891030Y-120077872D01*
X161890743Y-120132703D01*
X157010972Y-120132703D01*
X157066337Y-119980175D01*
X157089965Y-119849512D01*
X157106623Y-119757392D01*
X157106624Y-119757385D01*
X157107361Y-119753308D01*
X157108500Y-119729156D01*
X157108500Y-119317110D01*
X157093920Y-119145280D01*
X157092582Y-119140125D01*
X157092581Y-119140119D01*
X157037343Y-118927297D01*
X157037342Y-118927293D01*
X157036001Y-118922128D01*
X156941312Y-118711925D01*
X156812559Y-118520681D01*
X156653424Y-118353865D01*
X156649146Y-118350682D01*
X156649143Y-118350679D01*
X156629289Y-118335908D01*
X156586575Y-118279198D01*
X156578500Y-118234818D01*
X156578500Y-115898134D01*
X160141500Y-115898134D01*
X160148255Y-115960316D01*
X160199385Y-116096705D01*
X160286739Y-116213261D01*
X160403295Y-116300615D01*
X160539684Y-116351745D01*
X160601866Y-116358500D01*
X162898134Y-116358500D01*
X162960316Y-116351745D01*
X163096705Y-116300615D01*
X163213261Y-116213261D01*
X163300615Y-116096705D01*
X163316103Y-116055390D01*
X165309440Y-116055390D01*
X165315167Y-116063040D01*
X165513506Y-116184583D01*
X165522300Y-116189064D01*
X165746991Y-116282134D01*
X165756376Y-116285183D01*
X165992863Y-116341959D01*
X166002610Y-116343502D01*
X166245070Y-116362584D01*
X166254930Y-116362584D01*
X166497390Y-116343502D01*
X166507137Y-116341959D01*
X166743624Y-116285183D01*
X166753009Y-116282134D01*
X166977700Y-116189064D01*
X166986494Y-116184583D01*
X167181167Y-116065287D01*
X167190627Y-116054830D01*
X167186844Y-116046054D01*
X166262812Y-115122022D01*
X166248868Y-115114408D01*
X166247035Y-115114539D01*
X166240420Y-115118790D01*
X165316200Y-116043010D01*
X165309440Y-116055390D01*
X163316103Y-116055390D01*
X163351745Y-115960316D01*
X163358500Y-115898134D01*
X163358500Y-114754930D01*
X164637416Y-114754930D01*
X164656498Y-114997390D01*
X164658041Y-115007137D01*
X164714817Y-115243624D01*
X164717866Y-115253009D01*
X164810936Y-115477700D01*
X164815417Y-115486494D01*
X164934713Y-115681167D01*
X164945170Y-115690627D01*
X164953946Y-115686844D01*
X165877978Y-114762812D01*
X165884356Y-114751132D01*
X166614408Y-114751132D01*
X166614539Y-114752965D01*
X166618790Y-114759580D01*
X167543010Y-115683800D01*
X167555390Y-115690560D01*
X167563040Y-115684833D01*
X167684583Y-115486494D01*
X167689064Y-115477700D01*
X167782134Y-115253009D01*
X167785183Y-115243624D01*
X167841959Y-115007137D01*
X167843502Y-114997390D01*
X167862584Y-114754930D01*
X167862584Y-114745070D01*
X167843502Y-114502610D01*
X167841959Y-114492863D01*
X167785183Y-114256376D01*
X167782134Y-114246991D01*
X167689064Y-114022300D01*
X167684583Y-114013506D01*
X167565287Y-113818833D01*
X167554830Y-113809373D01*
X167546054Y-113813156D01*
X166622022Y-114737188D01*
X166614408Y-114751132D01*
X165884356Y-114751132D01*
X165885592Y-114748868D01*
X165885461Y-114747035D01*
X165881210Y-114740420D01*
X164956990Y-113816200D01*
X164944610Y-113809440D01*
X164936960Y-113815167D01*
X164815417Y-114013506D01*
X164810936Y-114022300D01*
X164717866Y-114246991D01*
X164714817Y-114256376D01*
X164658041Y-114492863D01*
X164656498Y-114502610D01*
X164637416Y-114745070D01*
X164637416Y-114754930D01*
X163358500Y-114754930D01*
X163358500Y-113601866D01*
X163351745Y-113539684D01*
X163316313Y-113445170D01*
X165309373Y-113445170D01*
X165313156Y-113453946D01*
X166237188Y-114377978D01*
X166251132Y-114385592D01*
X166252965Y-114385461D01*
X166259580Y-114381210D01*
X167183800Y-113456990D01*
X167190560Y-113444610D01*
X167184833Y-113436960D01*
X166986494Y-113315417D01*
X166977700Y-113310936D01*
X166753009Y-113217866D01*
X166743624Y-113214817D01*
X166507137Y-113158041D01*
X166497390Y-113156498D01*
X166254930Y-113137416D01*
X166245070Y-113137416D01*
X166002610Y-113156498D01*
X165992863Y-113158041D01*
X165756376Y-113214817D01*
X165746991Y-113217866D01*
X165522300Y-113310936D01*
X165513506Y-113315417D01*
X165318833Y-113434713D01*
X165309373Y-113445170D01*
X163316313Y-113445170D01*
X163300615Y-113403295D01*
X163213261Y-113286739D01*
X163096705Y-113199385D01*
X162960316Y-113148255D01*
X162898134Y-113141500D01*
X160601866Y-113141500D01*
X160539684Y-113148255D01*
X160403295Y-113199385D01*
X160286739Y-113286739D01*
X160199385Y-113403295D01*
X160148255Y-113539684D01*
X160141500Y-113601866D01*
X160141500Y-115898134D01*
X156578500Y-115898134D01*
X156578500Y-112692632D01*
X156598502Y-112624511D01*
X156631331Y-112590054D01*
X156699860Y-112541173D01*
X156858096Y-112383489D01*
X156988453Y-112202077D01*
X157003102Y-112172438D01*
X157085136Y-112006453D01*
X157085137Y-112006451D01*
X157087430Y-112001811D01*
X157152370Y-111788069D01*
X157181529Y-111566590D01*
X157183156Y-111500000D01*
X157165870Y-111289747D01*
X157180223Y-111220219D01*
X157202351Y-111190330D01*
X157238911Y-111153770D01*
X157253323Y-111141384D01*
X157264918Y-111132851D01*
X157264923Y-111132846D01*
X157270818Y-111128508D01*
X157275557Y-111122930D01*
X157275560Y-111122927D01*
X157305035Y-111088232D01*
X157311965Y-111080716D01*
X157317661Y-111075020D01*
X157319924Y-111072159D01*
X157319929Y-111072154D01*
X157335285Y-111052744D01*
X157338074Y-111049342D01*
X157380596Y-110999291D01*
X157380597Y-110999290D01*
X157385333Y-110993715D01*
X157388661Y-110987198D01*
X157392027Y-110982150D01*
X157395190Y-110977028D01*
X157399735Y-110971284D01*
X157430664Y-110905105D01*
X157432563Y-110901221D01*
X157465769Y-110836192D01*
X157467510Y-110829077D01*
X157469613Y-110823422D01*
X157471522Y-110817683D01*
X157474622Y-110811050D01*
X157489491Y-110739565D01*
X157490461Y-110735282D01*
X157507808Y-110664390D01*
X157508500Y-110653236D01*
X157508535Y-110653238D01*
X157508775Y-110649266D01*
X157509152Y-110645045D01*
X157510641Y-110637885D01*
X157508546Y-110560458D01*
X157508500Y-110557050D01*
X157508500Y-108250000D01*
X160136526Y-108250000D01*
X160156391Y-108502403D01*
X160157545Y-108507210D01*
X160157546Y-108507216D01*
X160181881Y-108608577D01*
X160215495Y-108748591D01*
X160217388Y-108753162D01*
X160217389Y-108753164D01*
X160305474Y-108965819D01*
X160312384Y-108982502D01*
X160444672Y-109198376D01*
X160609102Y-109390898D01*
X160801624Y-109555328D01*
X161017498Y-109687616D01*
X161022068Y-109689509D01*
X161022072Y-109689511D01*
X161246836Y-109782611D01*
X161251409Y-109784505D01*
X161336032Y-109804821D01*
X161492784Y-109842454D01*
X161492790Y-109842455D01*
X161497597Y-109843609D01*
X161750000Y-109863474D01*
X162002403Y-109843609D01*
X162007210Y-109842455D01*
X162007216Y-109842454D01*
X162163968Y-109804821D01*
X162248591Y-109784505D01*
X162253164Y-109782611D01*
X162477928Y-109689511D01*
X162477932Y-109689509D01*
X162482502Y-109687616D01*
X162698275Y-109555390D01*
X165309440Y-109555390D01*
X165315167Y-109563040D01*
X165513506Y-109684583D01*
X165522300Y-109689064D01*
X165746991Y-109782134D01*
X165756376Y-109785183D01*
X165992863Y-109841959D01*
X166002610Y-109843502D01*
X166245070Y-109862584D01*
X166254930Y-109862584D01*
X166497390Y-109843502D01*
X166507137Y-109841959D01*
X166743624Y-109785183D01*
X166753009Y-109782134D01*
X166977700Y-109689064D01*
X166986494Y-109684583D01*
X167181167Y-109565287D01*
X167190627Y-109554830D01*
X167186844Y-109546054D01*
X166262812Y-108622022D01*
X166248868Y-108614408D01*
X166247035Y-108614539D01*
X166240420Y-108618790D01*
X165316200Y-109543010D01*
X165309440Y-109555390D01*
X162698275Y-109555390D01*
X162698376Y-109555328D01*
X162890898Y-109390898D01*
X163055328Y-109198376D01*
X163187616Y-108982502D01*
X163194527Y-108965819D01*
X163282611Y-108753164D01*
X163282612Y-108753162D01*
X163284505Y-108748591D01*
X163318119Y-108608577D01*
X163342454Y-108507216D01*
X163342455Y-108507210D01*
X163343609Y-108502403D01*
X163363086Y-108254930D01*
X164637416Y-108254930D01*
X164656498Y-108497390D01*
X164658041Y-108507137D01*
X164714817Y-108743624D01*
X164717866Y-108753009D01*
X164810936Y-108977700D01*
X164815417Y-108986494D01*
X164934713Y-109181167D01*
X164945170Y-109190627D01*
X164953946Y-109186844D01*
X165877978Y-108262812D01*
X165884356Y-108251132D01*
X166614408Y-108251132D01*
X166614539Y-108252965D01*
X166618790Y-108259580D01*
X167543010Y-109183800D01*
X167555390Y-109190560D01*
X167563040Y-109184833D01*
X167684583Y-108986494D01*
X167689064Y-108977700D01*
X167782134Y-108753009D01*
X167785183Y-108743624D01*
X167841959Y-108507137D01*
X167843502Y-108497390D01*
X167862584Y-108254930D01*
X167862584Y-108245070D01*
X167843502Y-108002610D01*
X167841959Y-107992863D01*
X167785183Y-107756376D01*
X167782134Y-107746991D01*
X167689064Y-107522300D01*
X167684583Y-107513506D01*
X167565287Y-107318833D01*
X167554830Y-107309373D01*
X167546054Y-107313156D01*
X166622022Y-108237188D01*
X166614408Y-108251132D01*
X165884356Y-108251132D01*
X165885592Y-108248868D01*
X165885461Y-108247035D01*
X165881210Y-108240420D01*
X164956990Y-107316200D01*
X164944610Y-107309440D01*
X164936960Y-107315167D01*
X164815417Y-107513506D01*
X164810936Y-107522300D01*
X164717866Y-107746991D01*
X164714817Y-107756376D01*
X164658041Y-107992863D01*
X164656498Y-108002610D01*
X164637416Y-108245070D01*
X164637416Y-108254930D01*
X163363086Y-108254930D01*
X163363474Y-108250000D01*
X163343609Y-107997597D01*
X163327994Y-107932553D01*
X163285660Y-107756221D01*
X163284505Y-107751409D01*
X163269886Y-107716115D01*
X163189511Y-107522072D01*
X163189509Y-107522068D01*
X163187616Y-107517498D01*
X163055328Y-107301624D01*
X162890898Y-107109102D01*
X162698959Y-106945170D01*
X165309373Y-106945170D01*
X165313156Y-106953946D01*
X166237188Y-107877978D01*
X166251132Y-107885592D01*
X166252965Y-107885461D01*
X166259580Y-107881210D01*
X167183800Y-106956990D01*
X167190560Y-106944610D01*
X167184833Y-106936960D01*
X166986494Y-106815417D01*
X166977700Y-106810936D01*
X166753009Y-106717866D01*
X166743624Y-106714817D01*
X166507137Y-106658041D01*
X166497390Y-106656498D01*
X166254930Y-106637416D01*
X166245070Y-106637416D01*
X166002610Y-106656498D01*
X165992863Y-106658041D01*
X165756376Y-106714817D01*
X165746991Y-106717866D01*
X165522300Y-106810936D01*
X165513506Y-106815417D01*
X165318833Y-106934713D01*
X165309373Y-106945170D01*
X162698959Y-106945170D01*
X162698376Y-106944672D01*
X162482502Y-106812384D01*
X162477932Y-106810491D01*
X162477928Y-106810489D01*
X162253164Y-106717389D01*
X162253162Y-106717388D01*
X162248591Y-106715495D01*
X162163968Y-106695179D01*
X162007216Y-106657546D01*
X162007210Y-106657545D01*
X162002403Y-106656391D01*
X161750000Y-106636526D01*
X161497597Y-106656391D01*
X161492790Y-106657545D01*
X161492784Y-106657546D01*
X161336032Y-106695179D01*
X161251409Y-106715495D01*
X161246838Y-106717388D01*
X161246836Y-106717389D01*
X161022072Y-106810489D01*
X161022068Y-106810491D01*
X161017498Y-106812384D01*
X160801624Y-106944672D01*
X160609102Y-107109102D01*
X160444672Y-107301624D01*
X160312384Y-107517498D01*
X160310491Y-107522068D01*
X160310489Y-107522072D01*
X160230114Y-107716115D01*
X160215495Y-107751409D01*
X160214340Y-107756221D01*
X160172007Y-107932553D01*
X160156391Y-107997597D01*
X160136526Y-108250000D01*
X157508500Y-108250000D01*
X157508500Y-105019392D01*
X157528502Y-104951271D01*
X157582158Y-104904778D01*
X157652432Y-104894674D01*
X157717012Y-104924168D01*
X157735326Y-104943827D01*
X157781715Y-105005724D01*
X157794276Y-105018285D01*
X157896351Y-105094786D01*
X157911946Y-105103324D01*
X158032394Y-105148478D01*
X158047649Y-105152105D01*
X158098514Y-105157631D01*
X158105328Y-105158000D01*
X158727885Y-105158000D01*
X158743124Y-105153525D01*
X158744329Y-105152135D01*
X158746000Y-105144452D01*
X158746000Y-105139884D01*
X159254000Y-105139884D01*
X159258475Y-105155123D01*
X159259865Y-105156328D01*
X159267548Y-105157999D01*
X159894669Y-105157999D01*
X159901490Y-105157629D01*
X159952352Y-105152105D01*
X159967604Y-105148479D01*
X160088054Y-105103324D01*
X160103649Y-105094786D01*
X160205724Y-105018285D01*
X160218285Y-105005724D01*
X160294786Y-104903649D01*
X160303324Y-104888054D01*
X160348478Y-104767606D01*
X160352105Y-104752351D01*
X160357631Y-104701486D01*
X160358000Y-104694672D01*
X160358000Y-104397095D01*
X161992001Y-104397095D01*
X161992338Y-104403614D01*
X162002257Y-104499206D01*
X162005149Y-104512600D01*
X162056588Y-104666784D01*
X162062761Y-104679962D01*
X162148063Y-104817807D01*
X162157099Y-104829208D01*
X162271829Y-104943739D01*
X162283240Y-104952751D01*
X162421243Y-105037816D01*
X162434424Y-105043963D01*
X162588710Y-105095138D01*
X162602086Y-105098005D01*
X162696438Y-105107672D01*
X162702854Y-105108000D01*
X163202885Y-105108000D01*
X163218124Y-105103525D01*
X163219329Y-105102135D01*
X163221000Y-105094452D01*
X163221000Y-105089884D01*
X163729000Y-105089884D01*
X163733475Y-105105123D01*
X163734865Y-105106328D01*
X163742548Y-105107999D01*
X164247095Y-105107999D01*
X164253614Y-105107662D01*
X164349206Y-105097743D01*
X164362600Y-105094851D01*
X164516784Y-105043412D01*
X164529962Y-105037239D01*
X164667807Y-104951937D01*
X164679208Y-104942901D01*
X164793739Y-104828171D01*
X164802751Y-104816760D01*
X164887816Y-104678757D01*
X164893963Y-104665576D01*
X164945138Y-104511290D01*
X164948005Y-104497914D01*
X164957672Y-104403562D01*
X164958000Y-104397146D01*
X164958000Y-104022115D01*
X164953525Y-104006876D01*
X164952135Y-104005671D01*
X164944452Y-104004000D01*
X163747115Y-104004000D01*
X163731876Y-104008475D01*
X163730671Y-104009865D01*
X163729000Y-104017548D01*
X163729000Y-105089884D01*
X163221000Y-105089884D01*
X163221000Y-104022115D01*
X163216525Y-104006876D01*
X163215135Y-104005671D01*
X163207452Y-104004000D01*
X162010116Y-104004000D01*
X161994877Y-104008475D01*
X161993672Y-104009865D01*
X161992001Y-104017548D01*
X161992001Y-104397095D01*
X160358000Y-104397095D01*
X160358000Y-104072115D01*
X160353525Y-104056876D01*
X160352135Y-104055671D01*
X160344452Y-104054000D01*
X159272115Y-104054000D01*
X159256876Y-104058475D01*
X159255671Y-104059865D01*
X159254000Y-104067548D01*
X159254000Y-105139884D01*
X158746000Y-105139884D01*
X158746000Y-103672000D01*
X158766002Y-103603879D01*
X158819658Y-103557386D01*
X158872000Y-103546000D01*
X160339884Y-103546000D01*
X160355123Y-103541525D01*
X160356328Y-103540135D01*
X160357999Y-103532452D01*
X160357999Y-102905331D01*
X160357629Y-102898510D01*
X160352105Y-102847648D01*
X160348479Y-102832396D01*
X160303324Y-102711946D01*
X160294786Y-102696351D01*
X160218285Y-102594276D01*
X160205724Y-102581715D01*
X160103649Y-102505214D01*
X160088054Y-102496676D01*
X159977813Y-102455348D01*
X159921049Y-102412706D01*
X159896349Y-102346145D01*
X159911557Y-102276796D01*
X159933104Y-102248115D01*
X160034430Y-102147144D01*
X160034440Y-102147132D01*
X160038096Y-102143489D01*
X160097388Y-102060974D01*
X160153384Y-102017326D01*
X160199712Y-102008500D01*
X162152192Y-102008500D01*
X162220313Y-102028502D01*
X162247471Y-102054103D01*
X162248377Y-102053317D01*
X162338438Y-102157103D01*
X162399477Y-102227445D01*
X162403608Y-102230832D01*
X162435529Y-102257006D01*
X162475524Y-102315666D01*
X162477455Y-102386636D01*
X162440710Y-102447384D01*
X162421941Y-102461584D01*
X162282193Y-102548063D01*
X162270792Y-102557099D01*
X162156261Y-102671829D01*
X162147249Y-102683240D01*
X162062184Y-102821243D01*
X162056037Y-102834424D01*
X162004862Y-102988710D01*
X162001995Y-103002086D01*
X161992328Y-103096438D01*
X161992000Y-103102855D01*
X161992000Y-103477885D01*
X161996475Y-103493124D01*
X161997865Y-103494329D01*
X162005548Y-103496000D01*
X164939884Y-103496000D01*
X164955123Y-103491525D01*
X164956328Y-103490135D01*
X164957999Y-103482452D01*
X164957999Y-103102905D01*
X164957662Y-103096386D01*
X164947743Y-103000794D01*
X164944851Y-102987400D01*
X164893412Y-102833216D01*
X164887239Y-102820038D01*
X164801937Y-102682193D01*
X164792901Y-102670792D01*
X164678171Y-102556261D01*
X164666757Y-102547247D01*
X164527287Y-102461277D01*
X164479793Y-102408505D01*
X164468369Y-102338434D01*
X164496643Y-102273310D01*
X164506430Y-102262847D01*
X164521874Y-102248115D01*
X164621135Y-102153424D01*
X164625808Y-102147144D01*
X164691175Y-102059287D01*
X164747885Y-102016574D01*
X164792264Y-102008500D01*
X165432930Y-102008500D01*
X165451880Y-102009933D01*
X165466115Y-102012099D01*
X165466119Y-102012099D01*
X165473349Y-102013199D01*
X165480641Y-102012606D01*
X165480644Y-102012606D01*
X165526018Y-102008915D01*
X165536233Y-102008500D01*
X165544293Y-102008500D01*
X165557583Y-102006951D01*
X165572507Y-102005211D01*
X165576882Y-102004778D01*
X165642339Y-101999454D01*
X165642342Y-101999453D01*
X165649637Y-101998860D01*
X165656601Y-101996604D01*
X165662560Y-101995413D01*
X165668415Y-101994029D01*
X165675681Y-101993182D01*
X165744327Y-101968265D01*
X165748455Y-101966848D01*
X165810936Y-101946607D01*
X165810938Y-101946606D01*
X165817899Y-101944351D01*
X165824154Y-101940555D01*
X165829628Y-101938049D01*
X165835058Y-101935330D01*
X165841937Y-101932833D01*
X165902976Y-101892814D01*
X165906680Y-101890477D01*
X165969107Y-101852595D01*
X165977484Y-101845197D01*
X165977508Y-101845224D01*
X165980500Y-101842571D01*
X165983733Y-101839868D01*
X165989852Y-101835856D01*
X166043128Y-101779617D01*
X166045506Y-101777175D01*
X166238911Y-101583770D01*
X166253323Y-101571384D01*
X166264918Y-101562851D01*
X166264923Y-101562846D01*
X166270818Y-101558508D01*
X166275557Y-101552930D01*
X166275560Y-101552927D01*
X166305035Y-101518232D01*
X166311965Y-101510716D01*
X166317660Y-101505021D01*
X166335281Y-101482749D01*
X166338072Y-101479345D01*
X166380591Y-101429297D01*
X166380592Y-101429295D01*
X166385333Y-101423715D01*
X166388661Y-101417199D01*
X166392028Y-101412150D01*
X166395195Y-101407021D01*
X166399734Y-101401284D01*
X166430655Y-101335125D01*
X166432561Y-101331225D01*
X166433187Y-101330000D01*
X166465769Y-101266192D01*
X166467508Y-101259084D01*
X166469607Y-101253441D01*
X166471524Y-101247678D01*
X166474622Y-101241050D01*
X166489487Y-101169583D01*
X166490457Y-101165299D01*
X166506473Y-101099845D01*
X166507808Y-101094390D01*
X166508500Y-101083236D01*
X166508536Y-101083238D01*
X166508775Y-101079245D01*
X166509149Y-101075053D01*
X166510640Y-101067885D01*
X166508546Y-100990479D01*
X166508500Y-100987072D01*
X166508500Y-95317070D01*
X166509933Y-95298120D01*
X166512099Y-95283885D01*
X166512099Y-95283881D01*
X166513199Y-95276651D01*
X166508915Y-95223982D01*
X166508500Y-95213767D01*
X166508500Y-95205707D01*
X166505209Y-95177480D01*
X166504778Y-95173121D01*
X166504361Y-95167993D01*
X166498860Y-95100364D01*
X166496605Y-95093403D01*
X166495418Y-95087463D01*
X166494029Y-95081588D01*
X166493182Y-95074319D01*
X166468264Y-95005670D01*
X166466847Y-95001542D01*
X166446607Y-94939064D01*
X166446606Y-94939062D01*
X166444351Y-94932101D01*
X166440555Y-94925846D01*
X166438049Y-94920372D01*
X166435330Y-94914942D01*
X166432833Y-94908063D01*
X166425560Y-94896970D01*
X166392814Y-94847024D01*
X166390467Y-94843305D01*
X166352595Y-94780893D01*
X166345197Y-94772516D01*
X166345224Y-94772492D01*
X166342571Y-94769500D01*
X166339868Y-94766267D01*
X166335856Y-94760148D01*
X166279617Y-94706872D01*
X166277175Y-94704494D01*
X164795405Y-93222724D01*
X164761379Y-93160412D01*
X164758500Y-93133629D01*
X164758500Y-93055390D01*
X165309440Y-93055390D01*
X165315167Y-93063040D01*
X165513506Y-93184583D01*
X165522300Y-93189064D01*
X165746991Y-93282134D01*
X165756376Y-93285183D01*
X165992863Y-93341959D01*
X166002610Y-93343502D01*
X166245070Y-93362584D01*
X166254930Y-93362584D01*
X166497390Y-93343502D01*
X166507137Y-93341959D01*
X166743624Y-93285183D01*
X166753009Y-93282134D01*
X166977700Y-93189064D01*
X166986494Y-93184583D01*
X167181167Y-93065287D01*
X167190627Y-93054830D01*
X167186844Y-93046054D01*
X166262812Y-92122022D01*
X166248868Y-92114408D01*
X166247035Y-92114539D01*
X166240420Y-92118790D01*
X165316200Y-93043010D01*
X165309440Y-93055390D01*
X164758500Y-93055390D01*
X164758500Y-92805651D01*
X164778502Y-92737530D01*
X164832158Y-92691037D01*
X164902432Y-92680933D01*
X164914232Y-92686476D01*
X164943535Y-92691332D01*
X164953946Y-92686844D01*
X165877978Y-91762812D01*
X165884356Y-91751132D01*
X166614408Y-91751132D01*
X166614539Y-91752965D01*
X166618790Y-91759580D01*
X167543010Y-92683800D01*
X167555390Y-92690560D01*
X167563040Y-92684833D01*
X167684583Y-92486494D01*
X167689064Y-92477700D01*
X167782134Y-92253009D01*
X167785183Y-92243624D01*
X167841959Y-92007137D01*
X167843502Y-91997390D01*
X167862584Y-91754930D01*
X167862584Y-91745070D01*
X167843502Y-91502610D01*
X167841959Y-91492863D01*
X167785183Y-91256376D01*
X167782134Y-91246991D01*
X167689064Y-91022300D01*
X167684583Y-91013506D01*
X167565287Y-90818833D01*
X167554830Y-90809373D01*
X167546054Y-90813156D01*
X166622022Y-91737188D01*
X166614408Y-91751132D01*
X165884356Y-91751132D01*
X165885592Y-91748868D01*
X165885461Y-91747035D01*
X165881210Y-91740420D01*
X164956990Y-90816200D01*
X164943046Y-90808586D01*
X164928628Y-90809617D01*
X164893486Y-90822723D01*
X164824113Y-90807630D01*
X164773911Y-90757427D01*
X164758500Y-90697044D01*
X164758500Y-90445170D01*
X165309373Y-90445170D01*
X165313156Y-90453946D01*
X166237188Y-91377978D01*
X166251132Y-91385592D01*
X166252965Y-91385461D01*
X166259580Y-91381210D01*
X167183800Y-90456990D01*
X167190560Y-90444610D01*
X167184833Y-90436960D01*
X166986494Y-90315417D01*
X166977700Y-90310936D01*
X166753009Y-90217866D01*
X166743624Y-90214817D01*
X166507137Y-90158041D01*
X166497390Y-90156498D01*
X166254930Y-90137416D01*
X166245070Y-90137416D01*
X166002610Y-90156498D01*
X165992863Y-90158041D01*
X165756376Y-90214817D01*
X165746991Y-90217866D01*
X165522300Y-90310936D01*
X165513506Y-90315417D01*
X165318833Y-90434713D01*
X165309373Y-90445170D01*
X164758500Y-90445170D01*
X164758500Y-89817063D01*
X164759933Y-89798114D01*
X164762097Y-89783886D01*
X164763198Y-89776651D01*
X164760849Y-89747763D01*
X164758915Y-89723991D01*
X164758500Y-89713777D01*
X164758500Y-89705707D01*
X164758078Y-89702087D01*
X164758077Y-89702069D01*
X164755208Y-89677461D01*
X164754775Y-89673086D01*
X164754216Y-89666206D01*
X164748860Y-89600363D01*
X164746604Y-89593399D01*
X164745413Y-89587440D01*
X164744029Y-89581585D01*
X164743182Y-89574319D01*
X164718265Y-89505673D01*
X164716848Y-89501545D01*
X164696607Y-89439064D01*
X164696606Y-89439062D01*
X164694351Y-89432101D01*
X164690555Y-89425846D01*
X164688049Y-89420372D01*
X164685330Y-89414942D01*
X164682833Y-89408063D01*
X164642809Y-89347016D01*
X164640472Y-89343312D01*
X164605509Y-89285693D01*
X164605505Y-89285688D01*
X164602595Y-89280892D01*
X164595197Y-89272516D01*
X164595223Y-89272493D01*
X164592574Y-89269503D01*
X164589866Y-89266264D01*
X164585856Y-89260148D01*
X164580549Y-89255121D01*
X164580546Y-89255117D01*
X164529617Y-89206872D01*
X164527175Y-89204494D01*
X163083770Y-87761089D01*
X163071384Y-87746677D01*
X163062851Y-87735082D01*
X163062846Y-87735077D01*
X163058508Y-87729182D01*
X163052930Y-87724443D01*
X163052927Y-87724440D01*
X163018232Y-87694965D01*
X163010716Y-87688035D01*
X163005021Y-87682340D01*
X162998880Y-87677482D01*
X162982749Y-87664719D01*
X162979345Y-87661928D01*
X162929297Y-87619409D01*
X162929295Y-87619408D01*
X162923715Y-87614667D01*
X162917199Y-87611339D01*
X162912150Y-87607972D01*
X162907021Y-87604805D01*
X162901284Y-87600266D01*
X162835125Y-87569345D01*
X162831225Y-87567439D01*
X162820505Y-87561965D01*
X162766192Y-87534231D01*
X162759084Y-87532492D01*
X162753441Y-87530393D01*
X162747678Y-87528476D01*
X162741050Y-87525378D01*
X162669583Y-87510513D01*
X162665299Y-87509543D01*
X162594390Y-87492192D01*
X162588788Y-87491844D01*
X162588785Y-87491844D01*
X162583236Y-87491500D01*
X162583238Y-87491464D01*
X162579245Y-87491225D01*
X162575053Y-87490851D01*
X162567885Y-87489360D01*
X162501675Y-87491151D01*
X162490479Y-87491454D01*
X162487072Y-87491500D01*
X160116371Y-87491500D01*
X160048250Y-87471498D01*
X160027276Y-87454595D01*
X159083770Y-86511089D01*
X159071384Y-86496677D01*
X159062851Y-86485082D01*
X159062846Y-86485077D01*
X159058508Y-86479182D01*
X159052930Y-86474443D01*
X159052927Y-86474440D01*
X159018232Y-86444965D01*
X159010716Y-86438035D01*
X159005021Y-86432340D01*
X158998880Y-86427482D01*
X158982749Y-86414719D01*
X158979345Y-86411928D01*
X158929297Y-86369409D01*
X158929295Y-86369408D01*
X158923715Y-86364667D01*
X158917199Y-86361339D01*
X158912150Y-86357972D01*
X158907021Y-86354805D01*
X158901284Y-86350266D01*
X158835125Y-86319345D01*
X158831225Y-86317439D01*
X158766192Y-86284231D01*
X158759084Y-86282492D01*
X158753441Y-86280393D01*
X158747678Y-86278476D01*
X158741050Y-86275378D01*
X158669583Y-86260513D01*
X158665299Y-86259543D01*
X158594390Y-86242192D01*
X158588788Y-86241844D01*
X158588785Y-86241844D01*
X158583236Y-86241500D01*
X158583238Y-86241464D01*
X158579245Y-86241225D01*
X158575053Y-86240851D01*
X158567885Y-86239360D01*
X158501675Y-86241151D01*
X158490479Y-86241454D01*
X158487072Y-86241500D01*
X156116371Y-86241500D01*
X156048250Y-86221498D01*
X156027276Y-86204595D01*
X155072681Y-85250000D01*
X160136526Y-85250000D01*
X160156391Y-85502403D01*
X160215495Y-85748591D01*
X160312384Y-85982502D01*
X160444672Y-86198376D01*
X160609102Y-86390898D01*
X160801624Y-86555328D01*
X161017498Y-86687616D01*
X161022068Y-86689509D01*
X161022072Y-86689511D01*
X161246836Y-86782611D01*
X161251409Y-86784505D01*
X161336032Y-86804821D01*
X161492784Y-86842454D01*
X161492790Y-86842455D01*
X161497597Y-86843609D01*
X161750000Y-86863474D01*
X162002403Y-86843609D01*
X162007210Y-86842455D01*
X162007216Y-86842454D01*
X162163968Y-86804821D01*
X162248591Y-86784505D01*
X162253164Y-86782611D01*
X162477928Y-86689511D01*
X162477932Y-86689509D01*
X162482502Y-86687616D01*
X162698275Y-86555390D01*
X165309440Y-86555390D01*
X165315167Y-86563040D01*
X165513506Y-86684583D01*
X165522300Y-86689064D01*
X165746991Y-86782134D01*
X165756376Y-86785183D01*
X165992863Y-86841959D01*
X166002610Y-86843502D01*
X166245070Y-86862584D01*
X166254930Y-86862584D01*
X166497390Y-86843502D01*
X166507137Y-86841959D01*
X166743624Y-86785183D01*
X166753009Y-86782134D01*
X166977700Y-86689064D01*
X166986494Y-86684583D01*
X167181167Y-86565287D01*
X167190627Y-86554830D01*
X167186844Y-86546054D01*
X166262812Y-85622022D01*
X166248868Y-85614408D01*
X166247035Y-85614539D01*
X166240420Y-85618790D01*
X165316200Y-86543010D01*
X165309440Y-86555390D01*
X162698275Y-86555390D01*
X162698376Y-86555328D01*
X162890898Y-86390898D01*
X163055328Y-86198376D01*
X163187616Y-85982502D01*
X163284505Y-85748591D01*
X163343609Y-85502403D01*
X163363086Y-85254930D01*
X164637416Y-85254930D01*
X164656498Y-85497390D01*
X164658041Y-85507137D01*
X164714817Y-85743624D01*
X164717866Y-85753009D01*
X164810936Y-85977700D01*
X164815417Y-85986494D01*
X164934713Y-86181167D01*
X164945170Y-86190627D01*
X164953946Y-86186844D01*
X165877978Y-85262812D01*
X165884356Y-85251132D01*
X166614408Y-85251132D01*
X166614539Y-85252965D01*
X166618790Y-85259580D01*
X167543010Y-86183800D01*
X167555390Y-86190560D01*
X167563040Y-86184833D01*
X167684583Y-85986494D01*
X167689064Y-85977700D01*
X167782134Y-85753009D01*
X167785183Y-85743624D01*
X167841959Y-85507137D01*
X167843502Y-85497390D01*
X167862584Y-85254930D01*
X167862584Y-85245070D01*
X167843502Y-85002610D01*
X167841959Y-84992863D01*
X167785183Y-84756376D01*
X167782134Y-84746991D01*
X167689064Y-84522300D01*
X167684583Y-84513506D01*
X167565287Y-84318833D01*
X167554830Y-84309373D01*
X167546054Y-84313156D01*
X166622022Y-85237188D01*
X166614408Y-85251132D01*
X165884356Y-85251132D01*
X165885592Y-85248868D01*
X165885461Y-85247035D01*
X165881210Y-85240420D01*
X164956990Y-84316200D01*
X164944610Y-84309440D01*
X164936960Y-84315167D01*
X164815417Y-84513506D01*
X164810936Y-84522300D01*
X164717866Y-84746991D01*
X164714817Y-84756376D01*
X164658041Y-84992863D01*
X164656498Y-85002610D01*
X164637416Y-85245070D01*
X164637416Y-85254930D01*
X163363086Y-85254930D01*
X163363474Y-85250000D01*
X163343609Y-84997597D01*
X163284505Y-84751409D01*
X163187616Y-84517498D01*
X163055328Y-84301624D01*
X162890898Y-84109102D01*
X162698959Y-83945170D01*
X165309373Y-83945170D01*
X165313156Y-83953946D01*
X166237188Y-84877978D01*
X166251132Y-84885592D01*
X166252965Y-84885461D01*
X166259580Y-84881210D01*
X167183800Y-83956990D01*
X167190560Y-83944610D01*
X167184833Y-83936960D01*
X166986494Y-83815417D01*
X166977700Y-83810936D01*
X166753009Y-83717866D01*
X166743624Y-83714817D01*
X166507137Y-83658041D01*
X166497390Y-83656498D01*
X166254930Y-83637416D01*
X166245070Y-83637416D01*
X166002610Y-83656498D01*
X165992863Y-83658041D01*
X165756376Y-83714817D01*
X165746991Y-83717866D01*
X165522300Y-83810936D01*
X165513506Y-83815417D01*
X165318833Y-83934713D01*
X165309373Y-83945170D01*
X162698959Y-83945170D01*
X162698376Y-83944672D01*
X162482502Y-83812384D01*
X162477932Y-83810491D01*
X162477928Y-83810489D01*
X162253164Y-83717389D01*
X162253162Y-83717388D01*
X162248591Y-83715495D01*
X162163968Y-83695179D01*
X162007216Y-83657546D01*
X162007210Y-83657545D01*
X162002403Y-83656391D01*
X161750000Y-83636526D01*
X161497597Y-83656391D01*
X161492790Y-83657545D01*
X161492784Y-83657546D01*
X161336032Y-83695179D01*
X161251409Y-83715495D01*
X161246838Y-83717388D01*
X161246836Y-83717389D01*
X161022072Y-83810489D01*
X161022068Y-83810491D01*
X161017498Y-83812384D01*
X160801624Y-83944672D01*
X160609102Y-84109102D01*
X160444672Y-84301624D01*
X160312384Y-84517498D01*
X160215495Y-84751409D01*
X160156391Y-84997597D01*
X160136526Y-85250000D01*
X155072681Y-85250000D01*
X153396276Y-83573595D01*
X153362250Y-83511283D01*
X153367315Y-83440468D01*
X153409862Y-83383632D01*
X153476382Y-83358821D01*
X153485371Y-83358500D01*
X153586134Y-83358500D01*
X153648316Y-83351745D01*
X153784705Y-83300615D01*
X153901261Y-83213261D01*
X153988615Y-83096705D01*
X153990302Y-83092204D01*
X156541151Y-83092204D01*
X156545720Y-83098735D01*
X156758736Y-83229271D01*
X156767530Y-83233752D01*
X156999492Y-83329834D01*
X157008877Y-83332883D01*
X157253017Y-83391496D01*
X157262764Y-83393039D01*
X157513070Y-83412739D01*
X157522930Y-83412739D01*
X157773236Y-83393039D01*
X157782983Y-83391496D01*
X158027123Y-83332883D01*
X158036508Y-83329834D01*
X158268470Y-83233752D01*
X158277264Y-83229271D01*
X158488875Y-83099596D01*
X158494922Y-83090330D01*
X158488915Y-83080125D01*
X157530812Y-82122022D01*
X157516868Y-82114408D01*
X157515035Y-82114539D01*
X157508420Y-82118790D01*
X156548544Y-83078666D01*
X156541151Y-83092204D01*
X153990302Y-83092204D01*
X154039745Y-82960316D01*
X154046500Y-82898134D01*
X154046500Y-81754930D01*
X155855261Y-81754930D01*
X155874961Y-82005236D01*
X155876504Y-82014983D01*
X155935117Y-82259123D01*
X155938166Y-82268508D01*
X156034248Y-82500470D01*
X156038729Y-82509264D01*
X156168404Y-82720875D01*
X156177670Y-82726922D01*
X156187875Y-82720915D01*
X157145978Y-81762812D01*
X157152356Y-81751132D01*
X157882408Y-81751132D01*
X157882539Y-81752965D01*
X157886790Y-81759580D01*
X158846666Y-82719456D01*
X158860204Y-82726849D01*
X158866735Y-82722280D01*
X158997271Y-82509264D01*
X159001752Y-82500470D01*
X159097834Y-82268508D01*
X159100883Y-82259123D01*
X159159496Y-82014983D01*
X159161039Y-82005236D01*
X159180739Y-81754930D01*
X159180739Y-81745070D01*
X159161039Y-81494764D01*
X159159496Y-81485017D01*
X159100883Y-81240877D01*
X159097834Y-81231492D01*
X159001752Y-80999530D01*
X158997271Y-80990736D01*
X158867596Y-80779125D01*
X158858330Y-80773078D01*
X158848125Y-80779085D01*
X157890022Y-81737188D01*
X157882408Y-81751132D01*
X157152356Y-81751132D01*
X157153592Y-81748868D01*
X157153461Y-81747035D01*
X157149210Y-81740420D01*
X156189334Y-80780544D01*
X156175796Y-80773151D01*
X156169265Y-80777720D01*
X156038729Y-80990736D01*
X156034248Y-80999530D01*
X155938166Y-81231492D01*
X155935117Y-81240877D01*
X155876504Y-81485017D01*
X155874961Y-81494764D01*
X155855261Y-81745070D01*
X155855261Y-81754930D01*
X154046500Y-81754930D01*
X154046500Y-80601866D01*
X154039745Y-80539684D01*
X153991005Y-80409670D01*
X156541078Y-80409670D01*
X156547085Y-80419875D01*
X157505188Y-81377978D01*
X157519132Y-81385592D01*
X157520965Y-81385461D01*
X157527580Y-81381210D01*
X158487456Y-80421334D01*
X158494849Y-80407796D01*
X158490280Y-80401265D01*
X158277264Y-80270729D01*
X158268470Y-80266248D01*
X158036508Y-80170166D01*
X158027123Y-80167117D01*
X157883779Y-80132703D01*
X161890743Y-80132703D01*
X161891302Y-80136947D01*
X161891302Y-80136951D01*
X161895675Y-80170166D01*
X161928268Y-80417734D01*
X162004129Y-80695036D01*
X162005813Y-80698984D01*
X162040602Y-80780544D01*
X162116923Y-80959476D01*
X162264561Y-81206161D01*
X162444313Y-81430528D01*
X162652851Y-81628423D01*
X162886317Y-81796186D01*
X162890112Y-81798195D01*
X162890113Y-81798196D01*
X162911869Y-81809715D01*
X163140392Y-81930712D01*
X163410373Y-82029511D01*
X163691264Y-82090755D01*
X163719841Y-82093004D01*
X163914282Y-82108307D01*
X163914291Y-82108307D01*
X163916739Y-82108500D01*
X164072271Y-82108500D01*
X164074407Y-82108354D01*
X164074418Y-82108354D01*
X164282548Y-82094165D01*
X164282554Y-82094164D01*
X164286825Y-82093873D01*
X164291020Y-82093004D01*
X164291022Y-82093004D01*
X164427583Y-82064724D01*
X164568342Y-82035574D01*
X164839343Y-81939607D01*
X165094812Y-81807750D01*
X165098313Y-81805289D01*
X165098317Y-81805287D01*
X165212417Y-81725096D01*
X165330023Y-81642441D01*
X165540622Y-81446740D01*
X165722713Y-81224268D01*
X165872927Y-80979142D01*
X165988483Y-80715898D01*
X166067244Y-80439406D01*
X166100637Y-80204771D01*
X166107146Y-80159036D01*
X166107146Y-80159034D01*
X166107751Y-80154784D01*
X166107786Y-80148255D01*
X166109235Y-79871583D01*
X166109235Y-79871576D01*
X166109257Y-79867297D01*
X166071732Y-79582266D01*
X165995871Y-79304964D01*
X165883077Y-79040524D01*
X165735439Y-78793839D01*
X165555687Y-78569472D01*
X165347149Y-78371577D01*
X165113683Y-78203814D01*
X165091843Y-78192250D01*
X165068654Y-78179972D01*
X164859608Y-78069288D01*
X164589627Y-77970489D01*
X164308736Y-77909245D01*
X164277685Y-77906801D01*
X164085718Y-77891693D01*
X164085709Y-77891693D01*
X164083261Y-77891500D01*
X163927729Y-77891500D01*
X163925593Y-77891646D01*
X163925582Y-77891646D01*
X163717452Y-77905835D01*
X163717446Y-77905836D01*
X163713175Y-77906127D01*
X163708980Y-77906996D01*
X163708978Y-77906996D01*
X163572417Y-77935276D01*
X163431658Y-77964426D01*
X163160657Y-78060393D01*
X162905188Y-78192250D01*
X162901687Y-78194711D01*
X162901683Y-78194713D01*
X162891594Y-78201804D01*
X162669977Y-78357559D01*
X162459378Y-78553260D01*
X162277287Y-78775732D01*
X162127073Y-79020858D01*
X162011517Y-79284102D01*
X161932756Y-79560594D01*
X161892249Y-79845216D01*
X161892227Y-79849505D01*
X161892226Y-79849512D01*
X161890765Y-80128417D01*
X161890743Y-80132703D01*
X157883779Y-80132703D01*
X157782983Y-80108504D01*
X157773236Y-80106961D01*
X157522930Y-80087261D01*
X157513070Y-80087261D01*
X157262764Y-80106961D01*
X157253017Y-80108504D01*
X157008877Y-80167117D01*
X156999492Y-80170166D01*
X156767530Y-80266248D01*
X156758736Y-80270729D01*
X156547125Y-80400404D01*
X156541078Y-80409670D01*
X153991005Y-80409670D01*
X153988615Y-80403295D01*
X153901261Y-80286739D01*
X153784705Y-80199385D01*
X153648316Y-80148255D01*
X153586134Y-80141500D01*
X151289866Y-80141500D01*
X151227684Y-80148255D01*
X151091295Y-80199385D01*
X150974739Y-80286739D01*
X150887385Y-80403295D01*
X150836255Y-80539684D01*
X150829500Y-80601866D01*
X150829500Y-82898134D01*
X150836255Y-82960316D01*
X150887385Y-83096705D01*
X150974739Y-83213261D01*
X151091295Y-83300615D01*
X151227684Y-83351745D01*
X151289866Y-83358500D01*
X151553500Y-83358500D01*
X151621621Y-83378502D01*
X151668114Y-83432158D01*
X151679500Y-83484500D01*
X151679500Y-83620930D01*
X151678067Y-83639880D01*
X151674801Y-83661349D01*
X151675394Y-83668641D01*
X151675394Y-83668644D01*
X151679085Y-83714018D01*
X151679500Y-83724233D01*
X151679500Y-83732293D01*
X151679925Y-83735937D01*
X151682789Y-83760507D01*
X151683222Y-83764882D01*
X151687333Y-83815417D01*
X151689140Y-83837637D01*
X151691396Y-83844601D01*
X151692587Y-83850560D01*
X151693971Y-83856415D01*
X151694818Y-83863681D01*
X151719735Y-83932327D01*
X151721152Y-83936455D01*
X151727805Y-83956990D01*
X151743649Y-84005899D01*
X151747445Y-84012154D01*
X151749951Y-84017628D01*
X151752670Y-84023058D01*
X151755167Y-84029937D01*
X151759180Y-84036057D01*
X151759180Y-84036058D01*
X151795186Y-84090976D01*
X151797523Y-84094680D01*
X151835405Y-84157107D01*
X151839121Y-84161315D01*
X151839122Y-84161316D01*
X151842803Y-84165484D01*
X151842776Y-84165508D01*
X151845429Y-84168500D01*
X151848132Y-84171733D01*
X151852144Y-84177852D01*
X151857456Y-84182884D01*
X151908383Y-84231128D01*
X151910825Y-84233506D01*
X155166230Y-87488911D01*
X155178616Y-87503323D01*
X155187149Y-87514918D01*
X155187154Y-87514923D01*
X155191492Y-87520818D01*
X155197070Y-87525557D01*
X155197073Y-87525560D01*
X155231768Y-87555035D01*
X155239284Y-87561965D01*
X155244979Y-87567660D01*
X155247861Y-87569940D01*
X155267251Y-87585281D01*
X155270655Y-87588072D01*
X155307541Y-87619409D01*
X155326285Y-87635333D01*
X155332801Y-87638661D01*
X155337850Y-87642028D01*
X155342979Y-87645195D01*
X155348716Y-87649734D01*
X155414875Y-87680655D01*
X155418769Y-87682558D01*
X155483808Y-87715769D01*
X155490916Y-87717508D01*
X155496559Y-87719607D01*
X155502322Y-87721524D01*
X155508950Y-87724622D01*
X155559239Y-87735082D01*
X155580412Y-87739486D01*
X155584696Y-87740456D01*
X155655610Y-87757808D01*
X155661212Y-87758156D01*
X155661215Y-87758156D01*
X155666764Y-87758500D01*
X155666762Y-87758536D01*
X155670755Y-87758775D01*
X155674947Y-87759149D01*
X155682115Y-87760640D01*
X155759520Y-87758546D01*
X155762928Y-87758500D01*
X158133629Y-87758500D01*
X158201750Y-87778502D01*
X158222724Y-87795405D01*
X159166230Y-88738911D01*
X159178616Y-88753323D01*
X159187149Y-88764918D01*
X159187154Y-88764923D01*
X159191492Y-88770818D01*
X159197070Y-88775557D01*
X159197073Y-88775560D01*
X159231768Y-88805035D01*
X159239284Y-88811965D01*
X159244979Y-88817660D01*
X159247861Y-88819940D01*
X159267251Y-88835281D01*
X159270655Y-88838072D01*
X159320703Y-88880591D01*
X159326285Y-88885333D01*
X159332801Y-88888661D01*
X159337850Y-88892028D01*
X159342979Y-88895195D01*
X159348716Y-88899734D01*
X159414875Y-88930655D01*
X159418769Y-88932558D01*
X159483808Y-88965769D01*
X159490916Y-88967508D01*
X159496559Y-88969607D01*
X159502322Y-88971524D01*
X159508950Y-88974622D01*
X159516112Y-88976112D01*
X159516113Y-88976112D01*
X159580412Y-88989486D01*
X159584696Y-88990456D01*
X159655610Y-89007808D01*
X159661212Y-89008156D01*
X159661215Y-89008156D01*
X159666764Y-89008500D01*
X159666762Y-89008536D01*
X159670755Y-89008775D01*
X159674947Y-89009149D01*
X159682115Y-89010640D01*
X159759520Y-89008546D01*
X159762928Y-89008500D01*
X162133629Y-89008500D01*
X162201750Y-89028502D01*
X162222724Y-89045405D01*
X163133403Y-89956084D01*
X163167429Y-90018396D01*
X163162364Y-90089211D01*
X163119817Y-90146047D01*
X163053297Y-90170858D01*
X163000079Y-90163161D01*
X162967718Y-90151029D01*
X162967712Y-90151027D01*
X162960316Y-90148255D01*
X162898134Y-90141500D01*
X160601866Y-90141500D01*
X160539684Y-90148255D01*
X160403295Y-90199385D01*
X160286739Y-90286739D01*
X160199385Y-90403295D01*
X160196233Y-90411703D01*
X160158964Y-90511117D01*
X160116322Y-90567881D01*
X160049761Y-90592581D01*
X159980412Y-90577373D01*
X159951887Y-90555982D01*
X159538652Y-90142747D01*
X159531112Y-90134461D01*
X159527000Y-90127982D01*
X159477348Y-90081356D01*
X159474507Y-90078602D01*
X159454770Y-90058865D01*
X159451573Y-90056385D01*
X159442551Y-90048680D01*
X159416100Y-90023841D01*
X159410321Y-90018414D01*
X159403375Y-90014595D01*
X159403372Y-90014593D01*
X159392566Y-90008652D01*
X159376047Y-89997801D01*
X159370048Y-89993148D01*
X159360041Y-89985386D01*
X159352772Y-89982241D01*
X159352768Y-89982238D01*
X159319463Y-89967826D01*
X159308813Y-89962609D01*
X159270060Y-89941305D01*
X159250437Y-89936267D01*
X159231734Y-89929863D01*
X159220420Y-89924967D01*
X159220419Y-89924967D01*
X159213145Y-89921819D01*
X159205322Y-89920580D01*
X159205312Y-89920577D01*
X159169476Y-89914901D01*
X159157856Y-89912495D01*
X159122711Y-89903472D01*
X159122710Y-89903472D01*
X159115030Y-89901500D01*
X159094776Y-89901500D01*
X159075065Y-89899949D01*
X159062886Y-89898020D01*
X159055057Y-89896780D01*
X159047165Y-89897526D01*
X159011039Y-89900941D01*
X158999181Y-89901500D01*
X135958200Y-89901500D01*
X135890079Y-89881498D01*
X135870853Y-89865157D01*
X135870580Y-89865460D01*
X135865668Y-89861037D01*
X135861253Y-89856134D01*
X135761813Y-89783886D01*
X135712094Y-89747763D01*
X135712093Y-89747762D01*
X135706752Y-89743882D01*
X135700724Y-89741198D01*
X135700722Y-89741197D01*
X135538319Y-89668891D01*
X135538318Y-89668891D01*
X135532288Y-89666206D01*
X135438888Y-89646353D01*
X135351944Y-89627872D01*
X135351939Y-89627872D01*
X135345487Y-89626500D01*
X135154513Y-89626500D01*
X135148061Y-89627872D01*
X135148056Y-89627872D01*
X135061112Y-89646353D01*
X134967712Y-89666206D01*
X134961682Y-89668891D01*
X134961681Y-89668891D01*
X134799278Y-89741197D01*
X134799276Y-89741198D01*
X134793248Y-89743882D01*
X134787907Y-89747762D01*
X134787906Y-89747763D01*
X134738187Y-89783886D01*
X134638747Y-89856134D01*
X134634326Y-89861044D01*
X134634325Y-89861045D01*
X134525203Y-89982238D01*
X134510960Y-89998056D01*
X134415473Y-90163444D01*
X134356458Y-90345072D01*
X134355768Y-90351633D01*
X134355768Y-90351635D01*
X134349455Y-90411703D01*
X134336496Y-90535000D01*
X134337186Y-90541565D01*
X134340950Y-90577373D01*
X134356458Y-90724928D01*
X134415473Y-90906556D01*
X134510960Y-91071944D01*
X134638747Y-91213866D01*
X134793248Y-91326118D01*
X134799276Y-91328802D01*
X134799278Y-91328803D01*
X134909728Y-91377978D01*
X134967712Y-91403794D01*
X135061113Y-91423647D01*
X135148056Y-91442128D01*
X135148061Y-91442128D01*
X135154513Y-91443500D01*
X135345487Y-91443500D01*
X135351939Y-91442128D01*
X135351944Y-91442128D01*
X135438887Y-91423647D01*
X135532288Y-91403794D01*
X135590272Y-91377978D01*
X135700722Y-91328803D01*
X135700724Y-91328802D01*
X135706752Y-91326118D01*
X135861253Y-91213866D01*
X135865668Y-91208963D01*
X135870580Y-91204540D01*
X135871705Y-91205789D01*
X135925014Y-91172949D01*
X135958200Y-91168500D01*
X158720406Y-91168500D01*
X158788527Y-91188502D01*
X158809501Y-91205405D01*
X159746343Y-92142247D01*
X159753887Y-92150537D01*
X159758000Y-92157018D01*
X159763777Y-92162443D01*
X159807667Y-92203658D01*
X159810509Y-92206413D01*
X159830230Y-92226134D01*
X159833425Y-92228612D01*
X159842447Y-92236318D01*
X159874679Y-92266586D01*
X159881628Y-92270406D01*
X159892432Y-92276346D01*
X159908956Y-92287199D01*
X159924959Y-92299613D01*
X159965543Y-92317176D01*
X159976173Y-92322383D01*
X160014940Y-92343695D01*
X160022617Y-92345666D01*
X160022622Y-92345668D01*
X160034558Y-92348732D01*
X160053271Y-92355139D01*
X160065545Y-92360451D01*
X160120118Y-92405864D01*
X160141500Y-92476086D01*
X160141500Y-92898134D01*
X160148255Y-92960316D01*
X160199385Y-93096705D01*
X160286739Y-93213261D01*
X160403295Y-93300615D01*
X160539684Y-93351745D01*
X160601866Y-93358500D01*
X162898134Y-93358500D01*
X162960316Y-93351745D01*
X163071271Y-93310150D01*
X163142077Y-93304967D01*
X163204446Y-93338888D01*
X163238576Y-93401143D01*
X163241500Y-93428132D01*
X163241500Y-93432930D01*
X163240067Y-93451880D01*
X163236801Y-93473349D01*
X163237394Y-93480641D01*
X163237394Y-93480644D01*
X163241085Y-93526018D01*
X163241500Y-93536233D01*
X163241500Y-93544293D01*
X163241925Y-93547937D01*
X163244789Y-93572507D01*
X163245222Y-93576882D01*
X163251140Y-93649637D01*
X163253396Y-93656601D01*
X163254587Y-93662560D01*
X163255971Y-93668415D01*
X163256818Y-93675681D01*
X163281735Y-93744327D01*
X163283152Y-93748455D01*
X163305649Y-93817899D01*
X163309445Y-93824154D01*
X163311951Y-93829628D01*
X163314670Y-93835058D01*
X163317167Y-93841937D01*
X163321180Y-93848057D01*
X163321180Y-93848058D01*
X163357186Y-93902976D01*
X163359523Y-93906680D01*
X163397405Y-93969107D01*
X163401121Y-93973315D01*
X163401122Y-93973316D01*
X163404803Y-93977484D01*
X163404776Y-93977508D01*
X163407429Y-93980500D01*
X163410132Y-93983733D01*
X163414144Y-93989852D01*
X163419456Y-93994884D01*
X163470383Y-94043128D01*
X163472825Y-94045506D01*
X164191162Y-94763843D01*
X164225188Y-94826155D01*
X164220123Y-94896970D01*
X164177576Y-94953806D01*
X164111056Y-94978617D01*
X164059076Y-94971377D01*
X164010668Y-94953806D01*
X163955175Y-94933663D01*
X163949926Y-94932714D01*
X163949923Y-94932713D01*
X163732392Y-94893377D01*
X163732385Y-94893376D01*
X163728308Y-94892639D01*
X163710586Y-94891803D01*
X163705644Y-94891570D01*
X163705637Y-94891570D01*
X163704156Y-94891500D01*
X163292110Y-94891500D01*
X163227644Y-94896970D01*
X163125591Y-94905629D01*
X163125587Y-94905630D01*
X163120280Y-94906080D01*
X163115125Y-94907418D01*
X163115119Y-94907419D01*
X162902297Y-94962657D01*
X162902293Y-94962658D01*
X162897128Y-94963999D01*
X162892262Y-94966191D01*
X162892259Y-94966192D01*
X162766896Y-95022664D01*
X162686925Y-95058688D01*
X162495681Y-95187441D01*
X162491824Y-95191120D01*
X162491822Y-95191122D01*
X162457228Y-95224123D01*
X162328865Y-95346576D01*
X162191246Y-95531542D01*
X162188830Y-95536293D01*
X162188828Y-95536297D01*
X162171907Y-95569579D01*
X162086760Y-95737051D01*
X162018393Y-95957227D01*
X162017692Y-95962516D01*
X161989312Y-96176646D01*
X161988102Y-96185774D01*
X161988302Y-96191103D01*
X161988302Y-96191105D01*
X161988728Y-96202439D01*
X161996751Y-96416158D01*
X161997846Y-96421377D01*
X162007643Y-96468069D01*
X162044093Y-96641791D01*
X162046051Y-96646750D01*
X162046052Y-96646752D01*
X162067727Y-96701635D01*
X162128776Y-96856221D01*
X162131543Y-96860780D01*
X162131544Y-96860783D01*
X162196694Y-96968147D01*
X162248377Y-97053317D01*
X162251874Y-97057347D01*
X162338438Y-97157103D01*
X162399477Y-97227445D01*
X162403608Y-97230832D01*
X162573627Y-97370240D01*
X162573633Y-97370244D01*
X162577755Y-97373624D01*
X162609250Y-97391552D01*
X162658555Y-97442632D01*
X162672417Y-97512262D01*
X162646434Y-97578333D01*
X162617284Y-97605573D01*
X162495681Y-97687441D01*
X162491824Y-97691120D01*
X162491822Y-97691122D01*
X162472647Y-97709414D01*
X162328865Y-97846576D01*
X162325682Y-97850854D01*
X162314107Y-97866411D01*
X162191246Y-98031542D01*
X162188830Y-98036293D01*
X162188828Y-98036297D01*
X162170934Y-98071492D01*
X162086760Y-98237051D01*
X162085178Y-98242145D01*
X162085177Y-98242148D01*
X162055301Y-98338365D01*
X162018393Y-98457227D01*
X161988102Y-98685774D01*
X161988302Y-98691103D01*
X161988302Y-98691105D01*
X161988518Y-98696852D01*
X161996751Y-98916158D01*
X161997846Y-98921377D01*
X162003937Y-98950405D01*
X162044093Y-99141791D01*
X162046051Y-99146750D01*
X162046052Y-99146752D01*
X162118352Y-99329825D01*
X162128776Y-99356221D01*
X162248377Y-99553317D01*
X162251874Y-99557347D01*
X162373267Y-99697240D01*
X162399477Y-99727445D01*
X162403608Y-99730832D01*
X162573627Y-99870240D01*
X162573633Y-99870244D01*
X162577755Y-99873624D01*
X162609250Y-99891552D01*
X162658555Y-99942632D01*
X162672417Y-100012262D01*
X162646434Y-100078333D01*
X162617284Y-100105573D01*
X162495681Y-100187441D01*
X162328865Y-100346576D01*
X162264102Y-100433621D01*
X162258825Y-100440713D01*
X162202115Y-100483426D01*
X162157736Y-100491500D01*
X160189470Y-100491500D01*
X160121349Y-100471498D01*
X160086247Y-100436503D01*
X160085975Y-100436712D01*
X160084384Y-100434646D01*
X160083682Y-100433946D01*
X160082825Y-100432621D01*
X160082820Y-100432615D01*
X160080014Y-100428277D01*
X159929670Y-100263051D01*
X159925619Y-100259852D01*
X159925615Y-100259848D01*
X159758414Y-100127800D01*
X159758410Y-100127798D01*
X159754359Y-100124598D01*
X159713053Y-100101796D01*
X159663084Y-100051364D01*
X159648312Y-99981921D01*
X159673428Y-99915516D01*
X159700780Y-99888909D01*
X159744603Y-99857650D01*
X159879860Y-99761173D01*
X160038096Y-99603489D01*
X160097594Y-99520689D01*
X160165435Y-99426277D01*
X160168453Y-99422077D01*
X160214047Y-99329825D01*
X160265136Y-99226453D01*
X160265137Y-99226451D01*
X160267430Y-99221811D01*
X160332370Y-99008069D01*
X160361529Y-98786590D01*
X160361873Y-98772516D01*
X160363074Y-98723365D01*
X160363074Y-98723361D01*
X160363156Y-98720000D01*
X160344852Y-98497361D01*
X160290431Y-98280702D01*
X160201354Y-98075840D01*
X160161906Y-98014862D01*
X160082822Y-97892617D01*
X160082820Y-97892614D01*
X160080014Y-97888277D01*
X159929670Y-97723051D01*
X159925619Y-97719852D01*
X159925615Y-97719848D01*
X159758414Y-97587800D01*
X159758410Y-97587798D01*
X159754359Y-97584598D01*
X159713053Y-97561796D01*
X159663084Y-97511364D01*
X159648312Y-97441921D01*
X159673428Y-97375516D01*
X159700780Y-97348909D01*
X159761703Y-97305453D01*
X159879860Y-97221173D01*
X160038096Y-97063489D01*
X160042510Y-97057347D01*
X160165435Y-96886277D01*
X160168453Y-96882077D01*
X160227330Y-96762949D01*
X160265136Y-96686453D01*
X160265137Y-96686451D01*
X160267430Y-96681811D01*
X160309673Y-96542773D01*
X160330865Y-96473023D01*
X160330865Y-96473021D01*
X160332370Y-96468069D01*
X160361529Y-96246590D01*
X160361611Y-96243240D01*
X160363074Y-96183365D01*
X160363074Y-96183361D01*
X160363156Y-96180000D01*
X160344852Y-95957361D01*
X160290431Y-95740702D01*
X160201354Y-95535840D01*
X160080014Y-95348277D01*
X159929670Y-95183051D01*
X159925619Y-95179852D01*
X159925615Y-95179848D01*
X159758414Y-95047800D01*
X159758410Y-95047798D01*
X159754359Y-95044598D01*
X159714626Y-95022664D01*
X159689819Y-95008970D01*
X159558789Y-94936638D01*
X159553920Y-94934914D01*
X159553916Y-94934912D01*
X159353087Y-94863795D01*
X159353083Y-94863794D01*
X159348212Y-94862069D01*
X159343119Y-94861162D01*
X159343116Y-94861161D01*
X159133373Y-94823800D01*
X159133367Y-94823799D01*
X159128284Y-94822894D01*
X159054452Y-94821992D01*
X158910081Y-94820228D01*
X158910079Y-94820228D01*
X158904911Y-94820165D01*
X158684091Y-94853955D01*
X158471756Y-94923357D01*
X158441583Y-94939064D01*
X158317544Y-95003635D01*
X158273607Y-95026507D01*
X158269474Y-95029610D01*
X158269471Y-95029612D01*
X158099100Y-95157530D01*
X158094965Y-95160635D01*
X157940629Y-95322138D01*
X157937715Y-95326410D01*
X157937714Y-95326411D01*
X157922798Y-95348277D01*
X157814743Y-95506680D01*
X157720688Y-95709305D01*
X157660989Y-95924570D01*
X157637251Y-96146695D01*
X157637548Y-96151848D01*
X157637548Y-96151851D01*
X157647627Y-96326656D01*
X157650110Y-96369715D01*
X157651247Y-96374761D01*
X157651248Y-96374767D01*
X157668915Y-96453157D01*
X157699222Y-96587639D01*
X157783266Y-96794616D01*
X157823813Y-96860783D01*
X157892421Y-96972741D01*
X157899987Y-96985088D01*
X158046250Y-97153938D01*
X158218126Y-97296632D01*
X158239083Y-97308878D01*
X158291445Y-97339476D01*
X158340169Y-97391114D01*
X158353240Y-97460897D01*
X158326509Y-97526669D01*
X158286055Y-97560027D01*
X158273607Y-97566507D01*
X158269474Y-97569610D01*
X158269471Y-97569612D01*
X158107635Y-97691122D01*
X158094965Y-97700635D01*
X157940629Y-97862138D01*
X157814743Y-98046680D01*
X157720688Y-98249305D01*
X157660989Y-98464570D01*
X157637251Y-98686695D01*
X157637548Y-98691848D01*
X157637548Y-98691851D01*
X157638277Y-98704494D01*
X157642683Y-98780893D01*
X157643841Y-98800983D01*
X157627794Y-98870142D01*
X157576903Y-98919646D01*
X157507328Y-98933779D01*
X157441156Y-98908052D01*
X157412679Y-98877322D01*
X157392815Y-98847025D01*
X157390467Y-98843305D01*
X157387096Y-98837749D01*
X157352595Y-98780893D01*
X157345197Y-98772516D01*
X157345224Y-98772492D01*
X157342571Y-98769500D01*
X157339868Y-98766267D01*
X157335856Y-98760148D01*
X157279617Y-98706872D01*
X157277175Y-98704494D01*
X154968770Y-96396089D01*
X154956384Y-96381677D01*
X154947851Y-96370082D01*
X154947846Y-96370077D01*
X154943508Y-96364182D01*
X154937930Y-96359443D01*
X154937927Y-96359440D01*
X154903232Y-96329965D01*
X154895716Y-96323035D01*
X154890021Y-96317340D01*
X154883880Y-96312482D01*
X154867749Y-96299719D01*
X154864345Y-96296928D01*
X154814297Y-96254409D01*
X154814295Y-96254408D01*
X154808715Y-96249667D01*
X154802199Y-96246339D01*
X154797150Y-96242972D01*
X154792021Y-96239805D01*
X154786284Y-96235266D01*
X154720125Y-96204345D01*
X154716225Y-96202439D01*
X154694029Y-96191105D01*
X154651192Y-96169231D01*
X154644084Y-96167492D01*
X154638441Y-96165393D01*
X154632678Y-96163476D01*
X154626050Y-96160378D01*
X154554583Y-96145513D01*
X154550299Y-96144543D01*
X154479390Y-96127192D01*
X154473788Y-96126844D01*
X154473785Y-96126844D01*
X154468236Y-96126500D01*
X154468238Y-96126464D01*
X154464245Y-96126225D01*
X154460053Y-96125851D01*
X154452885Y-96124360D01*
X154386675Y-96126151D01*
X154375479Y-96126454D01*
X154372072Y-96126500D01*
X153292587Y-96126500D01*
X153218528Y-96102437D01*
X153212098Y-96097765D01*
X153212091Y-96097761D01*
X153206752Y-96093882D01*
X153200724Y-96091198D01*
X153200722Y-96091197D01*
X153038319Y-96018891D01*
X153038318Y-96018891D01*
X153032288Y-96016206D01*
X152938887Y-95996353D01*
X152851944Y-95977872D01*
X152851939Y-95977872D01*
X152845487Y-95976500D01*
X152654513Y-95976500D01*
X152648061Y-95977872D01*
X152648056Y-95977872D01*
X152561113Y-95996353D01*
X152467712Y-96016206D01*
X152461682Y-96018891D01*
X152461681Y-96018891D01*
X152299278Y-96091197D01*
X152299276Y-96091198D01*
X152293248Y-96093882D01*
X152287907Y-96097762D01*
X152287906Y-96097763D01*
X152283740Y-96100790D01*
X152138747Y-96206134D01*
X152134326Y-96211044D01*
X152134325Y-96211045D01*
X152030229Y-96326656D01*
X152010960Y-96348056D01*
X151915473Y-96513444D01*
X151856458Y-96695072D01*
X151836496Y-96885000D01*
X151837186Y-96891565D01*
X151854815Y-97059292D01*
X151856458Y-97074928D01*
X151915473Y-97256556D01*
X151918776Y-97262278D01*
X151918777Y-97262279D01*
X151941251Y-97301205D01*
X152010960Y-97421944D01*
X152023338Y-97435691D01*
X152054054Y-97499697D01*
X152045290Y-97570150D01*
X152023339Y-97604307D01*
X152010960Y-97618056D01*
X151915473Y-97783444D01*
X151856458Y-97965072D01*
X151836496Y-98155000D01*
X151837186Y-98161565D01*
X151849209Y-98275954D01*
X151856458Y-98344928D01*
X151915473Y-98526556D01*
X152010960Y-98691944D01*
X152015378Y-98696851D01*
X152015379Y-98696852D01*
X152099167Y-98789908D01*
X152138747Y-98833866D01*
X152198559Y-98877322D01*
X152287904Y-98942235D01*
X152293248Y-98946118D01*
X152299276Y-98948802D01*
X152299278Y-98948803D01*
X152461681Y-99021109D01*
X152467712Y-99023794D01*
X152557001Y-99042773D01*
X152648056Y-99062128D01*
X152648061Y-99062128D01*
X152654513Y-99063500D01*
X152845487Y-99063500D01*
X152851939Y-99062128D01*
X152851944Y-99062128D01*
X152942999Y-99042773D01*
X153032288Y-99023794D01*
X153038319Y-99021109D01*
X153200722Y-98948803D01*
X153200724Y-98948802D01*
X153206752Y-98946118D01*
X153212091Y-98942239D01*
X153212098Y-98942235D01*
X153218528Y-98937563D01*
X153292587Y-98913500D01*
X153538629Y-98913500D01*
X153606750Y-98933502D01*
X153627724Y-98950405D01*
X154704595Y-100027276D01*
X154738621Y-100089588D01*
X154741500Y-100116371D01*
X154741500Y-108913629D01*
X154721498Y-108981750D01*
X154704595Y-109002724D01*
X153587296Y-110120023D01*
X153524984Y-110154049D01*
X153476105Y-110154975D01*
X153408284Y-110142894D01*
X153334452Y-110141992D01*
X153190081Y-110140228D01*
X153190079Y-110140228D01*
X153184911Y-110140165D01*
X152964091Y-110173955D01*
X152751756Y-110243357D01*
X152726096Y-110256715D01*
X152572143Y-110336858D01*
X152553607Y-110346507D01*
X152549474Y-110349610D01*
X152549471Y-110349612D01*
X152379100Y-110477530D01*
X152374965Y-110480635D01*
X152334820Y-110522644D01*
X152244520Y-110617138D01*
X152220629Y-110642138D01*
X152113201Y-110799621D01*
X152058293Y-110844621D01*
X151987768Y-110852792D01*
X151924021Y-110821538D01*
X151903324Y-110797054D01*
X151822822Y-110672617D01*
X151822820Y-110672614D01*
X151820014Y-110668277D01*
X151669670Y-110503051D01*
X151665619Y-110499852D01*
X151665615Y-110499848D01*
X151498414Y-110367800D01*
X151498410Y-110367798D01*
X151494359Y-110364598D01*
X151484226Y-110359004D01*
X151442136Y-110335769D01*
X151298789Y-110256638D01*
X151293920Y-110254914D01*
X151293916Y-110254912D01*
X151093087Y-110183795D01*
X151093083Y-110183794D01*
X151088212Y-110182069D01*
X151083119Y-110181162D01*
X151083116Y-110181161D01*
X150873373Y-110143800D01*
X150873367Y-110143799D01*
X150868284Y-110142894D01*
X150794452Y-110141992D01*
X150650081Y-110140228D01*
X150650079Y-110140228D01*
X150644911Y-110140165D01*
X150424091Y-110173955D01*
X150211756Y-110243357D01*
X150186096Y-110256715D01*
X150032143Y-110336858D01*
X150013607Y-110346507D01*
X150009474Y-110349610D01*
X150009471Y-110349612D01*
X149839100Y-110477530D01*
X149834965Y-110480635D01*
X149831393Y-110484373D01*
X149753898Y-110565466D01*
X149692374Y-110600895D01*
X149621462Y-110597438D01*
X149563676Y-110556192D01*
X149544823Y-110522644D01*
X149503324Y-110411946D01*
X149494786Y-110396351D01*
X149418285Y-110294276D01*
X149405724Y-110281715D01*
X149303649Y-110205214D01*
X149288054Y-110196676D01*
X149167606Y-110151522D01*
X149152351Y-110147895D01*
X149101486Y-110142369D01*
X149094672Y-110142000D01*
X148472115Y-110142000D01*
X148456876Y-110146475D01*
X148455671Y-110147865D01*
X148454000Y-110155548D01*
X148454000Y-112839884D01*
X148458475Y-112855123D01*
X148459865Y-112856328D01*
X148467548Y-112857999D01*
X149094669Y-112857999D01*
X149101490Y-112857629D01*
X149152352Y-112852105D01*
X149167604Y-112848479D01*
X149288054Y-112803324D01*
X149303649Y-112794786D01*
X149405724Y-112718285D01*
X149418285Y-112705724D01*
X149494786Y-112603649D01*
X149503324Y-112588054D01*
X149544225Y-112478952D01*
X149586867Y-112422188D01*
X149653428Y-112397488D01*
X149722777Y-112412696D01*
X149757444Y-112440684D01*
X149782865Y-112470031D01*
X149782869Y-112470035D01*
X149786250Y-112473938D01*
X149935985Y-112598250D01*
X149975620Y-112657152D01*
X149981500Y-112695194D01*
X149981500Y-118185676D01*
X149961498Y-118253797D01*
X149938080Y-118280842D01*
X149836402Y-118369074D01*
X149772555Y-118424477D01*
X149769168Y-118428608D01*
X149742994Y-118460529D01*
X149684334Y-118500524D01*
X149613364Y-118502455D01*
X149552616Y-118465710D01*
X149538416Y-118446941D01*
X149451937Y-118307193D01*
X149442901Y-118295792D01*
X149328171Y-118181261D01*
X149316760Y-118172249D01*
X149178757Y-118087184D01*
X149165576Y-118081037D01*
X149011290Y-118029862D01*
X148997914Y-118026995D01*
X148903562Y-118017328D01*
X148897145Y-118017000D01*
X148522115Y-118017000D01*
X148506876Y-118021475D01*
X148505671Y-118022865D01*
X148504000Y-118030548D01*
X148504000Y-120964884D01*
X148508475Y-120980123D01*
X148509865Y-120981328D01*
X148517548Y-120982999D01*
X148897095Y-120982999D01*
X148903614Y-120982662D01*
X148999206Y-120972743D01*
X149012600Y-120969851D01*
X149166784Y-120918412D01*
X149179962Y-120912239D01*
X149317807Y-120826937D01*
X149329208Y-120817901D01*
X149443739Y-120703171D01*
X149452753Y-120691757D01*
X149538723Y-120552287D01*
X149591495Y-120504793D01*
X149661566Y-120493369D01*
X149726690Y-120521643D01*
X149737149Y-120531426D01*
X149845013Y-120644497D01*
X149845014Y-120644498D01*
X149846576Y-120646135D01*
X149846243Y-120646453D01*
X149882293Y-120703832D01*
X149881565Y-120774825D01*
X149850134Y-120827185D01*
X149222724Y-121454595D01*
X149160412Y-121488621D01*
X149133629Y-121491500D01*
X136366371Y-121491500D01*
X136298250Y-121471498D01*
X136277276Y-121454595D01*
X135646795Y-120824114D01*
X135612769Y-120761802D01*
X135617834Y-120690987D01*
X135653309Y-120639855D01*
X135727445Y-120575523D01*
X135794807Y-120493369D01*
X135870240Y-120401373D01*
X135870244Y-120401367D01*
X135873624Y-120397245D01*
X135891552Y-120365750D01*
X135942632Y-120316445D01*
X136012262Y-120302583D01*
X136078333Y-120328566D01*
X136105573Y-120357716D01*
X136187441Y-120479319D01*
X136191120Y-120483176D01*
X136191122Y-120483178D01*
X136247030Y-120541784D01*
X136346576Y-120646135D01*
X136531542Y-120783754D01*
X136536293Y-120786170D01*
X136536297Y-120786172D01*
X136618078Y-120827751D01*
X136737051Y-120888240D01*
X136742145Y-120889822D01*
X136742148Y-120889823D01*
X136942004Y-120951880D01*
X136957227Y-120956607D01*
X136962516Y-120957308D01*
X137180489Y-120986198D01*
X137180494Y-120986198D01*
X137185774Y-120986898D01*
X137191103Y-120986698D01*
X137191105Y-120986698D01*
X137300966Y-120982574D01*
X137416158Y-120978249D01*
X137421468Y-120977135D01*
X137636572Y-120932002D01*
X137641791Y-120930907D01*
X137646750Y-120928949D01*
X137646752Y-120928948D01*
X137851256Y-120848185D01*
X137851258Y-120848184D01*
X137856221Y-120846224D01*
X137887597Y-120827185D01*
X138048757Y-120729390D01*
X138048756Y-120729390D01*
X138053317Y-120726623D01*
X138094488Y-120690897D01*
X138223412Y-120579023D01*
X138223414Y-120579021D01*
X138227445Y-120575523D01*
X138294807Y-120493369D01*
X138370240Y-120401373D01*
X138370244Y-120401367D01*
X138373624Y-120397245D01*
X138391552Y-120365750D01*
X138442632Y-120316445D01*
X138512262Y-120302583D01*
X138578333Y-120328566D01*
X138605573Y-120357716D01*
X138687441Y-120479319D01*
X138691120Y-120483176D01*
X138691122Y-120483178D01*
X138747030Y-120541784D01*
X138846576Y-120646135D01*
X139031542Y-120783754D01*
X139036293Y-120786170D01*
X139036297Y-120786172D01*
X139118078Y-120827751D01*
X139237051Y-120888240D01*
X139242145Y-120889822D01*
X139242148Y-120889823D01*
X139442004Y-120951880D01*
X139457227Y-120956607D01*
X139462516Y-120957308D01*
X139680489Y-120986198D01*
X139680494Y-120986198D01*
X139685774Y-120986898D01*
X139691103Y-120986698D01*
X139691105Y-120986698D01*
X139800966Y-120982574D01*
X139916158Y-120978249D01*
X139921468Y-120977135D01*
X140136572Y-120932002D01*
X140141791Y-120930907D01*
X140146750Y-120928949D01*
X140146752Y-120928948D01*
X140351256Y-120848185D01*
X140351258Y-120848184D01*
X140356221Y-120846224D01*
X140387597Y-120827185D01*
X140548757Y-120729390D01*
X140548756Y-120729390D01*
X140553317Y-120726623D01*
X140594488Y-120690897D01*
X140723412Y-120579023D01*
X140723414Y-120579021D01*
X140727445Y-120575523D01*
X140794807Y-120493369D01*
X140870240Y-120401373D01*
X140870244Y-120401367D01*
X140873624Y-120397245D01*
X140879115Y-120387600D01*
X140944864Y-120272095D01*
X146892001Y-120272095D01*
X146892338Y-120278614D01*
X146902257Y-120374206D01*
X146905149Y-120387600D01*
X146956588Y-120541784D01*
X146962761Y-120554962D01*
X147048063Y-120692807D01*
X147057099Y-120704208D01*
X147171829Y-120818739D01*
X147183240Y-120827751D01*
X147321243Y-120912816D01*
X147334424Y-120918963D01*
X147488710Y-120970138D01*
X147502086Y-120973005D01*
X147596438Y-120982672D01*
X147602854Y-120983000D01*
X147977885Y-120983000D01*
X147993124Y-120978525D01*
X147994329Y-120977135D01*
X147996000Y-120969452D01*
X147996000Y-119772115D01*
X147991525Y-119756876D01*
X147990135Y-119755671D01*
X147982452Y-119754000D01*
X146910116Y-119754000D01*
X146894877Y-119758475D01*
X146893672Y-119759865D01*
X146892001Y-119767548D01*
X146892001Y-120272095D01*
X140944864Y-120272095D01*
X140985032Y-120201529D01*
X140987675Y-120196886D01*
X141066337Y-119980175D01*
X141089965Y-119849512D01*
X141106623Y-119757392D01*
X141106624Y-119757385D01*
X141107361Y-119753308D01*
X141108500Y-119729156D01*
X141108500Y-119317110D01*
X141100929Y-119227885D01*
X146892000Y-119227885D01*
X146896475Y-119243124D01*
X146897865Y-119244329D01*
X146905548Y-119246000D01*
X147977885Y-119246000D01*
X147993124Y-119241525D01*
X147994329Y-119240135D01*
X147996000Y-119232452D01*
X147996000Y-118035116D01*
X147991525Y-118019877D01*
X147990135Y-118018672D01*
X147982452Y-118017001D01*
X147602905Y-118017001D01*
X147596386Y-118017338D01*
X147500794Y-118027257D01*
X147487400Y-118030149D01*
X147333216Y-118081588D01*
X147320038Y-118087761D01*
X147182193Y-118173063D01*
X147170792Y-118182099D01*
X147056261Y-118296829D01*
X147047249Y-118308240D01*
X146962184Y-118446243D01*
X146956037Y-118459424D01*
X146904862Y-118613710D01*
X146901995Y-118627086D01*
X146892328Y-118721438D01*
X146892000Y-118727855D01*
X146892000Y-119227885D01*
X141100929Y-119227885D01*
X141093920Y-119145280D01*
X141092582Y-119140125D01*
X141092581Y-119140119D01*
X141037343Y-118927297D01*
X141037342Y-118927293D01*
X141036001Y-118922128D01*
X140941312Y-118711925D01*
X140812559Y-118520681D01*
X140653424Y-118353865D01*
X140579287Y-118298705D01*
X140536574Y-118241996D01*
X140528500Y-118197617D01*
X140528500Y-112667632D01*
X140548502Y-112599511D01*
X140581331Y-112565054D01*
X140649860Y-112516173D01*
X140771789Y-112394669D01*
X146842001Y-112394669D01*
X146842371Y-112401490D01*
X146847895Y-112452352D01*
X146851521Y-112467604D01*
X146896676Y-112588054D01*
X146905214Y-112603649D01*
X146981715Y-112705724D01*
X146994276Y-112718285D01*
X147096351Y-112794786D01*
X147111946Y-112803324D01*
X147232394Y-112848478D01*
X147247649Y-112852105D01*
X147298514Y-112857631D01*
X147305328Y-112858000D01*
X147927885Y-112858000D01*
X147943124Y-112853525D01*
X147944329Y-112852135D01*
X147946000Y-112844452D01*
X147946000Y-111772115D01*
X147941525Y-111756876D01*
X147940135Y-111755671D01*
X147932452Y-111754000D01*
X146860116Y-111754000D01*
X146844877Y-111758475D01*
X146843672Y-111759865D01*
X146842001Y-111767548D01*
X146842001Y-112394669D01*
X140771789Y-112394669D01*
X140808096Y-112358489D01*
X140843665Y-112308990D01*
X140935435Y-112181277D01*
X140938453Y-112177077D01*
X140959320Y-112134857D01*
X141035136Y-111981453D01*
X141035137Y-111981451D01*
X141037430Y-111976811D01*
X141093269Y-111793023D01*
X141100865Y-111768023D01*
X141100865Y-111768021D01*
X141102370Y-111763069D01*
X141131529Y-111541590D01*
X141133156Y-111475000D01*
X141114852Y-111252361D01*
X141108704Y-111227885D01*
X146842000Y-111227885D01*
X146846475Y-111243124D01*
X146847865Y-111244329D01*
X146855548Y-111246000D01*
X147927885Y-111246000D01*
X147943124Y-111241525D01*
X147944329Y-111240135D01*
X147946000Y-111232452D01*
X147946000Y-110160116D01*
X147941525Y-110144877D01*
X147940135Y-110143672D01*
X147932452Y-110142001D01*
X147305331Y-110142001D01*
X147298510Y-110142371D01*
X147247648Y-110147895D01*
X147232396Y-110151521D01*
X147111946Y-110196676D01*
X147096351Y-110205214D01*
X146994276Y-110281715D01*
X146981715Y-110294276D01*
X146905214Y-110396351D01*
X146896676Y-110411946D01*
X146851522Y-110532394D01*
X146847895Y-110547649D01*
X146842369Y-110598514D01*
X146842000Y-110605328D01*
X146842000Y-111227885D01*
X141108704Y-111227885D01*
X141060431Y-111035702D01*
X140971354Y-110830840D01*
X140867201Y-110669844D01*
X140852822Y-110647617D01*
X140852820Y-110647614D01*
X140850014Y-110643277D01*
X140699670Y-110478051D01*
X140695621Y-110474853D01*
X140695616Y-110474848D01*
X140612474Y-110409187D01*
X140571411Y-110351270D01*
X140568179Y-110280347D01*
X140601471Y-110221210D01*
X148062276Y-102760405D01*
X148124588Y-102726379D01*
X148151371Y-102723500D01*
X152207413Y-102723500D01*
X152281472Y-102747563D01*
X152287902Y-102752235D01*
X152287909Y-102752239D01*
X152293248Y-102756118D01*
X152299276Y-102758802D01*
X152299278Y-102758803D01*
X152461681Y-102831109D01*
X152467712Y-102833794D01*
X152532890Y-102847648D01*
X152648056Y-102872128D01*
X152648061Y-102872128D01*
X152654513Y-102873500D01*
X152845487Y-102873500D01*
X152851939Y-102872128D01*
X152851944Y-102872128D01*
X152967110Y-102847648D01*
X153032288Y-102833794D01*
X153038319Y-102831109D01*
X153200722Y-102758803D01*
X153200724Y-102758802D01*
X153206752Y-102756118D01*
X153212097Y-102752235D01*
X153289014Y-102696351D01*
X153361253Y-102643866D01*
X153394122Y-102607361D01*
X153484621Y-102506852D01*
X153484622Y-102506851D01*
X153489040Y-102501944D01*
X153584527Y-102336556D01*
X153643542Y-102154928D01*
X153645186Y-102139292D01*
X153662814Y-101971565D01*
X153663504Y-101965000D01*
X153655917Y-101892814D01*
X153644232Y-101781635D01*
X153644232Y-101781633D01*
X153643542Y-101775072D01*
X153584527Y-101593444D01*
X153561135Y-101552927D01*
X153492341Y-101433774D01*
X153489040Y-101428056D01*
X153476662Y-101414309D01*
X153445946Y-101350303D01*
X153454710Y-101279850D01*
X153476661Y-101245693D01*
X153489040Y-101231944D01*
X153584527Y-101066556D01*
X153643542Y-100884928D01*
X153654435Y-100781292D01*
X153662814Y-100701565D01*
X153663504Y-100695000D01*
X153643542Y-100505072D01*
X153584527Y-100323444D01*
X153489040Y-100158056D01*
X153461798Y-100127800D01*
X153365675Y-100021045D01*
X153365674Y-100021044D01*
X153361253Y-100016134D01*
X153251647Y-99936500D01*
X153212094Y-99907763D01*
X153212093Y-99907762D01*
X153206752Y-99903882D01*
X153200724Y-99901198D01*
X153200722Y-99901197D01*
X153038319Y-99828891D01*
X153038318Y-99828891D01*
X153032288Y-99826206D01*
X152938887Y-99806353D01*
X152851944Y-99787872D01*
X152851939Y-99787872D01*
X152845487Y-99786500D01*
X152654513Y-99786500D01*
X152648061Y-99787872D01*
X152648056Y-99787872D01*
X152561112Y-99806353D01*
X152467712Y-99826206D01*
X152461682Y-99828891D01*
X152461681Y-99828891D01*
X152299278Y-99901197D01*
X152299276Y-99901198D01*
X152293248Y-99903882D01*
X152287909Y-99907761D01*
X152287902Y-99907765D01*
X152281472Y-99912437D01*
X152207413Y-99936500D01*
X146872070Y-99936500D01*
X146853120Y-99935067D01*
X146838885Y-99932901D01*
X146838881Y-99932901D01*
X146831651Y-99931801D01*
X146824359Y-99932394D01*
X146824356Y-99932394D01*
X146778982Y-99936085D01*
X146768767Y-99936500D01*
X146760707Y-99936500D01*
X146757073Y-99936924D01*
X146757067Y-99936924D01*
X146744042Y-99938443D01*
X146732480Y-99939791D01*
X146728132Y-99940221D01*
X146655364Y-99946140D01*
X146648403Y-99948395D01*
X146642463Y-99949582D01*
X146636588Y-99950971D01*
X146629319Y-99951818D01*
X146560670Y-99976736D01*
X146556542Y-99978153D01*
X146494064Y-99998393D01*
X146494062Y-99998394D01*
X146487101Y-100000649D01*
X146480846Y-100004445D01*
X146475372Y-100006951D01*
X146469942Y-100009670D01*
X146463063Y-100012167D01*
X146456943Y-100016180D01*
X146456942Y-100016180D01*
X146402024Y-100052186D01*
X146398320Y-100054523D01*
X146335893Y-100092405D01*
X146327516Y-100099803D01*
X146327492Y-100099776D01*
X146324500Y-100102429D01*
X146321267Y-100105132D01*
X146315148Y-100109144D01*
X146310116Y-100114456D01*
X146261872Y-100165383D01*
X146259494Y-100167825D01*
X136741089Y-109686230D01*
X136726677Y-109698616D01*
X136715082Y-109707149D01*
X136715077Y-109707154D01*
X136709182Y-109711492D01*
X136704443Y-109717070D01*
X136704440Y-109717073D01*
X136674965Y-109751768D01*
X136668035Y-109759284D01*
X136662340Y-109764979D01*
X136660060Y-109767861D01*
X136644719Y-109787251D01*
X136641928Y-109790655D01*
X136599409Y-109840703D01*
X136594667Y-109846285D01*
X136591339Y-109852801D01*
X136587972Y-109857850D01*
X136584805Y-109862979D01*
X136580266Y-109868716D01*
X136549345Y-109934875D01*
X136547442Y-109938769D01*
X136514231Y-110003808D01*
X136512492Y-110010916D01*
X136510393Y-110016559D01*
X136508476Y-110022322D01*
X136505378Y-110028950D01*
X136503888Y-110036112D01*
X136503888Y-110036113D01*
X136490514Y-110100412D01*
X136489544Y-110104696D01*
X136472192Y-110175610D01*
X136471500Y-110186764D01*
X136471464Y-110186762D01*
X136471225Y-110190755D01*
X136470851Y-110194947D01*
X136469360Y-110202115D01*
X136471090Y-110266043D01*
X136471447Y-110279253D01*
X136453295Y-110347890D01*
X136421147Y-110383420D01*
X136324965Y-110455635D01*
X136299897Y-110481867D01*
X136188427Y-110598514D01*
X136170629Y-110617138D01*
X136063201Y-110774621D01*
X136008293Y-110819621D01*
X135937768Y-110827792D01*
X135874021Y-110796538D01*
X135853324Y-110772054D01*
X135772822Y-110647617D01*
X135772820Y-110647614D01*
X135770014Y-110643277D01*
X135619670Y-110478051D01*
X135615615Y-110474848D01*
X135496407Y-110380703D01*
X135455345Y-110322785D01*
X135448500Y-110281821D01*
X135448500Y-110007063D01*
X135449933Y-109988114D01*
X135452097Y-109973886D01*
X135453198Y-109966651D01*
X135448915Y-109913990D01*
X135448500Y-109903777D01*
X135448500Y-109895707D01*
X135448078Y-109892087D01*
X135448077Y-109892069D01*
X135445208Y-109867461D01*
X135444775Y-109863086D01*
X135443223Y-109843997D01*
X135441266Y-109819940D01*
X135439454Y-109797661D01*
X135439453Y-109797658D01*
X135438860Y-109790363D01*
X135436604Y-109783399D01*
X135435413Y-109777440D01*
X135434029Y-109771585D01*
X135433182Y-109764319D01*
X135408265Y-109695673D01*
X135406848Y-109691545D01*
X135386607Y-109629064D01*
X135386606Y-109629062D01*
X135384351Y-109622101D01*
X135380555Y-109615846D01*
X135378049Y-109610372D01*
X135375330Y-109604942D01*
X135372833Y-109598063D01*
X135332809Y-109537016D01*
X135330472Y-109533312D01*
X135295509Y-109475693D01*
X135295505Y-109475688D01*
X135292595Y-109470892D01*
X135285197Y-109462516D01*
X135285223Y-109462493D01*
X135282574Y-109459503D01*
X135279866Y-109456264D01*
X135275856Y-109450148D01*
X135270549Y-109445121D01*
X135270546Y-109445117D01*
X135219617Y-109396872D01*
X135217175Y-109394494D01*
X134583770Y-108761089D01*
X134571384Y-108746677D01*
X134562851Y-108735082D01*
X134562846Y-108735077D01*
X134558508Y-108729182D01*
X134552930Y-108724443D01*
X134552927Y-108724440D01*
X134518232Y-108694965D01*
X134510716Y-108688035D01*
X134505021Y-108682340D01*
X134498880Y-108677482D01*
X134482749Y-108664719D01*
X134479345Y-108661928D01*
X134429297Y-108619409D01*
X134429295Y-108619408D01*
X134423715Y-108614667D01*
X134417199Y-108611339D01*
X134412150Y-108607972D01*
X134407021Y-108604805D01*
X134401284Y-108600266D01*
X134335125Y-108569345D01*
X134331225Y-108567439D01*
X134266192Y-108534231D01*
X134259084Y-108532492D01*
X134253441Y-108530393D01*
X134247678Y-108528476D01*
X134241050Y-108525378D01*
X134169583Y-108510513D01*
X134165299Y-108509543D01*
X134155789Y-108507216D01*
X134094390Y-108492192D01*
X134088788Y-108491844D01*
X134088785Y-108491844D01*
X134083236Y-108491500D01*
X134083238Y-108491464D01*
X134079245Y-108491225D01*
X134075053Y-108490851D01*
X134067885Y-108489360D01*
X134001675Y-108491151D01*
X133990479Y-108491454D01*
X133987072Y-108491500D01*
X133616371Y-108491500D01*
X133548250Y-108471498D01*
X133527276Y-108454595D01*
X132545405Y-107472724D01*
X132511379Y-107410412D01*
X132508500Y-107383629D01*
X132508500Y-97630420D01*
X141471075Y-97630420D01*
X141473858Y-97634138D01*
X141611900Y-97685475D01*
X141625491Y-97688864D01*
X141777308Y-97709121D01*
X141791304Y-97709414D01*
X141943831Y-97695533D01*
X141957555Y-97692716D01*
X142103219Y-97645387D01*
X142115969Y-97639603D01*
X142117799Y-97638512D01*
X142125302Y-97630420D01*
X142871075Y-97630420D01*
X142873858Y-97634138D01*
X143011900Y-97685475D01*
X143025491Y-97688864D01*
X143177308Y-97709121D01*
X143191304Y-97709414D01*
X143343831Y-97695533D01*
X143357555Y-97692716D01*
X143503219Y-97645387D01*
X143515969Y-97639603D01*
X143517799Y-97638512D01*
X143527387Y-97628171D01*
X143523881Y-97619757D01*
X143212812Y-97308688D01*
X143198868Y-97301074D01*
X143197033Y-97301205D01*
X143190423Y-97305453D01*
X142877834Y-97618041D01*
X142871075Y-97630420D01*
X142125302Y-97630420D01*
X142127387Y-97628171D01*
X142123881Y-97619757D01*
X141812812Y-97308688D01*
X141798868Y-97301074D01*
X141797033Y-97301205D01*
X141790423Y-97305453D01*
X141477834Y-97618041D01*
X141471075Y-97630420D01*
X132508500Y-97630420D01*
X132508500Y-96930420D01*
X140771075Y-96930420D01*
X140773858Y-96934138D01*
X140911900Y-96985475D01*
X140925491Y-96988864D01*
X140956423Y-96992991D01*
X141021300Y-97021826D01*
X141060288Y-97081159D01*
X141065157Y-97105586D01*
X141065488Y-97108963D01*
X141068401Y-97122664D01*
X141116746Y-97267993D01*
X141121713Y-97278743D01*
X141131488Y-97287680D01*
X141140107Y-97284018D01*
X141451316Y-96972808D01*
X141457693Y-96961130D01*
X142141073Y-96961130D01*
X142141205Y-96962966D01*
X142145454Y-96969578D01*
X142457622Y-97281747D01*
X142471564Y-97289360D01*
X142501515Y-97287218D01*
X142529359Y-97288585D01*
X142540107Y-97284018D01*
X142851316Y-96972808D01*
X142857693Y-96961130D01*
X143541073Y-96961130D01*
X143541205Y-96962966D01*
X143545454Y-96969578D01*
X143857622Y-97281747D01*
X143870001Y-97288506D01*
X143873817Y-97285649D01*
X143924146Y-97153157D01*
X143927629Y-97139595D01*
X143932733Y-97103274D01*
X143962021Y-97038599D01*
X144021625Y-97000026D01*
X144036964Y-96997079D01*
X144036937Y-96996948D01*
X144057556Y-96992716D01*
X144203219Y-96945387D01*
X144215969Y-96939603D01*
X144217799Y-96938512D01*
X144227387Y-96928171D01*
X144223881Y-96919757D01*
X143912812Y-96608688D01*
X143898868Y-96601074D01*
X143897035Y-96601205D01*
X143890420Y-96605456D01*
X143871751Y-96624124D01*
X143871751Y-96624123D01*
X143871750Y-96624124D01*
X143548685Y-96947190D01*
X143541073Y-96961130D01*
X142857693Y-96961130D01*
X142858927Y-96958870D01*
X142858795Y-96957034D01*
X142854546Y-96950422D01*
X142528249Y-96624124D01*
X142528247Y-96624122D01*
X142512810Y-96608686D01*
X142498869Y-96601074D01*
X142497033Y-96601205D01*
X142490422Y-96605454D01*
X142471751Y-96624124D01*
X142471751Y-96624123D01*
X142471750Y-96624124D01*
X142148685Y-96947190D01*
X142141073Y-96961130D01*
X141457693Y-96961130D01*
X141458927Y-96958870D01*
X141458795Y-96957034D01*
X141454546Y-96950422D01*
X141128249Y-96624124D01*
X141128247Y-96624122D01*
X141112810Y-96608686D01*
X141098869Y-96601074D01*
X141097032Y-96601205D01*
X141090423Y-96605453D01*
X140777834Y-96918041D01*
X140771075Y-96930420D01*
X132508500Y-96930420D01*
X132508500Y-96256537D01*
X140350544Y-96256537D01*
X140365490Y-96408970D01*
X140368401Y-96422664D01*
X140416746Y-96567993D01*
X140421713Y-96578743D01*
X140431488Y-96587680D01*
X140440107Y-96584018D01*
X140751316Y-96272808D01*
X140757693Y-96261130D01*
X141441073Y-96261130D01*
X141441205Y-96262966D01*
X141445454Y-96269578D01*
X141474225Y-96298350D01*
X141474224Y-96298350D01*
X141474225Y-96298351D01*
X141787190Y-96611315D01*
X141801130Y-96618927D01*
X141802966Y-96618795D01*
X141809578Y-96614546D01*
X142125775Y-96298350D01*
X142125777Y-96298348D01*
X142151315Y-96272809D01*
X142157692Y-96261130D01*
X142841073Y-96261130D01*
X142841205Y-96262966D01*
X142845454Y-96269578D01*
X142874225Y-96298350D01*
X142874224Y-96298350D01*
X142874225Y-96298351D01*
X143187190Y-96611315D01*
X143201130Y-96618927D01*
X143202966Y-96618795D01*
X143209578Y-96614546D01*
X143525775Y-96298350D01*
X143525777Y-96298348D01*
X143551315Y-96272809D01*
X143557692Y-96261130D01*
X144241073Y-96261130D01*
X144241205Y-96262966D01*
X144245454Y-96269578D01*
X144557622Y-96581747D01*
X144570001Y-96588506D01*
X144573817Y-96585649D01*
X144624146Y-96453157D01*
X144627628Y-96439596D01*
X144649374Y-96284869D01*
X144649980Y-96276987D01*
X144650162Y-96263947D01*
X144649777Y-96256077D01*
X144632359Y-96100790D01*
X144629257Y-96087137D01*
X144578889Y-95942500D01*
X144576976Y-95938509D01*
X144569271Y-95931659D01*
X144560220Y-95935655D01*
X144248684Y-96247192D01*
X144241073Y-96261130D01*
X143557692Y-96261130D01*
X143558926Y-96258871D01*
X143558795Y-96257033D01*
X143554545Y-96250421D01*
X143228249Y-95924124D01*
X143228247Y-95924122D01*
X143212810Y-95908686D01*
X143198869Y-95901074D01*
X143197033Y-95901205D01*
X143190422Y-95905454D01*
X143171751Y-95924124D01*
X143171751Y-95924123D01*
X143171750Y-95924124D01*
X142848685Y-96247190D01*
X142841073Y-96261130D01*
X142157692Y-96261130D01*
X142158926Y-96258871D01*
X142158795Y-96257033D01*
X142154545Y-96250421D01*
X141828249Y-95924124D01*
X141828247Y-95924122D01*
X141812810Y-95908686D01*
X141798869Y-95901074D01*
X141797033Y-95901205D01*
X141790422Y-95905454D01*
X141771751Y-95924124D01*
X141771751Y-95924123D01*
X141771750Y-95924124D01*
X141448685Y-96247190D01*
X141441073Y-96261130D01*
X140757693Y-96261130D01*
X140758927Y-96258870D01*
X140758795Y-96257034D01*
X140754546Y-96250422D01*
X140441825Y-95937701D01*
X140429445Y-95930941D01*
X140425231Y-95934096D01*
X140373227Y-96076973D01*
X140369935Y-96090581D01*
X140350740Y-96242531D01*
X140350544Y-96256537D01*
X132508500Y-96256537D01*
X132508500Y-95531984D01*
X140770221Y-95531984D01*
X140772354Y-95561816D01*
X140771113Y-95589066D01*
X140775827Y-95599951D01*
X141087188Y-95911312D01*
X141101132Y-95918926D01*
X141102967Y-95918795D01*
X141109577Y-95914547D01*
X141380346Y-95643779D01*
X141451313Y-95572811D01*
X141457691Y-95561130D01*
X142141073Y-95561130D01*
X142141205Y-95562966D01*
X142145455Y-95569579D01*
X142219654Y-95643779D01*
X142487191Y-95911315D01*
X142501130Y-95918926D01*
X142502967Y-95918795D01*
X142509577Y-95914547D01*
X142780346Y-95643779D01*
X142851313Y-95572811D01*
X142857691Y-95561130D01*
X143541073Y-95561130D01*
X143541205Y-95562966D01*
X143545455Y-95569579D01*
X143619654Y-95643779D01*
X143887191Y-95911315D01*
X143901130Y-95918926D01*
X143902967Y-95918795D01*
X143909577Y-95914547D01*
X144221900Y-95602225D01*
X144229513Y-95588282D01*
X144227236Y-95556438D01*
X144228572Y-95531017D01*
X144223881Y-95519757D01*
X143912812Y-95208688D01*
X143898868Y-95201074D01*
X143897035Y-95201205D01*
X143890420Y-95205456D01*
X143871751Y-95224124D01*
X143871751Y-95224123D01*
X143871750Y-95224124D01*
X143548685Y-95547190D01*
X143541073Y-95561130D01*
X142857691Y-95561130D01*
X142858926Y-95558868D01*
X142858795Y-95557033D01*
X142854547Y-95550423D01*
X142528249Y-95224124D01*
X142528247Y-95224122D01*
X142512810Y-95208686D01*
X142498869Y-95201074D01*
X142497033Y-95201205D01*
X142490422Y-95205454D01*
X142471751Y-95224124D01*
X142471751Y-95224123D01*
X142471750Y-95224124D01*
X142148685Y-95547190D01*
X142141073Y-95561130D01*
X141457691Y-95561130D01*
X141458926Y-95558868D01*
X141458795Y-95557033D01*
X141454547Y-95550423D01*
X141128249Y-95224124D01*
X141128247Y-95224122D01*
X141112810Y-95208686D01*
X141098869Y-95201074D01*
X141097032Y-95201205D01*
X141090423Y-95205453D01*
X140777834Y-95518041D01*
X140770221Y-95531984D01*
X132508500Y-95531984D01*
X132508500Y-95486999D01*
X132525381Y-95423999D01*
X132581223Y-95327279D01*
X132581224Y-95327278D01*
X132584527Y-95321556D01*
X132643542Y-95139928D01*
X132644967Y-95126376D01*
X132662814Y-94956565D01*
X132663504Y-94950000D01*
X132658888Y-94906080D01*
X132653681Y-94856537D01*
X140350544Y-94856537D01*
X140365490Y-95008970D01*
X140368401Y-95022664D01*
X140416746Y-95167993D01*
X140421713Y-95178743D01*
X140431488Y-95187680D01*
X140440107Y-95184018D01*
X140751316Y-94872808D01*
X140757693Y-94861130D01*
X141441073Y-94861130D01*
X141441205Y-94862966D01*
X141445454Y-94869578D01*
X141467375Y-94891500D01*
X141467374Y-94891500D01*
X141467375Y-94891501D01*
X141787190Y-95211315D01*
X141801130Y-95218927D01*
X141802966Y-95218795D01*
X141809578Y-95214546D01*
X142132625Y-94891500D01*
X142132627Y-94891498D01*
X142151314Y-94872810D01*
X142157691Y-94861130D01*
X142841073Y-94861130D01*
X142841205Y-94862966D01*
X142845454Y-94869578D01*
X142867375Y-94891500D01*
X142867374Y-94891500D01*
X142867375Y-94891501D01*
X143187190Y-95211315D01*
X143201130Y-95218927D01*
X143202966Y-95218795D01*
X143209578Y-95214546D01*
X143532625Y-94891500D01*
X143532627Y-94891498D01*
X143551314Y-94872810D01*
X143557691Y-94861130D01*
X144241073Y-94861130D01*
X144241205Y-94862966D01*
X144245454Y-94869578D01*
X144557622Y-95181747D01*
X144570001Y-95188506D01*
X144573817Y-95185649D01*
X144624146Y-95053157D01*
X144627628Y-95039596D01*
X144649374Y-94884869D01*
X144649980Y-94876987D01*
X144650162Y-94863947D01*
X144649777Y-94856077D01*
X144632359Y-94700790D01*
X144629257Y-94687137D01*
X144578889Y-94542500D01*
X144576976Y-94538509D01*
X144569271Y-94531659D01*
X144560220Y-94535655D01*
X144248684Y-94847192D01*
X144241073Y-94861130D01*
X143557691Y-94861130D01*
X143558926Y-94858869D01*
X143558795Y-94857033D01*
X143554545Y-94850421D01*
X143228249Y-94524124D01*
X143228247Y-94524122D01*
X143212810Y-94508686D01*
X143198869Y-94501074D01*
X143197033Y-94501205D01*
X143190422Y-94505454D01*
X143171751Y-94524124D01*
X143171751Y-94524123D01*
X143171750Y-94524124D01*
X142848685Y-94847190D01*
X142841073Y-94861130D01*
X142157691Y-94861130D01*
X142158926Y-94858869D01*
X142158795Y-94857033D01*
X142154545Y-94850421D01*
X141828249Y-94524124D01*
X141828247Y-94524122D01*
X141812810Y-94508686D01*
X141798869Y-94501074D01*
X141797033Y-94501205D01*
X141790422Y-94505454D01*
X141771751Y-94524124D01*
X141771751Y-94524123D01*
X141771750Y-94524124D01*
X141448685Y-94847190D01*
X141441073Y-94861130D01*
X140757693Y-94861130D01*
X140758927Y-94858870D01*
X140758795Y-94857034D01*
X140754546Y-94850422D01*
X140441825Y-94537701D01*
X140429445Y-94530941D01*
X140425231Y-94534096D01*
X140373227Y-94676973D01*
X140369935Y-94690581D01*
X140350740Y-94842531D01*
X140350544Y-94856537D01*
X132653681Y-94856537D01*
X132644232Y-94766635D01*
X132644232Y-94766633D01*
X132643542Y-94760072D01*
X132584527Y-94578444D01*
X132561471Y-94538509D01*
X132492341Y-94418774D01*
X132489040Y-94413056D01*
X132361253Y-94271134D01*
X132251125Y-94191121D01*
X140772003Y-94191121D01*
X140775827Y-94199951D01*
X141087188Y-94511312D01*
X141101132Y-94518926D01*
X141102967Y-94518795D01*
X141109577Y-94514547D01*
X141355304Y-94268821D01*
X141451313Y-94172811D01*
X141457691Y-94161130D01*
X142141073Y-94161130D01*
X142141205Y-94162966D01*
X142145455Y-94169579D01*
X142244696Y-94268821D01*
X142487191Y-94511315D01*
X142501130Y-94518926D01*
X142502967Y-94518795D01*
X142509577Y-94514547D01*
X142755304Y-94268821D01*
X142851313Y-94172811D01*
X142857691Y-94161130D01*
X143541073Y-94161130D01*
X143541205Y-94162966D01*
X143545455Y-94169579D01*
X143644696Y-94268821D01*
X143887191Y-94511315D01*
X143901130Y-94518926D01*
X143902967Y-94518795D01*
X143909577Y-94514547D01*
X144221900Y-94202225D01*
X144228659Y-94189846D01*
X144224689Y-94184543D01*
X144222232Y-94183344D01*
X144077948Y-94131967D01*
X144064323Y-94128771D01*
X144044284Y-94126382D01*
X143979011Y-94098455D01*
X143939198Y-94039671D01*
X143933988Y-94015313D01*
X143932359Y-94000790D01*
X143929257Y-93987137D01*
X143878889Y-93842500D01*
X143876976Y-93838509D01*
X143869271Y-93831659D01*
X143860220Y-93835655D01*
X143548684Y-94147192D01*
X143541073Y-94161130D01*
X142857691Y-94161130D01*
X142858926Y-94158868D01*
X142858795Y-94157034D01*
X142854544Y-94150420D01*
X142541825Y-93837701D01*
X142527881Y-93830086D01*
X142499337Y-93832128D01*
X142470916Y-93830933D01*
X142460220Y-93835655D01*
X142148684Y-94147192D01*
X142141073Y-94161130D01*
X141457691Y-94161130D01*
X141458926Y-94158868D01*
X141458795Y-94157034D01*
X141454544Y-94150420D01*
X141141825Y-93837701D01*
X141129445Y-93830941D01*
X141125231Y-93834096D01*
X141073229Y-93976969D01*
X141069933Y-93990591D01*
X141066712Y-94016087D01*
X141038330Y-94081164D01*
X140979270Y-94120565D01*
X140954876Y-94125605D01*
X140945903Y-94126548D01*
X140932238Y-94129553D01*
X140787243Y-94178912D01*
X140779889Y-94182373D01*
X140772003Y-94191121D01*
X132251125Y-94191121D01*
X132240421Y-94183344D01*
X132212094Y-94162763D01*
X132212093Y-94162762D01*
X132206752Y-94158882D01*
X132200724Y-94156198D01*
X132200722Y-94156197D01*
X132038319Y-94083891D01*
X132038318Y-94083891D01*
X132032288Y-94081206D01*
X131938887Y-94061353D01*
X131851944Y-94042872D01*
X131851939Y-94042872D01*
X131845487Y-94041500D01*
X131654513Y-94041500D01*
X131648061Y-94042872D01*
X131648056Y-94042872D01*
X131561112Y-94061353D01*
X131467712Y-94081206D01*
X131461682Y-94083891D01*
X131461681Y-94083891D01*
X131299278Y-94156197D01*
X131299276Y-94156198D01*
X131293248Y-94158882D01*
X131287907Y-94162762D01*
X131287906Y-94162763D01*
X131259579Y-94183344D01*
X131138747Y-94271134D01*
X131010960Y-94413056D01*
X131007659Y-94418774D01*
X130938530Y-94538509D01*
X130915473Y-94578444D01*
X130856458Y-94760072D01*
X130855768Y-94766633D01*
X130855768Y-94766635D01*
X130841112Y-94906080D01*
X130836496Y-94950000D01*
X119508500Y-94950000D01*
X119508500Y-93491121D01*
X141472003Y-93491121D01*
X141475827Y-93499951D01*
X141787188Y-93811312D01*
X141801132Y-93818926D01*
X141802967Y-93818795D01*
X141809577Y-93814547D01*
X142121900Y-93502225D01*
X142127963Y-93491121D01*
X142872003Y-93491121D01*
X142875827Y-93499951D01*
X143187188Y-93811312D01*
X143201132Y-93818926D01*
X143202967Y-93818795D01*
X143209577Y-93814547D01*
X143521900Y-93502225D01*
X143528659Y-93489846D01*
X143524689Y-93484543D01*
X143522232Y-93483344D01*
X143377948Y-93431967D01*
X143364322Y-93428771D01*
X143212229Y-93410635D01*
X143198233Y-93410537D01*
X143045902Y-93426548D01*
X143032238Y-93429553D01*
X142887243Y-93478912D01*
X142879889Y-93482373D01*
X142872003Y-93491121D01*
X142127963Y-93491121D01*
X142128659Y-93489846D01*
X142124689Y-93484543D01*
X142122232Y-93483344D01*
X141977948Y-93431967D01*
X141964322Y-93428771D01*
X141812229Y-93410635D01*
X141798233Y-93410537D01*
X141645902Y-93426548D01*
X141632238Y-93429553D01*
X141487243Y-93478912D01*
X141479889Y-93482373D01*
X141472003Y-93491121D01*
X119508500Y-93491121D01*
X119508500Y-80132703D01*
X121890743Y-80132703D01*
X121891302Y-80136947D01*
X121891302Y-80136951D01*
X121895675Y-80170166D01*
X121928268Y-80417734D01*
X122004129Y-80695036D01*
X122005813Y-80698984D01*
X122040602Y-80780544D01*
X122116923Y-80959476D01*
X122264561Y-81206161D01*
X122444313Y-81430528D01*
X122652851Y-81628423D01*
X122886317Y-81796186D01*
X122890112Y-81798195D01*
X122890113Y-81798196D01*
X122911869Y-81809715D01*
X123140392Y-81930712D01*
X123410373Y-82029511D01*
X123691264Y-82090755D01*
X123719841Y-82093004D01*
X123914282Y-82108307D01*
X123914291Y-82108307D01*
X123916739Y-82108500D01*
X124072271Y-82108500D01*
X124074407Y-82108354D01*
X124074418Y-82108354D01*
X124282548Y-82094165D01*
X124282554Y-82094164D01*
X124286825Y-82093873D01*
X124291020Y-82093004D01*
X124291022Y-82093004D01*
X124427584Y-82064723D01*
X124568342Y-82035574D01*
X124839343Y-81939607D01*
X125094812Y-81807750D01*
X125098313Y-81805289D01*
X125098317Y-81805287D01*
X125212417Y-81725096D01*
X125330023Y-81642441D01*
X125540622Y-81446740D01*
X125722713Y-81224268D01*
X125872927Y-80979142D01*
X125988483Y-80715898D01*
X126067244Y-80439406D01*
X126100637Y-80204771D01*
X126107146Y-80159036D01*
X126107146Y-80159034D01*
X126107751Y-80154784D01*
X126107786Y-80148255D01*
X126109235Y-79871583D01*
X126109235Y-79871576D01*
X126109257Y-79867297D01*
X126071732Y-79582266D01*
X125995871Y-79304964D01*
X125883077Y-79040524D01*
X125735439Y-78793839D01*
X125555687Y-78569472D01*
X125347149Y-78371577D01*
X125113683Y-78203814D01*
X125091843Y-78192250D01*
X125068654Y-78179972D01*
X124859608Y-78069288D01*
X124589627Y-77970489D01*
X124308736Y-77909245D01*
X124277685Y-77906801D01*
X124085718Y-77891693D01*
X124085709Y-77891693D01*
X124083261Y-77891500D01*
X123927729Y-77891500D01*
X123925593Y-77891646D01*
X123925582Y-77891646D01*
X123717452Y-77905835D01*
X123717446Y-77905836D01*
X123713175Y-77906127D01*
X123708980Y-77906996D01*
X123708978Y-77906996D01*
X123572417Y-77935276D01*
X123431658Y-77964426D01*
X123160657Y-78060393D01*
X122905188Y-78192250D01*
X122901687Y-78194711D01*
X122901683Y-78194713D01*
X122891594Y-78201804D01*
X122669977Y-78357559D01*
X122459378Y-78553260D01*
X122277287Y-78775732D01*
X122127073Y-79020858D01*
X122011517Y-79284102D01*
X121932756Y-79560594D01*
X121892249Y-79845216D01*
X121892227Y-79849505D01*
X121892226Y-79849512D01*
X121890765Y-80128417D01*
X121890743Y-80132703D01*
X119508500Y-80132703D01*
X119508500Y-75634500D01*
X119528502Y-75566379D01*
X119582158Y-75519886D01*
X119634500Y-75508500D01*
X168365500Y-75508500D01*
X168433621Y-75528502D01*
G37*
%TD.AperFunction*%
%TD*%
M02*
