M48
; DRILL file {KiCad 6.0.11-2627ca5db0~126~ubuntu20.04.1} date Mon 12 May 2025 21:47:32
; FORMAT={-:-/ absolute / metric / decimal}
; #@! TF.CreationDate,2025-05-12T21:47:32+10:00
; #@! TF.GenerationSoftware,Kicad,Pcbnew,6.0.11-2627ca5db0~126~ubuntu20.04.1
; #@! TF.FileFunction,Plated,1,2,PTH
FMAT,2
METRIC
; #@! TA.AperFunction,Plated,PTH,ComponentDrill
T1C0.200
; #@! TA.AperFunction,Plated,PTH,ViaDrill
T2C0.400
; #@! TA.AperFunction,Plated,PTH,ComponentDrill
T3C0.950
; #@! TA.AperFunction,Plated,PTH,ComponentDrill
T4C1.000
; #@! TA.AperFunction,Plated,PTH,ComponentDrill
T5C1.200
; #@! TA.AperFunction,Plated,PTH,ComponentDrill
T6C1.300
%
G90
G05
T1
X141.1Y-94.86
X141.1Y-96.26
X141.8Y-94.16
X141.8Y-95.56
X141.8Y-96.96
X142.5Y-94.86
X142.5Y-96.26
X143.2Y-94.16
X143.2Y-95.56
X143.2Y-96.96
X143.9Y-94.86
X143.9Y-96.26
T2
X131.75Y-94.95
X133.75Y-88.0
X135.25Y-90.535
X136.75Y-88.0
X138.25Y-104.25
X138.25Y-107.0
X142.25Y-81.25
X142.25Y-83.5
X151.25Y-88.0
X152.75Y-96.885
X152.75Y-98.155
X152.75Y-100.695
X152.75Y-101.965
X154.25Y-88.0
T3
X132.25Y-119.5
X134.75Y-119.5
X137.25Y-119.5
X139.75Y-119.5
X148.25Y-119.5
X150.75Y-119.5
X153.25Y-119.5
X155.75Y-119.5
X163.475Y-96.25
X163.475Y-98.75
X163.475Y-101.25
X163.475Y-103.75
T4
X132.15Y-111.475
X134.69Y-111.475
X137.23Y-111.475
X139.77Y-111.475
X148.2Y-111.5
X150.74Y-111.5
X153.28Y-111.5
X155.82Y-111.5
X159.0Y-96.18
X159.0Y-98.72
X159.0Y-101.26
X159.0Y-103.8
T5
X161.75Y-85.25
X161.75Y-91.75
X161.75Y-108.25
X161.75Y-114.75
X166.25Y-85.25
X166.25Y-91.75
X166.25Y-108.25
X166.25Y-114.75
T6
X152.438Y-81.75
X157.518Y-81.75
T0
M30
