%TF.GenerationSoftware,KiCad,Pcbnew,6.0.11-2627ca5db0~126~ubuntu20.04.1*%
%TF.CreationDate,2025-05-12T21:47:33+10:00*%
%TF.ProjectId,encoder_pcb,656e636f-6465-4725-9f70-63622e6b6963,rev?*%
%TF.SameCoordinates,Original*%
%TF.FileFunction,Legend,Top*%
%TF.FilePolarity,Positive*%
%FSLAX46Y46*%
G04 Gerber Fmt 4.6, Leading zero omitted, Abs format (unit mm)*
G04 Created by KiCad (PCBNEW 6.0.11-2627ca5db0~126~ubuntu20.04.1) date 2025-05-12 21:47:33*
%MOMM*%
%LPD*%
G01*
G04 APERTURE LIST*
%ADD10C,0.150000*%
%ADD11C,0.120000*%
%ADD12C,0.100000*%
%ADD13C,0.200000*%
%ADD14C,0.400000*%
G04 APERTURE END LIST*
D10*
X146833333Y-124452380D02*
X146500000Y-123976190D01*
X146261904Y-124452380D02*
X146261904Y-123452380D01*
X146642857Y-123452380D01*
X146738095Y-123500000D01*
X146785714Y-123547619D01*
X146833333Y-123642857D01*
X146833333Y-123785714D01*
X146785714Y-123880952D01*
X146738095Y-123928571D01*
X146642857Y-123976190D01*
X146261904Y-123976190D01*
X147261904Y-124452380D02*
X147261904Y-123452380D01*
X148261904Y-123500000D02*
X148166666Y-123452380D01*
X148023809Y-123452380D01*
X147880952Y-123500000D01*
X147785714Y-123595238D01*
X147738095Y-123690476D01*
X147690476Y-123880952D01*
X147690476Y-124023809D01*
X147738095Y-124214285D01*
X147785714Y-124309523D01*
X147880952Y-124404761D01*
X148023809Y-124452380D01*
X148119047Y-124452380D01*
X148261904Y-124404761D01*
X148309523Y-124357142D01*
X148309523Y-124023809D01*
X148119047Y-124023809D01*
X148738095Y-124452380D02*
X148738095Y-123452380D01*
X148738095Y-123928571D02*
X149309523Y-123928571D01*
X149309523Y-124452380D02*
X149309523Y-123452380D01*
X149642857Y-123452380D02*
X150214285Y-123452380D01*
X149928571Y-124452380D02*
X149928571Y-123452380D01*
X151309523Y-123928571D02*
X151642857Y-123928571D01*
X151785714Y-124452380D02*
X151309523Y-124452380D01*
X151309523Y-123452380D01*
X151785714Y-123452380D01*
X152214285Y-124452380D02*
X152214285Y-123452380D01*
X152785714Y-124452380D01*
X152785714Y-123452380D01*
X153833333Y-124357142D02*
X153785714Y-124404761D01*
X153642857Y-124452380D01*
X153547619Y-124452380D01*
X153404761Y-124404761D01*
X153309523Y-124309523D01*
X153261904Y-124214285D01*
X153214285Y-124023809D01*
X153214285Y-123880952D01*
X153261904Y-123690476D01*
X153309523Y-123595238D01*
X153404761Y-123500000D01*
X153547619Y-123452380D01*
X153642857Y-123452380D01*
X153785714Y-123500000D01*
X153833333Y-123547619D01*
X154452380Y-123452380D02*
X154642857Y-123452380D01*
X154738095Y-123500000D01*
X154833333Y-123595238D01*
X154880952Y-123785714D01*
X154880952Y-124119047D01*
X154833333Y-124309523D01*
X154738095Y-124404761D01*
X154642857Y-124452380D01*
X154452380Y-124452380D01*
X154357142Y-124404761D01*
X154261904Y-124309523D01*
X154214285Y-124119047D01*
X154214285Y-123785714D01*
X154261904Y-123595238D01*
X154357142Y-123500000D01*
X154452380Y-123452380D01*
X155309523Y-124452380D02*
X155309523Y-123452380D01*
X155547619Y-123452380D01*
X155690476Y-123500000D01*
X155785714Y-123595238D01*
X155833333Y-123690476D01*
X155880952Y-123880952D01*
X155880952Y-124023809D01*
X155833333Y-124214285D01*
X155785714Y-124309523D01*
X155690476Y-124404761D01*
X155547619Y-124452380D01*
X155309523Y-124452380D01*
X156309523Y-123928571D02*
X156642857Y-123928571D01*
X156785714Y-124452380D02*
X156309523Y-124452380D01*
X156309523Y-123452380D01*
X156785714Y-123452380D01*
X157785714Y-124452380D02*
X157452380Y-123976190D01*
X157214285Y-124452380D02*
X157214285Y-123452380D01*
X157595238Y-123452380D01*
X157690476Y-123500000D01*
X157738095Y-123547619D01*
X157785714Y-123642857D01*
X157785714Y-123785714D01*
X157738095Y-123880952D01*
X157690476Y-123928571D01*
X157595238Y-123976190D01*
X157214285Y-123976190D01*
X131214285Y-124452380D02*
X130738095Y-124452380D01*
X130738095Y-123452380D01*
X131547619Y-123928571D02*
X131880952Y-123928571D01*
X132023809Y-124452380D02*
X131547619Y-124452380D01*
X131547619Y-123452380D01*
X132023809Y-123452380D01*
X132785714Y-123928571D02*
X132452380Y-123928571D01*
X132452380Y-124452380D02*
X132452380Y-123452380D01*
X132928571Y-123452380D01*
X133166666Y-123452380D02*
X133738095Y-123452380D01*
X133452380Y-124452380D02*
X133452380Y-123452380D01*
X134833333Y-123928571D02*
X135166666Y-123928571D01*
X135309523Y-124452380D02*
X134833333Y-124452380D01*
X134833333Y-123452380D01*
X135309523Y-123452380D01*
X135738095Y-124452380D02*
X135738095Y-123452380D01*
X136309523Y-124452380D01*
X136309523Y-123452380D01*
X137357142Y-124357142D02*
X137309523Y-124404761D01*
X137166666Y-124452380D01*
X137071428Y-124452380D01*
X136928571Y-124404761D01*
X136833333Y-124309523D01*
X136785714Y-124214285D01*
X136738095Y-124023809D01*
X136738095Y-123880952D01*
X136785714Y-123690476D01*
X136833333Y-123595238D01*
X136928571Y-123500000D01*
X137071428Y-123452380D01*
X137166666Y-123452380D01*
X137309523Y-123500000D01*
X137357142Y-123547619D01*
X137976190Y-123452380D02*
X138166666Y-123452380D01*
X138261904Y-123500000D01*
X138357142Y-123595238D01*
X138404761Y-123785714D01*
X138404761Y-124119047D01*
X138357142Y-124309523D01*
X138261904Y-124404761D01*
X138166666Y-124452380D01*
X137976190Y-124452380D01*
X137880952Y-124404761D01*
X137785714Y-124309523D01*
X137738095Y-124119047D01*
X137738095Y-123785714D01*
X137785714Y-123595238D01*
X137880952Y-123500000D01*
X137976190Y-123452380D01*
X138833333Y-124452380D02*
X138833333Y-123452380D01*
X139071428Y-123452380D01*
X139214285Y-123500000D01*
X139309523Y-123595238D01*
X139357142Y-123690476D01*
X139404761Y-123880952D01*
X139404761Y-124023809D01*
X139357142Y-124214285D01*
X139309523Y-124309523D01*
X139214285Y-124404761D01*
X139071428Y-124452380D01*
X138833333Y-124452380D01*
X139833333Y-123928571D02*
X140166666Y-123928571D01*
X140309523Y-124452380D02*
X139833333Y-124452380D01*
X139833333Y-123452380D01*
X140309523Y-123452380D01*
X141309523Y-124452380D02*
X140976190Y-123976190D01*
X140738095Y-124452380D02*
X140738095Y-123452380D01*
X141119047Y-123452380D01*
X141214285Y-123500000D01*
X141261904Y-123547619D01*
X141309523Y-123642857D01*
X141309523Y-123785714D01*
X141261904Y-123880952D01*
X141214285Y-123928571D01*
X141119047Y-123976190D01*
X140738095Y-123976190D01*
X153595238Y-77047619D02*
X153261904Y-76047619D01*
X152928571Y-77047619D01*
X152595238Y-76047619D02*
X152595238Y-77047619D01*
X152119047Y-76047619D02*
X152119047Y-77047619D01*
X151547619Y-76047619D01*
X151547619Y-77047619D01*
X155533452Y-98202380D02*
X156104880Y-98202380D01*
X155819166Y-99202380D02*
X155819166Y-98202380D01*
X156342976Y-98202380D02*
X157009642Y-99202380D01*
X157009642Y-98202380D02*
X156342976Y-99202380D01*
X139628571Y-109081071D02*
X139676190Y-108938214D01*
X139723809Y-108890595D01*
X139819047Y-108842976D01*
X139961904Y-108842976D01*
X140057142Y-108890595D01*
X140104761Y-108938214D01*
X140152380Y-109033452D01*
X140152380Y-109414404D01*
X139152380Y-109414404D01*
X139152380Y-109081071D01*
X139200000Y-108985833D01*
X139247619Y-108938214D01*
X139342857Y-108890595D01*
X139438095Y-108890595D01*
X139533333Y-108938214D01*
X139580952Y-108985833D01*
X139628571Y-109081071D01*
X139628571Y-109414404D01*
X154866785Y-103250000D02*
X154771547Y-103202380D01*
X154628690Y-103202380D01*
X154485833Y-103250000D01*
X154390595Y-103345238D01*
X154342976Y-103440476D01*
X154295357Y-103630952D01*
X154295357Y-103773809D01*
X154342976Y-103964285D01*
X154390595Y-104059523D01*
X154485833Y-104154761D01*
X154628690Y-104202380D01*
X154723928Y-104202380D01*
X154866785Y-104154761D01*
X154914404Y-104107142D01*
X154914404Y-103773809D01*
X154723928Y-103773809D01*
X155342976Y-104202380D02*
X155342976Y-103202380D01*
X155914404Y-104202380D01*
X155914404Y-103202380D01*
X156390595Y-104202380D02*
X156390595Y-103202380D01*
X156628690Y-103202380D01*
X156771547Y-103250000D01*
X156866785Y-103345238D01*
X156914404Y-103440476D01*
X156962023Y-103630952D01*
X156962023Y-103773809D01*
X156914404Y-103964285D01*
X156866785Y-104059523D01*
X156771547Y-104154761D01*
X156628690Y-104202380D01*
X156390595Y-104202380D01*
X138054136Y-88452380D02*
X138625565Y-88452380D01*
X138214851Y-89452380D02*
X138339851Y-88452380D01*
X138833898Y-89452380D02*
X138958898Y-88452380D01*
X139262470Y-89452380D02*
X139327946Y-88928571D01*
X139292232Y-88833333D01*
X139202946Y-88785714D01*
X139060089Y-88785714D01*
X138958898Y-88833333D01*
X138905327Y-88880952D01*
X140167232Y-89452380D02*
X140232708Y-88928571D01*
X140196994Y-88833333D01*
X140107708Y-88785714D01*
X139917232Y-88785714D01*
X139816041Y-88833333D01*
X140173184Y-89404761D02*
X140071994Y-89452380D01*
X139833898Y-89452380D01*
X139744613Y-89404761D01*
X139708898Y-89309523D01*
X139720803Y-89214285D01*
X139780327Y-89119047D01*
X139881517Y-89071428D01*
X140119613Y-89071428D01*
X140220803Y-89023809D01*
X140726755Y-88785714D02*
X140643422Y-89452380D01*
X140714851Y-88880952D02*
X140768422Y-88833333D01*
X140869613Y-88785714D01*
X141012470Y-88785714D01*
X141101755Y-88833333D01*
X141137470Y-88928571D01*
X141071994Y-89452380D01*
X141548184Y-89452380D02*
X141673184Y-88452380D01*
X141691041Y-89071428D02*
X141929136Y-89452380D01*
X142012470Y-88785714D02*
X141583898Y-89166666D01*
X142316041Y-89404761D02*
X142405327Y-89452380D01*
X142595803Y-89452380D01*
X142696994Y-89404761D01*
X142756517Y-89309523D01*
X142762470Y-89261904D01*
X142726755Y-89166666D01*
X142637470Y-89119047D01*
X142494613Y-89119047D01*
X142405327Y-89071428D01*
X142369613Y-88976190D01*
X142375565Y-88928571D01*
X142435089Y-88833333D01*
X142536279Y-88785714D01*
X142679136Y-88785714D01*
X142768422Y-88833333D01*
X143929136Y-89452380D02*
X144054136Y-88452380D01*
X144435089Y-88452380D01*
X144524375Y-88500000D01*
X144566041Y-88547619D01*
X144601755Y-88642857D01*
X144583898Y-88785714D01*
X144524375Y-88880952D01*
X144470803Y-88928571D01*
X144369613Y-88976190D01*
X143988660Y-88976190D01*
X145512470Y-89357142D02*
X145458898Y-89404761D01*
X145310089Y-89452380D01*
X145214851Y-89452380D01*
X145077946Y-89404761D01*
X144994613Y-89309523D01*
X144958898Y-89214285D01*
X144935089Y-89023809D01*
X144952946Y-88880952D01*
X145024375Y-88690476D01*
X145083898Y-88595238D01*
X145191041Y-88500000D01*
X145339851Y-88452380D01*
X145435089Y-88452380D01*
X145571994Y-88500000D01*
X145613660Y-88547619D01*
X146327946Y-88928571D02*
X146464851Y-88976190D01*
X146506517Y-89023809D01*
X146542232Y-89119047D01*
X146524375Y-89261904D01*
X146464851Y-89357142D01*
X146411279Y-89404761D01*
X146310089Y-89452380D01*
X145929136Y-89452380D01*
X146054136Y-88452380D01*
X146387470Y-88452380D01*
X146476755Y-88500000D01*
X146518422Y-88547619D01*
X146554136Y-88642857D01*
X146542232Y-88738095D01*
X146482708Y-88833333D01*
X146429136Y-88880952D01*
X146327946Y-88928571D01*
X145994613Y-88928571D01*
X146958898Y-88452380D02*
X147071994Y-89452380D01*
X147351755Y-88738095D01*
X147452946Y-89452380D01*
X147816041Y-88452380D01*
X148500565Y-89452380D02*
X148566041Y-88928571D01*
X148530327Y-88833333D01*
X148441041Y-88785714D01*
X148250565Y-88785714D01*
X148149375Y-88833333D01*
X148506517Y-89404761D02*
X148405327Y-89452380D01*
X148167232Y-89452380D01*
X148077946Y-89404761D01*
X148042232Y-89309523D01*
X148054136Y-89214285D01*
X148113660Y-89119047D01*
X148214851Y-89071428D01*
X148452946Y-89071428D01*
X148554136Y-89023809D01*
X148964851Y-88785714D02*
X149119613Y-89452380D01*
X149441041Y-88785714D02*
X149119613Y-89452380D01*
X148994613Y-89690476D01*
X148941041Y-89738095D01*
X148839851Y-89785714D01*
X149750565Y-89357142D02*
X149792232Y-89404761D01*
X149738660Y-89452380D01*
X149696994Y-89404761D01*
X149750565Y-89357142D01*
X149738660Y-89452380D01*
X149786279Y-89071428D02*
X149810089Y-88500000D01*
X149863660Y-88452380D01*
X149905327Y-88500000D01*
X149786279Y-89071428D01*
X149863660Y-88452380D01*
X134152380Y-109509642D02*
X134152380Y-108890595D01*
X134533333Y-109223928D01*
X134533333Y-109081071D01*
X134580952Y-108985833D01*
X134628571Y-108938214D01*
X134723809Y-108890595D01*
X134961904Y-108890595D01*
X135057142Y-108938214D01*
X135104761Y-108985833D01*
X135152380Y-109081071D01*
X135152380Y-109366785D01*
X135104761Y-109462023D01*
X135057142Y-109509642D01*
X134152380Y-108604880D02*
X135152380Y-108271547D01*
X134152380Y-107938214D01*
X134152380Y-107700119D02*
X134152380Y-107081071D01*
X134533333Y-107414404D01*
X134533333Y-107271547D01*
X134580952Y-107176309D01*
X134628571Y-107128690D01*
X134723809Y-107081071D01*
X134961904Y-107081071D01*
X135057142Y-107128690D01*
X135104761Y-107176309D01*
X135152380Y-107271547D01*
X135152380Y-107557261D01*
X135104761Y-107652500D01*
X135057142Y-107700119D01*
X137366666Y-109462023D02*
X137366666Y-108985833D01*
X137652380Y-109557261D02*
X136652380Y-109223928D01*
X137652380Y-108890595D01*
X147700000Y-108890595D02*
X147652380Y-108985833D01*
X147652380Y-109128690D01*
X147700000Y-109271547D01*
X147795238Y-109366785D01*
X147890476Y-109414404D01*
X148080952Y-109462023D01*
X148223809Y-109462023D01*
X148414285Y-109414404D01*
X148509523Y-109366785D01*
X148604761Y-109271547D01*
X148652380Y-109128690D01*
X148652380Y-109033452D01*
X148604761Y-108890595D01*
X148557142Y-108842976D01*
X148223809Y-108842976D01*
X148223809Y-109033452D01*
X148652380Y-108414404D02*
X147652380Y-108414404D01*
X148652380Y-107842976D01*
X147652380Y-107842976D01*
X148652380Y-107366785D02*
X147652380Y-107366785D01*
X147652380Y-107128690D01*
X147700000Y-106985833D01*
X147795238Y-106890595D01*
X147890476Y-106842976D01*
X148080952Y-106795357D01*
X148223809Y-106795357D01*
X148414285Y-106842976D01*
X148509523Y-106890595D01*
X148604761Y-106985833D01*
X148652380Y-107128690D01*
X148652380Y-107366785D01*
X168404761Y-102559523D02*
X168452380Y-102416666D01*
X168452380Y-102178571D01*
X168404761Y-102083333D01*
X168357142Y-102035714D01*
X168261904Y-101988095D01*
X168166666Y-101988095D01*
X168071428Y-102035714D01*
X168023809Y-102083333D01*
X167976190Y-102178571D01*
X167928571Y-102369047D01*
X167880952Y-102464285D01*
X167833333Y-102511904D01*
X167738095Y-102559523D01*
X167642857Y-102559523D01*
X167547619Y-102511904D01*
X167500000Y-102464285D01*
X167452380Y-102369047D01*
X167452380Y-102130952D01*
X167500000Y-101988095D01*
X167928571Y-101559523D02*
X167928571Y-101226190D01*
X168452380Y-101083333D02*
X168452380Y-101559523D01*
X167452380Y-101559523D01*
X167452380Y-101083333D01*
X168452380Y-100083333D02*
X167976190Y-100416666D01*
X168452380Y-100654761D02*
X167452380Y-100654761D01*
X167452380Y-100273809D01*
X167500000Y-100178571D01*
X167547619Y-100130952D01*
X167642857Y-100083333D01*
X167785714Y-100083333D01*
X167880952Y-100130952D01*
X167928571Y-100178571D01*
X167976190Y-100273809D01*
X167976190Y-100654761D01*
X168452380Y-99654761D02*
X167452380Y-99654761D01*
X168166666Y-99226190D02*
X168166666Y-98750000D01*
X168452380Y-99321428D02*
X167452380Y-98988095D01*
X168452380Y-98654761D01*
X168452380Y-97845238D02*
X168452380Y-98321428D01*
X167452380Y-98321428D01*
X153416666Y-109462023D02*
X153416666Y-108985833D01*
X153702380Y-109557261D02*
X152702380Y-109223928D01*
X153702380Y-108890595D01*
X121904761Y-110690476D02*
X121952380Y-110547619D01*
X121952380Y-110309523D01*
X121904761Y-110214285D01*
X121857142Y-110166666D01*
X121761904Y-110119047D01*
X121666666Y-110119047D01*
X121571428Y-110166666D01*
X121523809Y-110214285D01*
X121476190Y-110309523D01*
X121428571Y-110500000D01*
X121380952Y-110595238D01*
X121333333Y-110642857D01*
X121238095Y-110690476D01*
X121142857Y-110690476D01*
X121047619Y-110642857D01*
X121000000Y-110595238D01*
X120952380Y-110500000D01*
X120952380Y-110261904D01*
X121000000Y-110119047D01*
X121952380Y-109214285D02*
X121952380Y-109690476D01*
X120952380Y-109690476D01*
X121666666Y-108928571D02*
X121666666Y-108452380D01*
X121952380Y-109023809D02*
X120952380Y-108690476D01*
X121952380Y-108357142D01*
X121952380Y-108023809D02*
X120952380Y-108023809D01*
X121666666Y-107690476D01*
X120952380Y-107357142D01*
X121952380Y-107357142D01*
X121428571Y-106547619D02*
X121476190Y-106404761D01*
X121523809Y-106357142D01*
X121619047Y-106309523D01*
X121761904Y-106309523D01*
X121857142Y-106357142D01*
X121904761Y-106404761D01*
X121952380Y-106500000D01*
X121952380Y-106880952D01*
X120952380Y-106880952D01*
X120952380Y-106547619D01*
X121000000Y-106452380D01*
X121047619Y-106404761D01*
X121142857Y-106357142D01*
X121238095Y-106357142D01*
X121333333Y-106404761D01*
X121380952Y-106452380D01*
X121428571Y-106547619D01*
X121428571Y-106880952D01*
X120952380Y-105690476D02*
X120952380Y-105500000D01*
X121000000Y-105404761D01*
X121095238Y-105309523D01*
X121285714Y-105261904D01*
X121619047Y-105261904D01*
X121809523Y-105309523D01*
X121904761Y-105404761D01*
X121952380Y-105500000D01*
X121952380Y-105690476D01*
X121904761Y-105785714D01*
X121809523Y-105880952D01*
X121619047Y-105928571D01*
X121285714Y-105928571D01*
X121095238Y-105880952D01*
X121000000Y-105785714D01*
X120952380Y-105690476D01*
X120952380Y-104976190D02*
X120952380Y-104404761D01*
X121952380Y-104690476D02*
X120952380Y-104690476D01*
X121428571Y-103309523D02*
X121428571Y-102976190D01*
X121952380Y-102833333D02*
X121952380Y-103309523D01*
X120952380Y-103309523D01*
X120952380Y-102833333D01*
X121285714Y-102404761D02*
X121952380Y-102404761D01*
X121380952Y-102404761D02*
X121333333Y-102357142D01*
X121285714Y-102261904D01*
X121285714Y-102119047D01*
X121333333Y-102023809D01*
X121428571Y-101976190D01*
X121952380Y-101976190D01*
X121904761Y-101071428D02*
X121952380Y-101166666D01*
X121952380Y-101357142D01*
X121904761Y-101452380D01*
X121857142Y-101500000D01*
X121761904Y-101547619D01*
X121476190Y-101547619D01*
X121380952Y-101500000D01*
X121333333Y-101452380D01*
X121285714Y-101357142D01*
X121285714Y-101166666D01*
X121333333Y-101071428D01*
X121952380Y-100500000D02*
X121904761Y-100595238D01*
X121857142Y-100642857D01*
X121761904Y-100690476D01*
X121476190Y-100690476D01*
X121380952Y-100642857D01*
X121333333Y-100595238D01*
X121285714Y-100500000D01*
X121285714Y-100357142D01*
X121333333Y-100261904D01*
X121380952Y-100214285D01*
X121476190Y-100166666D01*
X121761904Y-100166666D01*
X121857142Y-100214285D01*
X121904761Y-100261904D01*
X121952380Y-100357142D01*
X121952380Y-100500000D01*
X121952380Y-99309523D02*
X120952380Y-99309523D01*
X121904761Y-99309523D02*
X121952380Y-99404761D01*
X121952380Y-99595238D01*
X121904761Y-99690476D01*
X121857142Y-99738095D01*
X121761904Y-99785714D01*
X121476190Y-99785714D01*
X121380952Y-99738095D01*
X121333333Y-99690476D01*
X121285714Y-99595238D01*
X121285714Y-99404761D01*
X121333333Y-99309523D01*
X121904761Y-98452380D02*
X121952380Y-98547619D01*
X121952380Y-98738095D01*
X121904761Y-98833333D01*
X121809523Y-98880952D01*
X121428571Y-98880952D01*
X121333333Y-98833333D01*
X121285714Y-98738095D01*
X121285714Y-98547619D01*
X121333333Y-98452380D01*
X121428571Y-98404761D01*
X121523809Y-98404761D01*
X121619047Y-98880952D01*
X121952380Y-97976190D02*
X121285714Y-97976190D01*
X121476190Y-97976190D02*
X121380952Y-97928571D01*
X121333333Y-97880952D01*
X121285714Y-97785714D01*
X121285714Y-97690476D01*
X121952380Y-96595238D02*
X120952380Y-96595238D01*
X121952380Y-96023809D01*
X120952380Y-96023809D01*
X121952380Y-95404761D02*
X121904761Y-95500000D01*
X121857142Y-95547619D01*
X121761904Y-95595238D01*
X121476190Y-95595238D01*
X121380952Y-95547619D01*
X121333333Y-95500000D01*
X121285714Y-95404761D01*
X121285714Y-95261904D01*
X121333333Y-95166666D01*
X121380952Y-95119047D01*
X121476190Y-95071428D01*
X121761904Y-95071428D01*
X121857142Y-95119047D01*
X121904761Y-95166666D01*
X121952380Y-95261904D01*
X121952380Y-95404761D01*
X121952380Y-94214285D02*
X120952380Y-94214285D01*
X121904761Y-94214285D02*
X121952380Y-94309523D01*
X121952380Y-94500000D01*
X121904761Y-94595238D01*
X121857142Y-94642857D01*
X121761904Y-94690476D01*
X121476190Y-94690476D01*
X121380952Y-94642857D01*
X121333333Y-94595238D01*
X121285714Y-94500000D01*
X121285714Y-94309523D01*
X121333333Y-94214285D01*
X121904761Y-93357142D02*
X121952380Y-93452380D01*
X121952380Y-93642857D01*
X121904761Y-93738095D01*
X121809523Y-93785714D01*
X121428571Y-93785714D01*
X121333333Y-93738095D01*
X121285714Y-93642857D01*
X121285714Y-93452380D01*
X121333333Y-93357142D01*
X121428571Y-93309523D01*
X121523809Y-93309523D01*
X121619047Y-93785714D01*
X120952380Y-92261904D02*
X121952380Y-91928571D01*
X120952380Y-91595238D01*
X121952380Y-90738095D02*
X121952380Y-91309523D01*
X121952380Y-91023809D02*
X120952380Y-91023809D01*
X121095238Y-91119047D01*
X121190476Y-91214285D01*
X121238095Y-91309523D01*
X121857142Y-90309523D02*
X121904761Y-90261904D01*
X121952380Y-90309523D01*
X121904761Y-90357142D01*
X121857142Y-90309523D01*
X121952380Y-90309523D01*
X120952380Y-89642857D02*
X120952380Y-89547619D01*
X121000000Y-89452380D01*
X121047619Y-89404761D01*
X121142857Y-89357142D01*
X121333333Y-89309523D01*
X121571428Y-89309523D01*
X121761904Y-89357142D01*
X121857142Y-89404761D01*
X121904761Y-89452380D01*
X121952380Y-89547619D01*
X121952380Y-89642857D01*
X121904761Y-89738095D01*
X121857142Y-89785714D01*
X121761904Y-89833333D01*
X121571428Y-89880952D01*
X121333333Y-89880952D01*
X121142857Y-89833333D01*
X121047619Y-89785714D01*
X121000000Y-89738095D01*
X120952380Y-89642857D01*
X156009642Y-96702380D02*
X155676309Y-96226190D01*
X155438214Y-96702380D02*
X155438214Y-95702380D01*
X155819166Y-95702380D01*
X155914404Y-95750000D01*
X155962023Y-95797619D01*
X156009642Y-95892857D01*
X156009642Y-96035714D01*
X155962023Y-96130952D01*
X155914404Y-96178571D01*
X155819166Y-96226190D01*
X155438214Y-96226190D01*
X156342976Y-95702380D02*
X157009642Y-96702380D01*
X157009642Y-95702380D02*
X156342976Y-96702380D01*
X155678571Y-109081071D02*
X155726190Y-108938214D01*
X155773809Y-108890595D01*
X155869047Y-108842976D01*
X156011904Y-108842976D01*
X156107142Y-108890595D01*
X156154761Y-108938214D01*
X156202380Y-109033452D01*
X156202380Y-109414404D01*
X155202380Y-109414404D01*
X155202380Y-109081071D01*
X155250000Y-108985833D01*
X155297619Y-108938214D01*
X155392857Y-108890595D01*
X155488095Y-108890595D01*
X155583333Y-108938214D01*
X155630952Y-108985833D01*
X155678571Y-109081071D01*
X155678571Y-109414404D01*
X131650000Y-108890595D02*
X131602380Y-108985833D01*
X131602380Y-109128690D01*
X131650000Y-109271547D01*
X131745238Y-109366785D01*
X131840476Y-109414404D01*
X132030952Y-109462023D01*
X132173809Y-109462023D01*
X132364285Y-109414404D01*
X132459523Y-109366785D01*
X132554761Y-109271547D01*
X132602380Y-109128690D01*
X132602380Y-109033452D01*
X132554761Y-108890595D01*
X132507142Y-108842976D01*
X132173809Y-108842976D01*
X132173809Y-109033452D01*
X132602380Y-108414404D02*
X131602380Y-108414404D01*
X132602380Y-107842976D01*
X131602380Y-107842976D01*
X132602380Y-107366785D02*
X131602380Y-107366785D01*
X131602380Y-107128690D01*
X131650000Y-106985833D01*
X131745238Y-106890595D01*
X131840476Y-106842976D01*
X132030952Y-106795357D01*
X132173809Y-106795357D01*
X132364285Y-106842976D01*
X132459523Y-106890595D01*
X132554761Y-106985833D01*
X132602380Y-107128690D01*
X132602380Y-107366785D01*
X154866785Y-100702380D02*
X155200119Y-101702380D01*
X155533452Y-100702380D01*
X155866785Y-101702380D02*
X155866785Y-100702380D01*
X156342976Y-101702380D02*
X156342976Y-100702380D01*
X156914404Y-101702380D01*
X156914404Y-100702380D01*
X158511904Y-77000000D02*
X158607142Y-77047619D01*
X158750000Y-77047619D01*
X158892857Y-77000000D01*
X158988095Y-76904761D01*
X159035714Y-76809523D01*
X159083333Y-76619047D01*
X159083333Y-76476190D01*
X159035714Y-76285714D01*
X158988095Y-76190476D01*
X158892857Y-76095238D01*
X158750000Y-76047619D01*
X158654761Y-76047619D01*
X158511904Y-76095238D01*
X158464285Y-76142857D01*
X158464285Y-76476190D01*
X158654761Y-76476190D01*
X158035714Y-76047619D02*
X158035714Y-77047619D01*
X157464285Y-76047619D01*
X157464285Y-77047619D01*
X156988095Y-76047619D02*
X156988095Y-77047619D01*
X156750000Y-77047619D01*
X156607142Y-77000000D01*
X156511904Y-76904761D01*
X156464285Y-76809523D01*
X156416666Y-76619047D01*
X156416666Y-76476190D01*
X156464285Y-76285714D01*
X156511904Y-76190476D01*
X156607142Y-76095238D01*
X156750000Y-76047619D01*
X156988095Y-76047619D01*
X150202380Y-109509642D02*
X150202380Y-108890595D01*
X150583333Y-109223928D01*
X150583333Y-109081071D01*
X150630952Y-108985833D01*
X150678571Y-108938214D01*
X150773809Y-108890595D01*
X151011904Y-108890595D01*
X151107142Y-108938214D01*
X151154761Y-108985833D01*
X151202380Y-109081071D01*
X151202380Y-109366785D01*
X151154761Y-109462023D01*
X151107142Y-109509642D01*
X150202380Y-108604880D02*
X151202380Y-108271547D01*
X150202380Y-107938214D01*
X150202380Y-107700119D02*
X150202380Y-107081071D01*
X150583333Y-107414404D01*
X150583333Y-107271547D01*
X150630952Y-107176309D01*
X150678571Y-107128690D01*
X150773809Y-107081071D01*
X151011904Y-107081071D01*
X151107142Y-107128690D01*
X151154761Y-107176309D01*
X151202380Y-107271547D01*
X151202380Y-107557261D01*
X151154761Y-107652500D01*
X151107142Y-107700119D01*
%TO.C,D2*%
X128711904Y-115452380D02*
X128711904Y-114452380D01*
X128950000Y-114452380D01*
X129092857Y-114500000D01*
X129188095Y-114595238D01*
X129235714Y-114690476D01*
X129283333Y-114880952D01*
X129283333Y-115023809D01*
X129235714Y-115214285D01*
X129188095Y-115309523D01*
X129092857Y-115404761D01*
X128950000Y-115452380D01*
X128711904Y-115452380D01*
X129664285Y-114547619D02*
X129711904Y-114500000D01*
X129807142Y-114452380D01*
X130045238Y-114452380D01*
X130140476Y-114500000D01*
X130188095Y-114547619D01*
X130235714Y-114642857D01*
X130235714Y-114738095D01*
X130188095Y-114880952D01*
X129616666Y-115452380D01*
X130235714Y-115452380D01*
%TO.C,D3*%
X157761904Y-115452380D02*
X157761904Y-114452380D01*
X158000000Y-114452380D01*
X158142857Y-114500000D01*
X158238095Y-114595238D01*
X158285714Y-114690476D01*
X158333333Y-114880952D01*
X158333333Y-115023809D01*
X158285714Y-115214285D01*
X158238095Y-115309523D01*
X158142857Y-115404761D01*
X158000000Y-115452380D01*
X157761904Y-115452380D01*
X158666666Y-114452380D02*
X159285714Y-114452380D01*
X158952380Y-114833333D01*
X159095238Y-114833333D01*
X159190476Y-114880952D01*
X159238095Y-114928571D01*
X159285714Y-115023809D01*
X159285714Y-115261904D01*
X159238095Y-115357142D01*
X159190476Y-115404761D01*
X159095238Y-115452380D01*
X158809523Y-115452380D01*
X158714285Y-115404761D01*
X158666666Y-115357142D01*
%TO.C,U1*%
X135658095Y-85202380D02*
X135658095Y-86011904D01*
X135705714Y-86107142D01*
X135753333Y-86154761D01*
X135848571Y-86202380D01*
X136039047Y-86202380D01*
X136134285Y-86154761D01*
X136181904Y-86107142D01*
X136229523Y-86011904D01*
X136229523Y-85202380D01*
X137229523Y-86202380D02*
X136658095Y-86202380D01*
X136943809Y-86202380D02*
X136943809Y-85202380D01*
X136848571Y-85345238D01*
X136753333Y-85440476D01*
X136658095Y-85488095D01*
%TO.C,D1*%
X130202380Y-102988095D02*
X129202380Y-102988095D01*
X129202380Y-102750000D01*
X129250000Y-102607142D01*
X129345238Y-102511904D01*
X129440476Y-102464285D01*
X129630952Y-102416666D01*
X129773809Y-102416666D01*
X129964285Y-102464285D01*
X130059523Y-102511904D01*
X130154761Y-102607142D01*
X130202380Y-102750000D01*
X130202380Y-102988095D01*
X130202380Y-101464285D02*
X130202380Y-102035714D01*
X130202380Y-101750000D02*
X129202380Y-101750000D01*
X129345238Y-101845238D01*
X129440476Y-101940476D01*
X129488095Y-102035714D01*
%TO.C,C3*%
X146833333Y-85157142D02*
X146785714Y-85204761D01*
X146642857Y-85252380D01*
X146547619Y-85252380D01*
X146404761Y-85204761D01*
X146309523Y-85109523D01*
X146261904Y-85014285D01*
X146214285Y-84823809D01*
X146214285Y-84680952D01*
X146261904Y-84490476D01*
X146309523Y-84395238D01*
X146404761Y-84300000D01*
X146547619Y-84252380D01*
X146642857Y-84252380D01*
X146785714Y-84300000D01*
X146833333Y-84347619D01*
X147166666Y-84252380D02*
X147785714Y-84252380D01*
X147452380Y-84633333D01*
X147595238Y-84633333D01*
X147690476Y-84680952D01*
X147738095Y-84728571D01*
X147785714Y-84823809D01*
X147785714Y-85061904D01*
X147738095Y-85157142D01*
X147690476Y-85204761D01*
X147595238Y-85252380D01*
X147309523Y-85252380D01*
X147214285Y-85204761D01*
X147166666Y-85157142D01*
%TO.C,R1*%
X130202380Y-90966666D02*
X129726190Y-91300000D01*
X130202380Y-91538095D02*
X129202380Y-91538095D01*
X129202380Y-91157142D01*
X129250000Y-91061904D01*
X129297619Y-91014285D01*
X129392857Y-90966666D01*
X129535714Y-90966666D01*
X129630952Y-91014285D01*
X129678571Y-91061904D01*
X129726190Y-91157142D01*
X129726190Y-91538095D01*
X130202380Y-90014285D02*
X130202380Y-90585714D01*
X130202380Y-90300000D02*
X129202380Y-90300000D01*
X129345238Y-90395238D01*
X129440476Y-90490476D01*
X129488095Y-90585714D01*
%TO.C,S2*%
X164404761Y-112261904D02*
X164452380Y-112119047D01*
X164452380Y-111880952D01*
X164404761Y-111785714D01*
X164357142Y-111738095D01*
X164261904Y-111690476D01*
X164166666Y-111690476D01*
X164071428Y-111738095D01*
X164023809Y-111785714D01*
X163976190Y-111880952D01*
X163928571Y-112071428D01*
X163880952Y-112166666D01*
X163833333Y-112214285D01*
X163738095Y-112261904D01*
X163642857Y-112261904D01*
X163547619Y-112214285D01*
X163500000Y-112166666D01*
X163452380Y-112071428D01*
X163452380Y-111833333D01*
X163500000Y-111690476D01*
X163547619Y-111309523D02*
X163500000Y-111261904D01*
X163452380Y-111166666D01*
X163452380Y-110928571D01*
X163500000Y-110833333D01*
X163547619Y-110785714D01*
X163642857Y-110738095D01*
X163738095Y-110738095D01*
X163880952Y-110785714D01*
X164452380Y-111357142D01*
X164452380Y-110738095D01*
X159952380Y-113285714D02*
X158952380Y-113285714D01*
X158952380Y-112904761D01*
X159000000Y-112809523D01*
X159047619Y-112761904D01*
X159142857Y-112714285D01*
X159285714Y-112714285D01*
X159380952Y-112761904D01*
X159428571Y-112809523D01*
X159476190Y-112904761D01*
X159476190Y-113285714D01*
X159952380Y-111714285D02*
X159476190Y-112047619D01*
X159952380Y-112285714D02*
X158952380Y-112285714D01*
X158952380Y-111904761D01*
X159000000Y-111809523D01*
X159047619Y-111761904D01*
X159142857Y-111714285D01*
X159285714Y-111714285D01*
X159380952Y-111761904D01*
X159428571Y-111809523D01*
X159476190Y-111904761D01*
X159476190Y-112285714D01*
X158952380Y-111095238D02*
X158952380Y-110904761D01*
X159000000Y-110809523D01*
X159095238Y-110714285D01*
X159285714Y-110666666D01*
X159619047Y-110666666D01*
X159809523Y-110714285D01*
X159904761Y-110809523D01*
X159952380Y-110904761D01*
X159952380Y-111095238D01*
X159904761Y-111190476D01*
X159809523Y-111285714D01*
X159619047Y-111333333D01*
X159285714Y-111333333D01*
X159095238Y-111285714D01*
X159000000Y-111190476D01*
X158952380Y-111095238D01*
X159000000Y-109714285D02*
X158952380Y-109809523D01*
X158952380Y-109952380D01*
X159000000Y-110095238D01*
X159095238Y-110190476D01*
X159190476Y-110238095D01*
X159380952Y-110285714D01*
X159523809Y-110285714D01*
X159714285Y-110238095D01*
X159809523Y-110190476D01*
X159904761Y-110095238D01*
X159952380Y-109952380D01*
X159952380Y-109857142D01*
X159904761Y-109714285D01*
X159857142Y-109666666D01*
X159523809Y-109666666D01*
X159523809Y-109857142D01*
%TO.C,R2*%
X130202380Y-96666666D02*
X129726190Y-97000000D01*
X130202380Y-97238095D02*
X129202380Y-97238095D01*
X129202380Y-96857142D01*
X129250000Y-96761904D01*
X129297619Y-96714285D01*
X129392857Y-96666666D01*
X129535714Y-96666666D01*
X129630952Y-96714285D01*
X129678571Y-96761904D01*
X129726190Y-96857142D01*
X129726190Y-97238095D01*
X129297619Y-96285714D02*
X129250000Y-96238095D01*
X129202380Y-96142857D01*
X129202380Y-95904761D01*
X129250000Y-95809523D01*
X129297619Y-95761904D01*
X129392857Y-95714285D01*
X129488095Y-95714285D01*
X129630952Y-95761904D01*
X130202380Y-96333333D01*
X130202380Y-95714285D01*
%TO.C,IC1*%
X138273809Y-80452380D02*
X138273809Y-79452380D01*
X139321428Y-80357142D02*
X139273809Y-80404761D01*
X139130952Y-80452380D01*
X139035714Y-80452380D01*
X138892857Y-80404761D01*
X138797619Y-80309523D01*
X138750000Y-80214285D01*
X138702380Y-80023809D01*
X138702380Y-79880952D01*
X138750000Y-79690476D01*
X138797619Y-79595238D01*
X138892857Y-79500000D01*
X139035714Y-79452380D01*
X139130952Y-79452380D01*
X139273809Y-79500000D01*
X139321428Y-79547619D01*
X140273809Y-80452380D02*
X139702380Y-80452380D01*
X139988095Y-80452380D02*
X139988095Y-79452380D01*
X139892857Y-79595238D01*
X139797619Y-79690476D01*
X139702380Y-79738095D01*
%TO.C,S1*%
X164404761Y-89261904D02*
X164452380Y-89119047D01*
X164452380Y-88880952D01*
X164404761Y-88785714D01*
X164357142Y-88738095D01*
X164261904Y-88690476D01*
X164166666Y-88690476D01*
X164071428Y-88738095D01*
X164023809Y-88785714D01*
X163976190Y-88880952D01*
X163928571Y-89071428D01*
X163880952Y-89166666D01*
X163833333Y-89214285D01*
X163738095Y-89261904D01*
X163642857Y-89261904D01*
X163547619Y-89214285D01*
X163500000Y-89166666D01*
X163452380Y-89071428D01*
X163452380Y-88833333D01*
X163500000Y-88690476D01*
X164452380Y-87738095D02*
X164452380Y-88309523D01*
X164452380Y-88023809D02*
X163452380Y-88023809D01*
X163595238Y-88119047D01*
X163690476Y-88214285D01*
X163738095Y-88309523D01*
X159952380Y-89047619D02*
X159476190Y-89380952D01*
X159952380Y-89619047D02*
X158952380Y-89619047D01*
X158952380Y-89238095D01*
X159000000Y-89142857D01*
X159047619Y-89095238D01*
X159142857Y-89047619D01*
X159285714Y-89047619D01*
X159380952Y-89095238D01*
X159428571Y-89142857D01*
X159476190Y-89238095D01*
X159476190Y-89619047D01*
X159904761Y-88666666D02*
X159952380Y-88523809D01*
X159952380Y-88285714D01*
X159904761Y-88190476D01*
X159857142Y-88142857D01*
X159761904Y-88095238D01*
X159666666Y-88095238D01*
X159571428Y-88142857D01*
X159523809Y-88190476D01*
X159476190Y-88285714D01*
X159428571Y-88476190D01*
X159380952Y-88571428D01*
X159333333Y-88619047D01*
X159238095Y-88666666D01*
X159142857Y-88666666D01*
X159047619Y-88619047D01*
X159000000Y-88571428D01*
X158952380Y-88476190D01*
X158952380Y-88238095D01*
X159000000Y-88095238D01*
X158952380Y-87809523D02*
X158952380Y-87238095D01*
X159952380Y-87523809D02*
X158952380Y-87523809D01*
%TO.C,C2*%
X126583333Y-86857142D02*
X126535714Y-86904761D01*
X126392857Y-86952380D01*
X126297619Y-86952380D01*
X126154761Y-86904761D01*
X126059523Y-86809523D01*
X126011904Y-86714285D01*
X125964285Y-86523809D01*
X125964285Y-86380952D01*
X126011904Y-86190476D01*
X126059523Y-86095238D01*
X126154761Y-86000000D01*
X126297619Y-85952380D01*
X126392857Y-85952380D01*
X126535714Y-86000000D01*
X126583333Y-86047619D01*
X126964285Y-86047619D02*
X127011904Y-86000000D01*
X127107142Y-85952380D01*
X127345238Y-85952380D01*
X127440476Y-86000000D01*
X127488095Y-86047619D01*
X127535714Y-86142857D01*
X127535714Y-86238095D01*
X127488095Y-86380952D01*
X126916666Y-86952380D01*
X127535714Y-86952380D01*
%TO.C,R3*%
X141783333Y-115452380D02*
X141450000Y-114976190D01*
X141211904Y-115452380D02*
X141211904Y-114452380D01*
X141592857Y-114452380D01*
X141688095Y-114500000D01*
X141735714Y-114547619D01*
X141783333Y-114642857D01*
X141783333Y-114785714D01*
X141735714Y-114880952D01*
X141688095Y-114928571D01*
X141592857Y-114976190D01*
X141211904Y-114976190D01*
X142116666Y-114452380D02*
X142735714Y-114452380D01*
X142402380Y-114833333D01*
X142545238Y-114833333D01*
X142640476Y-114880952D01*
X142688095Y-114928571D01*
X142735714Y-115023809D01*
X142735714Y-115261904D01*
X142688095Y-115357142D01*
X142640476Y-115404761D01*
X142545238Y-115452380D01*
X142259523Y-115452380D01*
X142164285Y-115404761D01*
X142116666Y-115357142D01*
%TO.C,C4*%
X146407142Y-78766666D02*
X146454761Y-78814285D01*
X146502380Y-78957142D01*
X146502380Y-79052380D01*
X146454761Y-79195238D01*
X146359523Y-79290476D01*
X146264285Y-79338095D01*
X146073809Y-79385714D01*
X145930952Y-79385714D01*
X145740476Y-79338095D01*
X145645238Y-79290476D01*
X145550000Y-79195238D01*
X145502380Y-79052380D01*
X145502380Y-78957142D01*
X145550000Y-78814285D01*
X145597619Y-78766666D01*
X145835714Y-77909523D02*
X146502380Y-77909523D01*
X145454761Y-78147619D02*
X146169047Y-78385714D01*
X146169047Y-77766666D01*
%TO.C,R4*%
X145333333Y-115452380D02*
X145000000Y-114976190D01*
X144761904Y-115452380D02*
X144761904Y-114452380D01*
X145142857Y-114452380D01*
X145238095Y-114500000D01*
X145285714Y-114547619D01*
X145333333Y-114642857D01*
X145333333Y-114785714D01*
X145285714Y-114880952D01*
X145238095Y-114928571D01*
X145142857Y-114976190D01*
X144761904Y-114976190D01*
X146190476Y-114785714D02*
X146190476Y-115452380D01*
X145952380Y-114404761D02*
X145714285Y-115119047D01*
X146333333Y-115119047D01*
%TO.C,C1*%
X130257142Y-82166666D02*
X130304761Y-82214285D01*
X130352380Y-82357142D01*
X130352380Y-82452380D01*
X130304761Y-82595238D01*
X130209523Y-82690476D01*
X130114285Y-82738095D01*
X129923809Y-82785714D01*
X129780952Y-82785714D01*
X129590476Y-82738095D01*
X129495238Y-82690476D01*
X129400000Y-82595238D01*
X129352380Y-82452380D01*
X129352380Y-82357142D01*
X129400000Y-82214285D01*
X129447619Y-82166666D01*
X130352380Y-81214285D02*
X130352380Y-81785714D01*
X130352380Y-81500000D02*
X129352380Y-81500000D01*
X129495238Y-81595238D01*
X129590476Y-81690476D01*
X129638095Y-81785714D01*
D11*
%TO.C,D2*%
X130490000Y-116135000D02*
X134550000Y-116135000D01*
X130490000Y-113865000D02*
X130490000Y-116135000D01*
X134550000Y-113865000D02*
X130490000Y-113865000D01*
%TO.C,J5*%
X160330000Y-102530000D02*
X157670000Y-102530000D01*
X160330000Y-103800000D02*
X160330000Y-105130000D01*
X160330000Y-94850000D02*
X157670000Y-94850000D01*
X160330000Y-102530000D02*
X160330000Y-94850000D01*
X160330000Y-105130000D02*
X159000000Y-105130000D01*
X157670000Y-102530000D02*
X157670000Y-94850000D01*
%TO.C,D3*%
X157460000Y-113865000D02*
X153400000Y-113865000D01*
X157460000Y-116135000D02*
X157460000Y-113865000D01*
X153400000Y-116135000D02*
X157460000Y-116135000D01*
%TO.C,U1*%
X153120000Y-105350000D02*
X153120000Y-105970000D01*
X134880000Y-86530000D02*
X153120000Y-86530000D01*
X134880000Y-105970000D02*
X135880000Y-105970000D01*
X134880000Y-86950000D02*
X134500000Y-86950000D01*
X153120000Y-105970000D02*
X152120000Y-105970000D01*
X153120000Y-86530000D02*
X153120000Y-86950000D01*
X134880000Y-86530000D02*
X134880000Y-86950000D01*
X134880000Y-105350000D02*
X134880000Y-105970000D01*
%TO.C,D1*%
X130615000Y-104710000D02*
X132885000Y-104710000D01*
X130615000Y-100650000D02*
X130615000Y-104710000D01*
X132885000Y-104710000D02*
X132885000Y-100650000D01*
%TO.C,C3*%
X148600000Y-81815000D02*
X144515000Y-81815000D01*
X144515000Y-83685000D02*
X148600000Y-83685000D01*
X144515000Y-81815000D02*
X144515000Y-83685000D01*
%TO.C,R1*%
X132660000Y-90072936D02*
X132660000Y-91527064D01*
X130840000Y-90072936D02*
X130840000Y-91527064D01*
%TO.C,G\u002A\u002A\u002A*%
G36*
X127497819Y-108524827D02*
G01*
X127495942Y-108625103D01*
X127492833Y-108711499D01*
X127488966Y-108773317D01*
X127485775Y-108797415D01*
X127457400Y-108827931D01*
X127400746Y-108845020D01*
X127328702Y-108849290D01*
X127254155Y-108841347D01*
X127189993Y-108821801D01*
X127149104Y-108791257D01*
X127143760Y-108781290D01*
X127138145Y-108745747D01*
X127133732Y-108678013D01*
X127131114Y-108589388D01*
X127130650Y-108531441D01*
X127130650Y-108315754D01*
X127214601Y-108315754D01*
X127291434Y-108312558D01*
X127378203Y-108304616D01*
X127399447Y-108301925D01*
X127500342Y-108288095D01*
X127497819Y-108524827D01*
G37*
G36*
X125575770Y-108312506D02*
G01*
X125658329Y-108317290D01*
X125722687Y-108323205D01*
X125757681Y-108329159D01*
X125760616Y-108330601D01*
X125768313Y-108358957D01*
X125773438Y-108418726D01*
X125775985Y-108497905D01*
X125775947Y-108584492D01*
X125773316Y-108666480D01*
X125768087Y-108731868D01*
X125760863Y-108767312D01*
X125716108Y-108820320D01*
X125641229Y-108847809D01*
X125542753Y-108847674D01*
X125521982Y-108844364D01*
X125424098Y-108826481D01*
X125406773Y-108707033D01*
X125398181Y-108616455D01*
X125394597Y-108511168D01*
X125395623Y-108446233D01*
X125401798Y-108304880D01*
X125575770Y-108312506D01*
G37*
G36*
X126459653Y-108158889D02*
G01*
X125408091Y-108165123D01*
X125302004Y-108097047D01*
X125227215Y-108038740D01*
X125152191Y-107964219D01*
X125116205Y-107920382D01*
X125036494Y-107811794D01*
X125048063Y-106756717D01*
X125608390Y-106756717D01*
X125608680Y-106963876D01*
X125609659Y-107131694D01*
X125611489Y-107264321D01*
X125614332Y-107365906D01*
X125618351Y-107440600D01*
X125623707Y-107492551D01*
X125630565Y-107525909D01*
X125639085Y-107544823D01*
X125639235Y-107545031D01*
X125649473Y-107556431D01*
X125664779Y-107565641D01*
X125689642Y-107572945D01*
X125728553Y-107578627D01*
X125786001Y-107582973D01*
X125866476Y-107586266D01*
X125974468Y-107588793D01*
X126114466Y-107590838D01*
X126290959Y-107592685D01*
X126407046Y-107593736D01*
X126631392Y-107594999D01*
X126821834Y-107594573D01*
X126976409Y-107592499D01*
X127093153Y-107588815D01*
X127170102Y-107583561D01*
X127203155Y-107577742D01*
X127254262Y-107544429D01*
X127283102Y-107506010D01*
X127289606Y-107468781D01*
X127294623Y-107395626D01*
X127298224Y-107292718D01*
X127300479Y-107166229D01*
X127301459Y-107022330D01*
X127301234Y-106867193D01*
X127299874Y-106706990D01*
X127297450Y-106547892D01*
X127294032Y-106396071D01*
X127289690Y-106257700D01*
X127284496Y-106138949D01*
X127278518Y-106045991D01*
X127271828Y-105984997D01*
X127265503Y-105962756D01*
X127247943Y-105954803D01*
X127210219Y-105948169D01*
X127148782Y-105942701D01*
X127060080Y-105938246D01*
X126940564Y-105934649D01*
X126786682Y-105931759D01*
X126594885Y-105929422D01*
X126467107Y-105928277D01*
X126263702Y-105926707D01*
X126099320Y-105925769D01*
X125969495Y-105925668D01*
X125869758Y-105926616D01*
X125795642Y-105928820D01*
X125742680Y-105932488D01*
X125706404Y-105937831D01*
X125682347Y-105945056D01*
X125666040Y-105954373D01*
X125653017Y-105965990D01*
X125652674Y-105966333D01*
X125640809Y-105979681D01*
X125631275Y-105996526D01*
X125623820Y-106021414D01*
X125618186Y-106058893D01*
X125614121Y-106113511D01*
X125611368Y-106189814D01*
X125609674Y-106292351D01*
X125608783Y-106425669D01*
X125608440Y-106594315D01*
X125608390Y-106756717D01*
X125048063Y-106756717D01*
X125048116Y-106751848D01*
X125050982Y-106504723D01*
X125053799Y-106297396D01*
X125056719Y-106126173D01*
X125059891Y-105987362D01*
X125063469Y-105877267D01*
X125067602Y-105792195D01*
X125072443Y-105728452D01*
X125078143Y-105682343D01*
X125084853Y-105650176D01*
X125092725Y-105628255D01*
X125094282Y-105625103D01*
X125148584Y-105550080D01*
X125227735Y-105475418D01*
X125316204Y-105413813D01*
X125395776Y-105378660D01*
X125440377Y-105372976D01*
X125526878Y-105368395D01*
X125653698Y-105364938D01*
X125819259Y-105362629D01*
X126021979Y-105361489D01*
X126260280Y-105361543D01*
X126509599Y-105362665D01*
X127540149Y-105369093D01*
X127634415Y-105435298D01*
X127703012Y-105495656D01*
X127764842Y-105569749D01*
X127783048Y-105598397D01*
X127837414Y-105695291D01*
X127840845Y-106717380D01*
X127841213Y-106926905D01*
X127840919Y-107125286D01*
X127840016Y-107307832D01*
X127838556Y-107469856D01*
X127836591Y-107606666D01*
X127834175Y-107713573D01*
X127831358Y-107785889D01*
X127828533Y-107817484D01*
X127783700Y-107931577D01*
X127699527Y-108030736D01*
X127613091Y-108092767D01*
X127511215Y-108152654D01*
X126631392Y-108157871D01*
X126459653Y-108158889D01*
G37*
G36*
X124766442Y-105708200D02*
G01*
X124837335Y-105714645D01*
X124873206Y-105726004D01*
X124879201Y-105733348D01*
X124884526Y-105767390D01*
X124890276Y-105831571D01*
X124895279Y-105912569D01*
X124895639Y-105919951D01*
X124903247Y-106079372D01*
X124658817Y-106072177D01*
X124525989Y-106065538D01*
X124436347Y-106054704D01*
X124389784Y-106039660D01*
X124386174Y-106036713D01*
X124369383Y-105998138D01*
X124359476Y-105930821D01*
X124357962Y-105888170D01*
X124361427Y-105815311D01*
X124376253Y-105764868D01*
X124409083Y-105732789D01*
X124466562Y-105715020D01*
X124555335Y-105707510D01*
X124656380Y-105706165D01*
X124766442Y-105708200D01*
G37*
G36*
X128427613Y-107457467D02*
G01*
X128484162Y-107476365D01*
X128517392Y-107510564D01*
X128533949Y-107563643D01*
X128539791Y-107624649D01*
X128541398Y-107697378D01*
X128534013Y-107740426D01*
X128513851Y-107767292D01*
X128496298Y-107779837D01*
X128434638Y-107801963D01*
X128334728Y-107815709D01*
X128201084Y-107820626D01*
X128102930Y-107819032D01*
X127998754Y-107815583D01*
X128005071Y-107636173D01*
X128011387Y-107456764D01*
X128217979Y-107451247D01*
X128341100Y-107450287D01*
X128427613Y-107457467D01*
G37*
G36*
X128351255Y-106560433D02*
G01*
X128380168Y-106563881D01*
X128447511Y-106579915D01*
X128499693Y-106602644D01*
X128511298Y-106611494D01*
X128533650Y-106657089D01*
X128544198Y-106726117D01*
X128543073Y-106801832D01*
X128530405Y-106867491D01*
X128509019Y-106904334D01*
X128466612Y-106920699D01*
X128386206Y-106933381D01*
X128273202Y-106941551D01*
X128262858Y-106941988D01*
X128145165Y-106944355D01*
X128064377Y-106937253D01*
X128014174Y-106916035D01*
X127988237Y-106876052D01*
X127980246Y-106812659D01*
X127982892Y-106736120D01*
X127989785Y-106662337D01*
X127999039Y-106606769D01*
X128007385Y-106583654D01*
X128040156Y-106571736D01*
X128103644Y-106562781D01*
X128185133Y-106557463D01*
X128271909Y-106556455D01*
X128351255Y-106560433D01*
G37*
G36*
X127387109Y-104659518D02*
G01*
X127439470Y-104677137D01*
X127472931Y-104714401D01*
X127491514Y-104777769D01*
X127499239Y-104873703D01*
X127500342Y-104957995D01*
X127498853Y-105051983D01*
X127494834Y-105128507D01*
X127488956Y-105177959D01*
X127484032Y-105191362D01*
X127455289Y-105198723D01*
X127396716Y-105208227D01*
X127331249Y-105216592D01*
X127248346Y-105223834D01*
X127192108Y-105218953D01*
X127157378Y-105195523D01*
X127138997Y-105147113D01*
X127131811Y-105067296D01*
X127130650Y-104966528D01*
X127133895Y-104842869D01*
X127146023Y-104756206D01*
X127170628Y-104700364D01*
X127211299Y-104669169D01*
X127271630Y-104656446D01*
X127311827Y-104655080D01*
X127387109Y-104659518D01*
G37*
G36*
X126522818Y-104664429D02*
G01*
X126580768Y-104695248D01*
X126619149Y-104751693D01*
X126639808Y-104837923D01*
X126644590Y-104958094D01*
X126637407Y-105091824D01*
X126629947Y-105158767D01*
X126617870Y-105192909D01*
X126595618Y-105204935D01*
X126578011Y-105205993D01*
X126524959Y-105208950D01*
X126453627Y-105216334D01*
X126430888Y-105219279D01*
X126361558Y-105224001D01*
X126313778Y-105211903D01*
X126283706Y-105177059D01*
X126267501Y-105113539D01*
X126261321Y-105015418D01*
X126260787Y-104956764D01*
X126264319Y-104835244D01*
X126277423Y-104750612D01*
X126303863Y-104696650D01*
X126347404Y-104667143D01*
X126411809Y-104655874D01*
X126443453Y-104655080D01*
X126522818Y-104664429D01*
G37*
G36*
X126438284Y-108306009D02*
G01*
X126521214Y-108313287D01*
X126584863Y-108319384D01*
X126619014Y-108323302D01*
X126622113Y-108323980D01*
X126626516Y-108348237D01*
X126630839Y-108403859D01*
X126634636Y-108478722D01*
X126637457Y-108560700D01*
X126638855Y-108637667D01*
X126638383Y-108697497D01*
X126636808Y-108721883D01*
X126620350Y-108779549D01*
X126594196Y-108818965D01*
X126550585Y-108836265D01*
X126482729Y-108845065D01*
X126407234Y-108845331D01*
X126340705Y-108837031D01*
X126299750Y-108820131D01*
X126299155Y-108819556D01*
X126284400Y-108781720D01*
X126273187Y-108702140D01*
X126265720Y-108582436D01*
X126264312Y-108541402D01*
X126256963Y-108290685D01*
X126438284Y-108306009D01*
G37*
G36*
X125651444Y-104663306D02*
G01*
X125714386Y-104694132D01*
X125721945Y-104700966D01*
X125746538Y-104730787D01*
X125761866Y-104767548D01*
X125770394Y-104822268D01*
X125774583Y-104905969D01*
X125775399Y-104940178D01*
X125775971Y-105030863D01*
X125774101Y-105107903D01*
X125770181Y-105158637D01*
X125768368Y-105167937D01*
X125756358Y-105187384D01*
X125728113Y-105198957D01*
X125674603Y-105204534D01*
X125586797Y-105205993D01*
X125585463Y-105205993D01*
X125499466Y-105205263D01*
X125447283Y-105201141D01*
X125419235Y-105190736D01*
X125405646Y-105171153D01*
X125399549Y-105150409D01*
X125391096Y-105086136D01*
X125389915Y-105000783D01*
X125394915Y-104906717D01*
X125405003Y-104816303D01*
X125419090Y-104741908D01*
X125436085Y-104695899D01*
X125440094Y-104690826D01*
X125496484Y-104661012D01*
X125572872Y-104652053D01*
X125651444Y-104663306D01*
G37*
G36*
X126619299Y-106358671D02*
G01*
X126735453Y-106359355D01*
X126818917Y-106361148D01*
X126875092Y-106364586D01*
X126909379Y-106370204D01*
X126927181Y-106378536D01*
X126933898Y-106390117D01*
X126934931Y-106405094D01*
X126919601Y-106454756D01*
X126899977Y-106477186D01*
X126881511Y-106495775D01*
X126878840Y-106521543D01*
X126893071Y-106566514D01*
X126912505Y-106613122D01*
X126959988Y-106723498D01*
X126914840Y-106811996D01*
X126887581Y-106869788D01*
X126871515Y-106912284D01*
X126869691Y-106921856D01*
X126889080Y-106936312D01*
X126937835Y-106947396D01*
X126962114Y-106949906D01*
X127021109Y-106957341D01*
X127049572Y-106974060D01*
X127060458Y-107008738D01*
X127061418Y-107016396D01*
X127068300Y-107076199D01*
X126534064Y-107076199D01*
X126359904Y-107075706D01*
X126225225Y-107074091D01*
X126126022Y-107071150D01*
X126058292Y-107066679D01*
X126018031Y-107060475D01*
X126001237Y-107052334D01*
X126000161Y-107049016D01*
X126004872Y-107018050D01*
X126022330Y-106995509D01*
X126058841Y-106979555D01*
X126120709Y-106968352D01*
X126214240Y-106960063D01*
X126327122Y-106953749D01*
X126439631Y-106947105D01*
X126539861Y-106939094D01*
X126618013Y-106930647D01*
X126664288Y-106922692D01*
X126668526Y-106921366D01*
X126728463Y-106878782D01*
X126773902Y-106809262D01*
X126796135Y-106728978D01*
X126795293Y-106685930D01*
X126770175Y-106604367D01*
X126719705Y-106546492D01*
X126638642Y-106508686D01*
X126521744Y-106487327D01*
X126505530Y-106485740D01*
X126394510Y-106477519D01*
X126273027Y-106471373D01*
X126179238Y-106468842D01*
X126102725Y-106465566D01*
X126046687Y-106458352D01*
X126021932Y-106448676D01*
X126021575Y-106447327D01*
X126014402Y-106410883D01*
X126008375Y-106392960D01*
X126007841Y-106381597D01*
X126019517Y-106373021D01*
X126048491Y-106366852D01*
X126099847Y-106362705D01*
X126178672Y-106360197D01*
X126290051Y-106358945D01*
X126439070Y-106358567D01*
X126465053Y-106358562D01*
X126619299Y-106358671D01*
G37*
G36*
X124744826Y-106568766D02*
G01*
X124819356Y-106571678D01*
X124866429Y-106575371D01*
X124877714Y-106577977D01*
X124882463Y-106602328D01*
X124887772Y-106659420D01*
X124892716Y-106738528D01*
X124894161Y-106768807D01*
X124902176Y-106950712D01*
X124647027Y-106941615D01*
X124545541Y-106936734D01*
X124460285Y-106930261D01*
X124400491Y-106923056D01*
X124375664Y-106916304D01*
X124366833Y-106887304D01*
X124360643Y-106828887D01*
X124358706Y-106771505D01*
X124361510Y-106688362D01*
X124375491Y-106631042D01*
X124407307Y-106594913D01*
X124463616Y-106575343D01*
X124551076Y-106567702D01*
X124652548Y-106567104D01*
X124744826Y-106568766D01*
G37*
G36*
X128350052Y-105708462D02*
G01*
X128437368Y-105717818D01*
X128494063Y-105737932D01*
X128526511Y-105772504D01*
X128541082Y-105825230D01*
X128544178Y-105891011D01*
X128540774Y-105964716D01*
X128527554Y-106009349D01*
X128500005Y-106039008D01*
X128495846Y-106042004D01*
X128457811Y-106059110D01*
X128397455Y-106069764D01*
X128306912Y-106074950D01*
X128225479Y-106075856D01*
X128115650Y-106074690D01*
X128042759Y-106066922D01*
X128000249Y-106046149D01*
X127981565Y-106005970D01*
X127980151Y-105939982D01*
X127989107Y-105845002D01*
X128003975Y-105706165D01*
X128225745Y-105706165D01*
X128350052Y-105708462D01*
G37*
G36*
X124805433Y-107448885D02*
G01*
X124869270Y-107451551D01*
X124904381Y-107456869D01*
X124908123Y-107460379D01*
X124905140Y-107489468D01*
X124901214Y-107550018D01*
X124897101Y-107630033D01*
X124896335Y-107647047D01*
X124888924Y-107815583D01*
X124665656Y-107815583D01*
X124544212Y-107813762D01*
X124459636Y-107805548D01*
X124405362Y-107786813D01*
X124374823Y-107753431D01*
X124361455Y-107701274D01*
X124358689Y-107626215D01*
X124358706Y-107622645D01*
X124361789Y-107550031D01*
X124369023Y-107495472D01*
X124376767Y-107474142D01*
X124403862Y-107466311D01*
X124461973Y-107459584D01*
X124541142Y-107454221D01*
X124631413Y-107450478D01*
X124722829Y-107448613D01*
X124805433Y-107448885D01*
G37*
G36*
X125595358Y-96175766D02*
G01*
X125687507Y-96207650D01*
X125764826Y-96264942D01*
X125819017Y-96342937D01*
X125841778Y-96436924D01*
X125824811Y-96542198D01*
X125815653Y-96564788D01*
X125760967Y-96652496D01*
X125683786Y-96706440D01*
X125627043Y-96726606D01*
X125516169Y-96737094D01*
X125417106Y-96708494D01*
X125335925Y-96649444D01*
X125278695Y-96568579D01*
X125251486Y-96474538D01*
X125260369Y-96375958D01*
X125311413Y-96281475D01*
X125312938Y-96279648D01*
X125399774Y-96207057D01*
X125496680Y-96173999D01*
X125595358Y-96175766D01*
G37*
G36*
X126706786Y-96209277D02*
G01*
X126772924Y-96261985D01*
X126817353Y-96337854D01*
X126840695Y-96435261D01*
X126838497Y-96529714D01*
X126827968Y-96564779D01*
X126764128Y-96653380D01*
X126670111Y-96711973D01*
X126559454Y-96734921D01*
X126455329Y-96719950D01*
X126369586Y-96670380D01*
X126298966Y-96591617D01*
X126256453Y-96500574D01*
X126249753Y-96452168D01*
X126263733Y-96387195D01*
X126298233Y-96313247D01*
X126306973Y-96299465D01*
X126388758Y-96218385D01*
X126491153Y-96175644D01*
X126601411Y-96172266D01*
X126706786Y-96209277D01*
G37*
G36*
X126662383Y-95191418D02*
G01*
X126750246Y-95241096D01*
X126812950Y-95326336D01*
X126846699Y-95440175D01*
X126830772Y-95553250D01*
X126826687Y-95563794D01*
X126766934Y-95650081D01*
X126678682Y-95706751D01*
X126575064Y-95731969D01*
X126469213Y-95723894D01*
X126374262Y-95680691D01*
X126325422Y-95633939D01*
X126265210Y-95525698D01*
X126254937Y-95418818D01*
X126294495Y-95315060D01*
X126349208Y-95247779D01*
X126406081Y-95201161D01*
X126467819Y-95180196D01*
X126542556Y-95175912D01*
X126662383Y-95191418D01*
G37*
G36*
X127640121Y-96180505D02*
G01*
X127738001Y-96229845D01*
X127807759Y-96308851D01*
X127845057Y-96405532D01*
X127845559Y-96507896D01*
X127804927Y-96603949D01*
X127797079Y-96614486D01*
X127705763Y-96696091D01*
X127600280Y-96734920D01*
X127490932Y-96730148D01*
X127388025Y-96680947D01*
X127352485Y-96650163D01*
X127283728Y-96551405D01*
X127262818Y-96445529D01*
X127289749Y-96340083D01*
X127352762Y-96253896D01*
X127448224Y-96186503D01*
X127555177Y-96166784D01*
X127640121Y-96180505D01*
G37*
G36*
X127851330Y-93399163D02*
G01*
X127526843Y-93399163D01*
X127044702Y-92938811D01*
X126866113Y-92768764D01*
X126718720Y-92629795D01*
X126597909Y-92518017D01*
X126499066Y-92429544D01*
X126417577Y-92360489D01*
X126348826Y-92306965D01*
X126288199Y-92265087D01*
X126231082Y-92230967D01*
X126172860Y-92200720D01*
X126162167Y-92195513D01*
X125996054Y-92137141D01*
X125841600Y-92124581D01*
X125703813Y-92154789D01*
X125587704Y-92224720D01*
X125498282Y-92331330D01*
X125440556Y-92471574D01*
X125419536Y-92642408D01*
X125419524Y-92646833D01*
X125427442Y-92796222D01*
X125454162Y-92936053D01*
X125504136Y-93084831D01*
X125551684Y-93196171D01*
X125587768Y-93278672D01*
X125613721Y-93343512D01*
X125624122Y-93377113D01*
X125624137Y-93377600D01*
X125601243Y-93388276D01*
X125541039Y-93395988D01*
X125456247Y-93399152D01*
X125450763Y-93399163D01*
X125277389Y-93399163D01*
X125224188Y-93256972D01*
X125146696Y-93003992D01*
X125106859Y-92764897D01*
X125103176Y-92543137D01*
X125134149Y-92342159D01*
X125198278Y-92165412D01*
X125294062Y-92016343D01*
X125420002Y-91898401D01*
X125574597Y-91815034D01*
X125756349Y-91769690D01*
X125874384Y-91762170D01*
X125971630Y-91765457D01*
X126061835Y-91777757D01*
X126149871Y-91802152D01*
X126240610Y-91841723D01*
X126338921Y-91899555D01*
X126449676Y-91978728D01*
X126577746Y-92082327D01*
X126728003Y-92213433D01*
X126905316Y-92375129D01*
X127037580Y-92498276D01*
X127165329Y-92617373D01*
X127281561Y-92724801D01*
X127381150Y-92815896D01*
X127458965Y-92885992D01*
X127509879Y-92930426D01*
X127528218Y-92944549D01*
X127535083Y-92923072D01*
X127540978Y-92856847D01*
X127545699Y-92751168D01*
X127549044Y-92611331D01*
X127550808Y-92442630D01*
X127551034Y-92350214D01*
X127551034Y-91747537D01*
X127851330Y-91747537D01*
X127851330Y-93399163D01*
G37*
G36*
X125650581Y-94194104D02*
G01*
X125748600Y-94248774D01*
X125812166Y-94334640D01*
X125813794Y-94338445D01*
X125843746Y-94431257D01*
X125841314Y-94505841D01*
X125804751Y-94583544D01*
X125792139Y-94602901D01*
X125708926Y-94687289D01*
X125607592Y-94730353D01*
X125498750Y-94731746D01*
X125393010Y-94691124D01*
X125309469Y-94618595D01*
X125259610Y-94525587D01*
X125251476Y-94425931D01*
X125279850Y-94330335D01*
X125339512Y-94249508D01*
X125425245Y-94194158D01*
X125525676Y-94174927D01*
X125650581Y-94194104D01*
G37*
G36*
X127653554Y-95183833D02*
G01*
X127714606Y-95214776D01*
X127766246Y-95260996D01*
X127834421Y-95358362D01*
X127854570Y-95462052D01*
X127826321Y-95565647D01*
X127787160Y-95623703D01*
X127698968Y-95696115D01*
X127596978Y-95730291D01*
X127492388Y-95728164D01*
X127396395Y-95691667D01*
X127320196Y-95622734D01*
X127278143Y-95535824D01*
X127267037Y-95416821D01*
X127299498Y-95315052D01*
X127370241Y-95236876D01*
X127473978Y-95188652D01*
X127577318Y-95175912D01*
X127653554Y-95183833D01*
G37*
G36*
X127647044Y-94181336D02*
G01*
X127706721Y-94207801D01*
X127766246Y-94260010D01*
X127822926Y-94327063D01*
X127847261Y-94390499D01*
X127850664Y-94441439D01*
X127838760Y-94525470D01*
X127810658Y-94600957D01*
X127807417Y-94606460D01*
X127732614Y-94686275D01*
X127637908Y-94729892D01*
X127534816Y-94738767D01*
X127434860Y-94714356D01*
X127349557Y-94658114D01*
X127290428Y-94571497D01*
X127279501Y-94539755D01*
X127266016Y-94426435D01*
X127296845Y-94330893D01*
X127367130Y-94250038D01*
X127439945Y-94198049D01*
X127515765Y-94177168D01*
X127566920Y-94174927D01*
X127647044Y-94181336D01*
G37*
G36*
X125650581Y-95195089D02*
G01*
X125748600Y-95249759D01*
X125812166Y-95335625D01*
X125813794Y-95339430D01*
X125841212Y-95416220D01*
X125844633Y-95474960D01*
X125824158Y-95541466D01*
X125814677Y-95563803D01*
X125761249Y-95651090D01*
X125684675Y-95705062D01*
X125627043Y-95725620D01*
X125514790Y-95733316D01*
X125404929Y-95697425D01*
X125312243Y-95622854D01*
X125310259Y-95620519D01*
X125260006Y-95527071D01*
X125251561Y-95427102D01*
X125279742Y-95331309D01*
X125339364Y-95250392D01*
X125425243Y-95195052D01*
X125525676Y-95175912D01*
X125650581Y-95195089D01*
G37*
G36*
X126656216Y-94184236D02*
G01*
X126719796Y-94213983D01*
X126794637Y-94293195D01*
X126838107Y-94395161D01*
X126844377Y-94502518D01*
X126832671Y-94550296D01*
X126784295Y-94625597D01*
X126706487Y-94691665D01*
X126637888Y-94725385D01*
X126530404Y-94736289D01*
X126423874Y-94704819D01*
X126333470Y-94636592D01*
X126306973Y-94602901D01*
X126258771Y-94502697D01*
X126256840Y-94406442D01*
X126287714Y-94324255D01*
X126352468Y-94248197D01*
X126446093Y-94196796D01*
X126552655Y-94174120D01*
X126656216Y-94184236D01*
G37*
D12*
%TO.C,S2*%
X167312600Y-108857200D02*
X167302800Y-114150000D01*
X162943800Y-114546800D02*
X165052000Y-114546800D01*
X160708600Y-113550000D02*
X160708600Y-108882600D01*
X162954800Y-108440800D02*
X165050000Y-108440800D01*
X162950400Y-114546800D02*
X162950400Y-114796800D01*
D11*
%TO.C,R2*%
X132660000Y-95772936D02*
X132660000Y-97227064D01*
X130840000Y-95772936D02*
X130840000Y-97227064D01*
%TO.C,J3*%
X131500000Y-117800000D02*
X131500000Y-117050000D01*
X129690000Y-123010000D02*
X142310000Y-123010000D01*
X140500000Y-117050000D02*
X140500000Y-117800000D01*
X141550000Y-119300000D02*
X141550000Y-122250000D01*
X141550000Y-122250000D02*
X136000000Y-122250000D01*
X130650000Y-116750000D02*
X129400000Y-116750000D01*
X129690000Y-117040000D02*
X129690000Y-123010000D01*
X129700000Y-117050000D02*
X129700000Y-117800000D01*
X129400000Y-116750000D02*
X129400000Y-118000000D01*
X142310000Y-123010000D02*
X142310000Y-117040000D01*
X133000000Y-117800000D02*
X139000000Y-117800000D01*
X131500000Y-117050000D02*
X129700000Y-117050000D01*
X142310000Y-117040000D02*
X129690000Y-117040000D01*
X142300000Y-117800000D02*
X142300000Y-117050000D01*
X130450000Y-122250000D02*
X136000000Y-122250000D01*
X133000000Y-117050000D02*
X133000000Y-117800000D01*
X142300000Y-117050000D02*
X140500000Y-117050000D01*
X140500000Y-117800000D02*
X142300000Y-117800000D01*
X142300000Y-119300000D02*
X141550000Y-119300000D01*
X130450000Y-119300000D02*
X130450000Y-122250000D01*
X129700000Y-119300000D02*
X130450000Y-119300000D01*
X139000000Y-117050000D02*
X133000000Y-117050000D01*
X129700000Y-117800000D02*
X131500000Y-117800000D01*
X139000000Y-117800000D02*
X139000000Y-117050000D01*
%TO.C,J6*%
X133420000Y-112805000D02*
X141100000Y-112805000D01*
X130820000Y-110145000D02*
X132150000Y-110145000D01*
X130820000Y-111475000D02*
X130820000Y-110145000D01*
X133420000Y-110145000D02*
X141100000Y-110145000D01*
X141100000Y-112805000D02*
X141100000Y-110145000D01*
X133420000Y-112805000D02*
X133420000Y-110145000D01*
D12*
%TO.C,IC1*%
X141025000Y-83250000D02*
X137475000Y-83250000D01*
X137475000Y-76750000D02*
X141025000Y-76750000D01*
X141025000Y-76750000D02*
X141025000Y-83250000D01*
X137475000Y-83250000D02*
X137475000Y-76750000D01*
D13*
X143050000Y-83300000D02*
G75*
G03*
X143050000Y-83300000I-100000J0D01*
G01*
D14*
X140450000Y-82400000D02*
G75*
G03*
X140450000Y-82400000I-200000J0D01*
G01*
D12*
%TO.C,S1*%
X162954800Y-85440800D02*
X165050000Y-85440800D01*
X162950400Y-91546800D02*
X162950400Y-91796800D01*
X162943800Y-91546800D02*
X165052000Y-91546800D01*
X160708600Y-90550000D02*
X160708600Y-85882600D01*
X167312600Y-85857200D02*
X167302800Y-91150000D01*
D11*
%TO.C,C2*%
X131211252Y-85590000D02*
X129788748Y-85590000D01*
X131211252Y-87410000D02*
X129788748Y-87410000D01*
D12*
%TO.C,J1*%
X149788000Y-85150000D02*
X149788000Y-85650000D01*
X160166000Y-85170000D02*
X160166000Y-85670000D01*
X160176000Y-77850000D02*
X159676000Y-77850000D01*
X149788000Y-77850000D02*
X149788000Y-78350000D01*
X160176000Y-77850000D02*
X160176000Y-78350000D01*
X160166000Y-85670000D02*
X159666000Y-85670000D01*
X149788000Y-85650000D02*
X150288000Y-85650000D01*
X149788000Y-77850000D02*
X150288000Y-77850000D01*
D11*
%TO.C,J4*%
X145690000Y-123010000D02*
X158310000Y-123010000D01*
X155000000Y-117800000D02*
X155000000Y-117050000D01*
X145400000Y-116750000D02*
X145400000Y-118000000D01*
X158300000Y-117800000D02*
X158300000Y-117050000D01*
X146450000Y-122250000D02*
X152000000Y-122250000D01*
X158300000Y-119300000D02*
X157550000Y-119300000D01*
X158310000Y-123010000D02*
X158310000Y-117040000D01*
X157550000Y-119300000D02*
X157550000Y-122250000D01*
X156500000Y-117050000D02*
X156500000Y-117800000D01*
X158310000Y-117040000D02*
X145690000Y-117040000D01*
X146650000Y-116750000D02*
X145400000Y-116750000D01*
X158300000Y-117050000D02*
X156500000Y-117050000D01*
X157550000Y-122250000D02*
X152000000Y-122250000D01*
X147500000Y-117050000D02*
X145700000Y-117050000D01*
X145700000Y-117050000D02*
X145700000Y-117800000D01*
X149000000Y-117800000D02*
X155000000Y-117800000D01*
X145690000Y-117040000D02*
X145690000Y-123010000D01*
X147500000Y-117800000D02*
X147500000Y-117050000D01*
X145700000Y-117800000D02*
X147500000Y-117800000D01*
X155000000Y-117050000D02*
X149000000Y-117050000D01*
X149000000Y-117050000D02*
X149000000Y-117800000D01*
X145700000Y-119300000D02*
X146450000Y-119300000D01*
X156500000Y-117800000D02*
X158300000Y-117800000D01*
X146450000Y-119300000D02*
X146450000Y-122250000D01*
%TO.C,R3*%
X139227064Y-115910000D02*
X137772936Y-115910000D01*
X139227064Y-114090000D02*
X137772936Y-114090000D01*
%TO.C,C4*%
X146865000Y-81085000D02*
X148735000Y-81085000D01*
X146865000Y-77000000D02*
X146865000Y-81085000D01*
X148735000Y-81085000D02*
X148735000Y-77000000D01*
%TO.C,J2*%
X161025000Y-103000000D02*
X161775000Y-103000000D01*
X161775000Y-95500000D02*
X161775000Y-93700000D01*
X161025000Y-97000000D02*
X161025000Y-103000000D01*
X166985000Y-106310000D02*
X166985000Y-93690000D01*
X166225000Y-105550000D02*
X166225000Y-100000000D01*
X161025000Y-95500000D02*
X161775000Y-95500000D01*
X163275000Y-105550000D02*
X166225000Y-105550000D01*
X161775000Y-104500000D02*
X161025000Y-104500000D01*
X161775000Y-106300000D02*
X161775000Y-104500000D01*
X163275000Y-94450000D02*
X166225000Y-94450000D01*
X160725000Y-106600000D02*
X161975000Y-106600000D01*
X161015000Y-93690000D02*
X161015000Y-106310000D01*
X161025000Y-93700000D02*
X161025000Y-95500000D01*
X166225000Y-94450000D02*
X166225000Y-100000000D01*
X161025000Y-104500000D02*
X161025000Y-106300000D01*
X161775000Y-103000000D02*
X161775000Y-97000000D01*
X161015000Y-106310000D02*
X166985000Y-106310000D01*
X163275000Y-106300000D02*
X163275000Y-105550000D01*
X163275000Y-93700000D02*
X163275000Y-94450000D01*
X166985000Y-93690000D02*
X161015000Y-93690000D01*
X160725000Y-105350000D02*
X160725000Y-106600000D01*
X161775000Y-93700000D02*
X161025000Y-93700000D01*
X161775000Y-97000000D02*
X161025000Y-97000000D01*
X161025000Y-106300000D02*
X161775000Y-106300000D01*
%TO.C,R4*%
X148272936Y-114090000D02*
X149727064Y-114090000D01*
X148272936Y-115910000D02*
X149727064Y-115910000D01*
%TO.C,J7*%
X146870000Y-110170000D02*
X148200000Y-110170000D01*
X157150000Y-112830000D02*
X157150000Y-110170000D01*
X146870000Y-111500000D02*
X146870000Y-110170000D01*
X149470000Y-112830000D02*
X149470000Y-110170000D01*
X149470000Y-110170000D02*
X157150000Y-110170000D01*
X149470000Y-112830000D02*
X157150000Y-112830000D01*
%TO.C,C1*%
X132660000Y-82711252D02*
X132660000Y-81288748D01*
X130840000Y-82711252D02*
X130840000Y-81288748D01*
%TD*%
M02*
