%TF.GenerationSoftware,KiCad,Pcbnew,6.0.11-2627ca5db0~126~ubuntu20.04.1*%
%TF.CreationDate,2025-05-12T21:47:33+10:00*%
%TF.ProjectId,encoder_pcb,656e636f-6465-4725-9f70-63622e6b6963,rev?*%
%TF.SameCoordinates,Original*%
%TF.FileFunction,Legend,Bot*%
%TF.FilePolarity,Positive*%
%FSLAX46Y46*%
G04 Gerber Fmt 4.6, Leading zero omitted, Abs format (unit mm)*
G04 Created by KiCad (PCBNEW 6.0.11-2627ca5db0~126~ubuntu20.04.1) date 2025-05-12 21:47:33*
%MOMM*%
%LPD*%
G01*
G04 APERTURE LIST*
%ADD10C,0.150000*%
G04 APERTURE END LIST*
D10*
X151654761Y-76952380D02*
X151654761Y-75952380D01*
X151273809Y-75952380D01*
X151178571Y-76000000D01*
X151130952Y-76047619D01*
X151083333Y-76142857D01*
X151083333Y-76285714D01*
X151130952Y-76380952D01*
X151178571Y-76428571D01*
X151273809Y-76476190D01*
X151654761Y-76476190D01*
X150654761Y-76428571D02*
X150321428Y-76428571D01*
X150178571Y-76952380D02*
X150654761Y-76952380D01*
X150654761Y-75952380D01*
X150178571Y-75952380D01*
X149797619Y-76904761D02*
X149654761Y-76952380D01*
X149416666Y-76952380D01*
X149321428Y-76904761D01*
X149273809Y-76857142D01*
X149226190Y-76761904D01*
X149226190Y-76666666D01*
X149273809Y-76571428D01*
X149321428Y-76523809D01*
X149416666Y-76476190D01*
X149607142Y-76428571D01*
X149702380Y-76380952D01*
X149750000Y-76333333D01*
X149797619Y-76238095D01*
X149797619Y-76142857D01*
X149750000Y-76047619D01*
X149702380Y-76000000D01*
X149607142Y-75952380D01*
X149369047Y-75952380D01*
X149226190Y-76000000D01*
X148797619Y-76857142D02*
X148750000Y-76904761D01*
X148797619Y-76952380D01*
X148845238Y-76904761D01*
X148797619Y-76857142D01*
X148797619Y-76952380D01*
X148797619Y-76333333D02*
X148750000Y-76380952D01*
X148797619Y-76428571D01*
X148845238Y-76380952D01*
X148797619Y-76333333D01*
X148797619Y-76428571D01*
X147607142Y-76047619D02*
X147559523Y-76000000D01*
X147464285Y-75952380D01*
X147226190Y-75952380D01*
X147130952Y-76000000D01*
X147083333Y-76047619D01*
X147035714Y-76142857D01*
X147035714Y-76238095D01*
X147083333Y-76380952D01*
X147654761Y-76952380D01*
X147035714Y-76952380D01*
X146416666Y-75952380D02*
X146321428Y-75952380D01*
X146226190Y-76000000D01*
X146178571Y-76047619D01*
X146130952Y-76142857D01*
X146083333Y-76333333D01*
X146083333Y-76571428D01*
X146130952Y-76761904D01*
X146178571Y-76857142D01*
X146226190Y-76904761D01*
X146321428Y-76952380D01*
X146416666Y-76952380D01*
X146511904Y-76904761D01*
X146559523Y-76857142D01*
X146607142Y-76761904D01*
X146654761Y-76571428D01*
X146654761Y-76333333D01*
X146607142Y-76142857D01*
X146559523Y-76047619D01*
X146511904Y-76000000D01*
X146416666Y-75952380D01*
X145702380Y-76047619D02*
X145654761Y-76000000D01*
X145559523Y-75952380D01*
X145321428Y-75952380D01*
X145226190Y-76000000D01*
X145178571Y-76047619D01*
X145130952Y-76142857D01*
X145130952Y-76238095D01*
X145178571Y-76380952D01*
X145750000Y-76952380D01*
X145130952Y-76952380D01*
X144226190Y-75952380D02*
X144702380Y-75952380D01*
X144750000Y-76428571D01*
X144702380Y-76380952D01*
X144607142Y-76333333D01*
X144369047Y-76333333D01*
X144273809Y-76380952D01*
X144226190Y-76428571D01*
X144178571Y-76523809D01*
X144178571Y-76761904D01*
X144226190Y-76857142D01*
X144273809Y-76904761D01*
X144369047Y-76952380D01*
X144607142Y-76952380D01*
X144702380Y-76904761D01*
X144750000Y-76857142D01*
X143559523Y-75952380D02*
X143464285Y-75952380D01*
X143369047Y-76000000D01*
X143321428Y-76047619D01*
X143273809Y-76142857D01*
X143226190Y-76333333D01*
X143226190Y-76571428D01*
X143273809Y-76761904D01*
X143321428Y-76857142D01*
X143369047Y-76904761D01*
X143464285Y-76952380D01*
X143559523Y-76952380D01*
X143654761Y-76904761D01*
X143702380Y-76857142D01*
X143750000Y-76761904D01*
X143797619Y-76571428D01*
X143797619Y-76333333D01*
X143750000Y-76142857D01*
X143702380Y-76047619D01*
X143654761Y-76000000D01*
X143559523Y-75952380D01*
X142321428Y-75952380D02*
X142797619Y-75952380D01*
X142845238Y-76428571D01*
X142797619Y-76380952D01*
X142702380Y-76333333D01*
X142464285Y-76333333D01*
X142369047Y-76380952D01*
X142321428Y-76428571D01*
X142273809Y-76523809D01*
X142273809Y-76761904D01*
X142321428Y-76857142D01*
X142369047Y-76904761D01*
X142464285Y-76952380D01*
X142702380Y-76952380D01*
X142797619Y-76904761D01*
X142845238Y-76857142D01*
X141321428Y-76952380D02*
X141892857Y-76952380D01*
X141607142Y-76952380D02*
X141607142Y-75952380D01*
X141702380Y-76095238D01*
X141797619Y-76190476D01*
X141892857Y-76238095D01*
X140940476Y-76047619D02*
X140892857Y-76000000D01*
X140797619Y-75952380D01*
X140559523Y-75952380D01*
X140464285Y-76000000D01*
X140416666Y-76047619D01*
X140369047Y-76142857D01*
X140369047Y-76238095D01*
X140416666Y-76380952D01*
X140988095Y-76952380D01*
X140369047Y-76952380D01*
X140178571Y-77047619D02*
X139416666Y-77047619D01*
X139226190Y-76047619D02*
X139178571Y-76000000D01*
X139083333Y-75952380D01*
X138845238Y-75952380D01*
X138750000Y-76000000D01*
X138702380Y-76047619D01*
X138654761Y-76142857D01*
X138654761Y-76238095D01*
X138702380Y-76380952D01*
X139273809Y-76952380D01*
X138654761Y-76952380D01*
X137702380Y-76952380D02*
X138273809Y-76952380D01*
X137988095Y-76952380D02*
X137988095Y-75952380D01*
X138083333Y-76095238D01*
X138178571Y-76190476D01*
X138273809Y-76238095D01*
X136845238Y-76285714D02*
X136845238Y-76952380D01*
X137083333Y-75904761D02*
X137321428Y-76619047D01*
X136702380Y-76619047D01*
X136416666Y-75952380D02*
X135797619Y-75952380D01*
X136130952Y-76333333D01*
X135988095Y-76333333D01*
X135892857Y-76380952D01*
X135845238Y-76428571D01*
X135797619Y-76523809D01*
X135797619Y-76761904D01*
X135845238Y-76857142D01*
X135892857Y-76904761D01*
X135988095Y-76952380D01*
X136273809Y-76952380D01*
X136369047Y-76904761D01*
X136416666Y-76857142D01*
X120425714Y-80166666D02*
X121235238Y-80166666D01*
X121330476Y-80119047D01*
X121378095Y-80071428D01*
X121425714Y-79976190D01*
X121425714Y-79833333D01*
X121378095Y-79738095D01*
X121044761Y-80166666D02*
X121092380Y-80071428D01*
X121092380Y-79880952D01*
X121044761Y-79785714D01*
X120997142Y-79738095D01*
X120901904Y-79690476D01*
X120616190Y-79690476D01*
X120520952Y-79738095D01*
X120473333Y-79785714D01*
X120425714Y-79880952D01*
X120425714Y-80071428D01*
X120473333Y-80166666D01*
X121092380Y-80642857D02*
X120425714Y-80642857D01*
X120092380Y-80642857D02*
X120140000Y-80595238D01*
X120187619Y-80642857D01*
X120140000Y-80690476D01*
X120092380Y-80642857D01*
X120187619Y-80642857D01*
X120425714Y-80976190D02*
X120425714Y-81357142D01*
X120092380Y-81119047D02*
X120949523Y-81119047D01*
X121044761Y-81166666D01*
X121092380Y-81261904D01*
X121092380Y-81357142D01*
X121092380Y-81690476D02*
X120092380Y-81690476D01*
X121092380Y-82119047D02*
X120568571Y-82119047D01*
X120473333Y-82071428D01*
X120425714Y-81976190D01*
X120425714Y-81833333D01*
X120473333Y-81738095D01*
X120520952Y-81690476D01*
X120425714Y-83023809D02*
X121092380Y-83023809D01*
X120425714Y-82595238D02*
X120949523Y-82595238D01*
X121044761Y-82642857D01*
X121092380Y-82738095D01*
X121092380Y-82880952D01*
X121044761Y-82976190D01*
X120997142Y-83023809D01*
X121092380Y-83500000D02*
X120092380Y-83500000D01*
X120473333Y-83500000D02*
X120425714Y-83595238D01*
X120425714Y-83785714D01*
X120473333Y-83880952D01*
X120520952Y-83928571D01*
X120616190Y-83976190D01*
X120901904Y-83976190D01*
X120997142Y-83928571D01*
X121044761Y-83880952D01*
X121092380Y-83785714D01*
X121092380Y-83595238D01*
X121044761Y-83500000D01*
X120997142Y-84404761D02*
X121044761Y-84452380D01*
X121092380Y-84404761D01*
X121044761Y-84357142D01*
X120997142Y-84404761D01*
X121092380Y-84404761D01*
X121044761Y-85309523D02*
X121092380Y-85214285D01*
X121092380Y-85023809D01*
X121044761Y-84928571D01*
X120997142Y-84880952D01*
X120901904Y-84833333D01*
X120616190Y-84833333D01*
X120520952Y-84880952D01*
X120473333Y-84928571D01*
X120425714Y-85023809D01*
X120425714Y-85214285D01*
X120473333Y-85309523D01*
X121092380Y-85880952D02*
X121044761Y-85785714D01*
X120997142Y-85738095D01*
X120901904Y-85690476D01*
X120616190Y-85690476D01*
X120520952Y-85738095D01*
X120473333Y-85785714D01*
X120425714Y-85880952D01*
X120425714Y-86023809D01*
X120473333Y-86119047D01*
X120520952Y-86166666D01*
X120616190Y-86214285D01*
X120901904Y-86214285D01*
X120997142Y-86166666D01*
X121044761Y-86119047D01*
X121092380Y-86023809D01*
X121092380Y-85880952D01*
X121092380Y-86642857D02*
X120425714Y-86642857D01*
X120520952Y-86642857D02*
X120473333Y-86690476D01*
X120425714Y-86785714D01*
X120425714Y-86928571D01*
X120473333Y-87023809D01*
X120568571Y-87071428D01*
X121092380Y-87071428D01*
X120568571Y-87071428D02*
X120473333Y-87119047D01*
X120425714Y-87214285D01*
X120425714Y-87357142D01*
X120473333Y-87452380D01*
X120568571Y-87500000D01*
X121092380Y-87500000D01*
X120044761Y-88690476D02*
X121330476Y-87833333D01*
X120425714Y-89023809D02*
X121425714Y-89023809D01*
X120473333Y-89023809D02*
X120425714Y-89119047D01*
X120425714Y-89309523D01*
X120473333Y-89404761D01*
X120520952Y-89452380D01*
X120616190Y-89499999D01*
X120901904Y-89499999D01*
X120997142Y-89452380D01*
X121044761Y-89404761D01*
X121092380Y-89309523D01*
X121092380Y-89119047D01*
X121044761Y-89023809D01*
X121044761Y-90309523D02*
X121092380Y-90214285D01*
X121092380Y-90023809D01*
X121044761Y-89928571D01*
X120949523Y-89880952D01*
X120568571Y-89880952D01*
X120473333Y-89928571D01*
X120425714Y-90023809D01*
X120425714Y-90214285D01*
X120473333Y-90309523D01*
X120568571Y-90357142D01*
X120663809Y-90357142D01*
X120759047Y-89880952D01*
X120425714Y-90642857D02*
X120425714Y-91023809D01*
X120092380Y-90785714D02*
X120949523Y-90785714D01*
X121044761Y-90833333D01*
X121092380Y-90928571D01*
X121092380Y-91023809D01*
X121044761Y-91738095D02*
X121092380Y-91642857D01*
X121092380Y-91452380D01*
X121044761Y-91357142D01*
X120949523Y-91309523D01*
X120568571Y-91309523D01*
X120473333Y-91357142D01*
X120425714Y-91452380D01*
X120425714Y-91642857D01*
X120473333Y-91738095D01*
X120568571Y-91785714D01*
X120663809Y-91785714D01*
X120759047Y-91309523D01*
X121092380Y-92214285D02*
X120425714Y-92214285D01*
X120616190Y-92214285D02*
X120520952Y-92261904D01*
X120473333Y-92309523D01*
X120425714Y-92404761D01*
X120425714Y-92499999D01*
X120425714Y-92738095D02*
X121092380Y-92928571D01*
X120616190Y-93119047D01*
X121092380Y-93309523D01*
X120425714Y-93499999D01*
X121092380Y-94309523D02*
X120568571Y-94309523D01*
X120473333Y-94261904D01*
X120425714Y-94166666D01*
X120425714Y-93976190D01*
X120473333Y-93880952D01*
X121044761Y-94309523D02*
X121092380Y-94214285D01*
X121092380Y-93976190D01*
X121044761Y-93880952D01*
X120949523Y-93833333D01*
X120854285Y-93833333D01*
X120759047Y-93880952D01*
X120711428Y-93976190D01*
X120711428Y-94214285D01*
X120663809Y-94309523D01*
X121092380Y-94928571D02*
X121044761Y-94833333D01*
X120949523Y-94785714D01*
X120092380Y-94785714D01*
X121092380Y-95452380D02*
X121044761Y-95357142D01*
X120949523Y-95309523D01*
X120092380Y-95309523D01*
X121092380Y-95833333D02*
X120092380Y-95833333D01*
X121092380Y-96261904D02*
X120568571Y-96261904D01*
X120473333Y-96214285D01*
X120425714Y-96119047D01*
X120425714Y-95976190D01*
X120473333Y-95880952D01*
X120520952Y-95833333D01*
X121044761Y-97119047D02*
X121092380Y-97023809D01*
X121092380Y-96833333D01*
X121044761Y-96738095D01*
X120949523Y-96690476D01*
X120568571Y-96690476D01*
X120473333Y-96738095D01*
X120425714Y-96833333D01*
X120425714Y-97023809D01*
X120473333Y-97119047D01*
X120568571Y-97166666D01*
X120663809Y-97166666D01*
X120759047Y-96690476D01*
X121092380Y-98023809D02*
X120568571Y-98023809D01*
X120473333Y-97976190D01*
X120425714Y-97880952D01*
X120425714Y-97690476D01*
X120473333Y-97595238D01*
X121044761Y-98023809D02*
X121092380Y-97928571D01*
X121092380Y-97690476D01*
X121044761Y-97595238D01*
X120949523Y-97547619D01*
X120854285Y-97547619D01*
X120759047Y-97595238D01*
X120711428Y-97690476D01*
X120711428Y-97928571D01*
X120663809Y-98023809D01*
X121092380Y-98928571D02*
X120092380Y-98928571D01*
X121044761Y-98928571D02*
X121092380Y-98833333D01*
X121092380Y-98642857D01*
X121044761Y-98547619D01*
X120997142Y-98499999D01*
X120901904Y-98452380D01*
X120616190Y-98452380D01*
X120520952Y-98499999D01*
X120473333Y-98547619D01*
X120425714Y-98642857D01*
X120425714Y-98833333D01*
X120473333Y-98928571D01*
X120044761Y-100119047D02*
X121330476Y-99261904D01*
X121044761Y-100404761D02*
X121092380Y-100499999D01*
X121092380Y-100690476D01*
X121044761Y-100785714D01*
X120949523Y-100833333D01*
X120901904Y-100833333D01*
X120806666Y-100785714D01*
X120759047Y-100690476D01*
X120759047Y-100547619D01*
X120711428Y-100452380D01*
X120616190Y-100404761D01*
X120568571Y-100404761D01*
X120473333Y-100452380D01*
X120425714Y-100547619D01*
X120425714Y-100690476D01*
X120473333Y-100785714D01*
X121092380Y-101404761D02*
X121044761Y-101309523D01*
X120949523Y-101261904D01*
X120092380Y-101261904D01*
X121092380Y-102214285D02*
X120568571Y-102214285D01*
X120473333Y-102166666D01*
X120425714Y-102071428D01*
X120425714Y-101880952D01*
X120473333Y-101785714D01*
X121044761Y-102214285D02*
X121092380Y-102119047D01*
X121092380Y-101880952D01*
X121044761Y-101785714D01*
X120949523Y-101738095D01*
X120854285Y-101738095D01*
X120759047Y-101785714D01*
X120711428Y-101880952D01*
X120711428Y-102119047D01*
X120663809Y-102214285D01*
X121092380Y-102690476D02*
X120425714Y-102690476D01*
X120520952Y-102690476D02*
X120473333Y-102738095D01*
X120425714Y-102833333D01*
X120425714Y-102976190D01*
X120473333Y-103071428D01*
X120568571Y-103119047D01*
X121092380Y-103119047D01*
X120568571Y-103119047D02*
X120473333Y-103166666D01*
X120425714Y-103261904D01*
X120425714Y-103404761D01*
X120473333Y-103499999D01*
X120568571Y-103547619D01*
X121092380Y-103547619D01*
X121092380Y-104023809D02*
X120092380Y-104023809D01*
X120473333Y-104023809D02*
X120425714Y-104119047D01*
X120425714Y-104309523D01*
X120473333Y-104404761D01*
X120520952Y-104452380D01*
X120616190Y-104499999D01*
X120901904Y-104499999D01*
X120997142Y-104452380D01*
X121044761Y-104404761D01*
X121092380Y-104309523D01*
X121092380Y-104119047D01*
X121044761Y-104023809D01*
X121092380Y-105071428D02*
X121044761Y-104976190D01*
X120997142Y-104928571D01*
X120901904Y-104880952D01*
X120616190Y-104880952D01*
X120520952Y-104928571D01*
X120473333Y-104976190D01*
X120425714Y-105071428D01*
X120425714Y-105214285D01*
X120473333Y-105309523D01*
X120520952Y-105357142D01*
X120616190Y-105404761D01*
X120901904Y-105404761D01*
X120997142Y-105357142D01*
X121044761Y-105309523D01*
X121092380Y-105214285D01*
X121092380Y-105071428D01*
X120425714Y-105690476D02*
X120425714Y-106071428D01*
X120092380Y-105833333D02*
X120949523Y-105833333D01*
X121044761Y-105880952D01*
X121092380Y-105976190D01*
X121092380Y-106071428D01*
X121187619Y-106166666D02*
X121187619Y-106928571D01*
X121044761Y-107547619D02*
X121092380Y-107452380D01*
X121092380Y-107261904D01*
X121044761Y-107166666D01*
X120949523Y-107119047D01*
X120568571Y-107119047D01*
X120473333Y-107166666D01*
X120425714Y-107261904D01*
X120425714Y-107452380D01*
X120473333Y-107547619D01*
X120568571Y-107595238D01*
X120663809Y-107595238D01*
X120759047Y-107119047D01*
X120425714Y-108023809D02*
X121092380Y-108023809D01*
X120520952Y-108023809D02*
X120473333Y-108071428D01*
X120425714Y-108166666D01*
X120425714Y-108309523D01*
X120473333Y-108404761D01*
X120568571Y-108452380D01*
X121092380Y-108452380D01*
X121044761Y-109357142D02*
X121092380Y-109261904D01*
X121092380Y-109071428D01*
X121044761Y-108976190D01*
X120997142Y-108928571D01*
X120901904Y-108880952D01*
X120616190Y-108880952D01*
X120520952Y-108928571D01*
X120473333Y-108976190D01*
X120425714Y-109071428D01*
X120425714Y-109261904D01*
X120473333Y-109357142D01*
X121092380Y-109928571D02*
X121044761Y-109833333D01*
X120997142Y-109785714D01*
X120901904Y-109738095D01*
X120616190Y-109738095D01*
X120520952Y-109785714D01*
X120473333Y-109833333D01*
X120425714Y-109928571D01*
X120425714Y-110071428D01*
X120473333Y-110166666D01*
X120520952Y-110214285D01*
X120616190Y-110261904D01*
X120901904Y-110261904D01*
X120997142Y-110214285D01*
X121044761Y-110166666D01*
X121092380Y-110071428D01*
X121092380Y-109928571D01*
X121092380Y-111119047D02*
X120092380Y-111119047D01*
X121044761Y-111119047D02*
X121092380Y-111023809D01*
X121092380Y-110833333D01*
X121044761Y-110738095D01*
X120997142Y-110690476D01*
X120901904Y-110642857D01*
X120616190Y-110642857D01*
X120520952Y-110690476D01*
X120473333Y-110738095D01*
X120425714Y-110833333D01*
X120425714Y-111023809D01*
X120473333Y-111119047D01*
X121044761Y-111976190D02*
X121092380Y-111880952D01*
X121092380Y-111690476D01*
X121044761Y-111595238D01*
X120949523Y-111547619D01*
X120568571Y-111547619D01*
X120473333Y-111595238D01*
X120425714Y-111690476D01*
X120425714Y-111880952D01*
X120473333Y-111976190D01*
X120568571Y-112023809D01*
X120663809Y-112023809D01*
X120759047Y-111547619D01*
X121092380Y-112452380D02*
X120425714Y-112452380D01*
X120616190Y-112452380D02*
X120520952Y-112499999D01*
X120473333Y-112547619D01*
X120425714Y-112642857D01*
X120425714Y-112738095D01*
X121187619Y-112833333D02*
X121187619Y-113595238D01*
X120425714Y-113833333D02*
X121425714Y-113833333D01*
X120473333Y-113833333D02*
X120425714Y-113928571D01*
X120425714Y-114119047D01*
X120473333Y-114214285D01*
X120520952Y-114261904D01*
X120616190Y-114309523D01*
X120901904Y-114309523D01*
X120997142Y-114261904D01*
X121044761Y-114214285D01*
X121092380Y-114119047D01*
X121092380Y-113928571D01*
X121044761Y-113833333D01*
X120425714Y-115166666D02*
X121092380Y-115166666D01*
X120425714Y-114738095D02*
X120949523Y-114738095D01*
X121044761Y-114785714D01*
X121092380Y-114880952D01*
X121092380Y-115023809D01*
X121044761Y-115119047D01*
X120997142Y-115166666D01*
X121092380Y-115642857D02*
X120092380Y-115642857D01*
X120473333Y-115642857D02*
X120425714Y-115738095D01*
X120425714Y-115928571D01*
X120473333Y-116023809D01*
X120520952Y-116071428D01*
X120616190Y-116119047D01*
X120901904Y-116119047D01*
X120997142Y-116071428D01*
X121044761Y-116023809D01*
X121092380Y-115928571D01*
X121092380Y-115738095D01*
X121044761Y-115642857D01*
X121092380Y-116690476D02*
X121044761Y-116595238D01*
X120949523Y-116547619D01*
X120092380Y-116547619D01*
X121092380Y-117071428D02*
X120425714Y-117071428D01*
X120092380Y-117071428D02*
X120140000Y-117023809D01*
X120187619Y-117071428D01*
X120140000Y-117119047D01*
X120092380Y-117071428D01*
X120187619Y-117071428D01*
X121044761Y-117499999D02*
X121092380Y-117595238D01*
X121092380Y-117785714D01*
X121044761Y-117880952D01*
X120949523Y-117928571D01*
X120901904Y-117928571D01*
X120806666Y-117880952D01*
X120759047Y-117785714D01*
X120759047Y-117642857D01*
X120711428Y-117547619D01*
X120616190Y-117499999D01*
X120568571Y-117499999D01*
X120473333Y-117547619D01*
X120425714Y-117642857D01*
X120425714Y-117785714D01*
X120473333Y-117880952D01*
X121092380Y-118357142D02*
X120092380Y-118357142D01*
X121092380Y-118785714D02*
X120568571Y-118785714D01*
X120473333Y-118738095D01*
X120425714Y-118642857D01*
X120425714Y-118499999D01*
X120473333Y-118404761D01*
X120520952Y-118357142D01*
X121044761Y-119642857D02*
X121092380Y-119547619D01*
X121092380Y-119357142D01*
X121044761Y-119261904D01*
X120949523Y-119214285D01*
X120568571Y-119214285D01*
X120473333Y-119261904D01*
X120425714Y-119357142D01*
X120425714Y-119547619D01*
X120473333Y-119642857D01*
X120568571Y-119690476D01*
X120663809Y-119690476D01*
X120759047Y-119214285D01*
X121092380Y-120119047D02*
X120425714Y-120119047D01*
X120616190Y-120119047D02*
X120520952Y-120166666D01*
X120473333Y-120214285D01*
X120425714Y-120309523D01*
X120425714Y-120404761D01*
X124217142Y-87476190D02*
X124264761Y-87428571D01*
X124312380Y-87285714D01*
X124312380Y-87190476D01*
X124264761Y-87047619D01*
X124169523Y-86952380D01*
X124074285Y-86904761D01*
X123883809Y-86857142D01*
X123740952Y-86857142D01*
X123550476Y-86904761D01*
X123455238Y-86952380D01*
X123360000Y-87047619D01*
X123312380Y-87190476D01*
X123312380Y-87285714D01*
X123360000Y-87428571D01*
X123407619Y-87476190D01*
X124312380Y-88047619D02*
X124264761Y-87952380D01*
X124217142Y-87904761D01*
X124121904Y-87857142D01*
X123836190Y-87857142D01*
X123740952Y-87904761D01*
X123693333Y-87952380D01*
X123645714Y-88047619D01*
X123645714Y-88190476D01*
X123693333Y-88285714D01*
X123740952Y-88333333D01*
X123836190Y-88380952D01*
X124121904Y-88380952D01*
X124217142Y-88333333D01*
X124264761Y-88285714D01*
X124312380Y-88190476D01*
X124312380Y-88047619D01*
X123645714Y-88809523D02*
X124645714Y-88809523D01*
X123693333Y-88809523D02*
X123645714Y-88904761D01*
X123645714Y-89095238D01*
X123693333Y-89190476D01*
X123740952Y-89238095D01*
X123836190Y-89285714D01*
X124121904Y-89285714D01*
X124217142Y-89238095D01*
X124264761Y-89190476D01*
X124312380Y-89095238D01*
X124312380Y-88904761D01*
X124264761Y-88809523D01*
X123645714Y-89619047D02*
X124312380Y-89857142D01*
X123645714Y-90095238D02*
X124312380Y-89857142D01*
X124550476Y-89761904D01*
X124598095Y-89714285D01*
X124645714Y-89619047D01*
X124312380Y-90476190D02*
X123645714Y-90476190D01*
X123836190Y-90476190D02*
X123740952Y-90523809D01*
X123693333Y-90571428D01*
X123645714Y-90666666D01*
X123645714Y-90761904D01*
X124312380Y-91095238D02*
X123645714Y-91095238D01*
X123312380Y-91095238D02*
X123360000Y-91047619D01*
X123407619Y-91095238D01*
X123360000Y-91142857D01*
X123312380Y-91095238D01*
X123407619Y-91095238D01*
X123645714Y-92000000D02*
X124455238Y-92000000D01*
X124550476Y-91952380D01*
X124598095Y-91904761D01*
X124645714Y-91809523D01*
X124645714Y-91666666D01*
X124598095Y-91571428D01*
X124264761Y-92000000D02*
X124312380Y-91904761D01*
X124312380Y-91714285D01*
X124264761Y-91619047D01*
X124217142Y-91571428D01*
X124121904Y-91523809D01*
X123836190Y-91523809D01*
X123740952Y-91571428D01*
X123693333Y-91619047D01*
X123645714Y-91714285D01*
X123645714Y-91904761D01*
X123693333Y-92000000D01*
X124312380Y-92476190D02*
X123312380Y-92476190D01*
X124312380Y-92904761D02*
X123788571Y-92904761D01*
X123693333Y-92857142D01*
X123645714Y-92761904D01*
X123645714Y-92619047D01*
X123693333Y-92523809D01*
X123740952Y-92476190D01*
X123645714Y-93238095D02*
X123645714Y-93619047D01*
X123312380Y-93380952D02*
X124169523Y-93380952D01*
X124264761Y-93428571D01*
X124312380Y-93523809D01*
X124312380Y-93619047D01*
X124693333Y-95000000D02*
X124645714Y-94952380D01*
X124502857Y-94857142D01*
X124407619Y-94809523D01*
X124264761Y-94761904D01*
X124026666Y-94714285D01*
X123836190Y-94714285D01*
X123598095Y-94761904D01*
X123455238Y-94809523D01*
X123360000Y-94857142D01*
X123217142Y-94952380D01*
X123169523Y-95000000D01*
X124264761Y-95809523D02*
X124312380Y-95714285D01*
X124312380Y-95523809D01*
X124264761Y-95428571D01*
X124217142Y-95380952D01*
X124121904Y-95333333D01*
X123836190Y-95333333D01*
X123740952Y-95380952D01*
X123693333Y-95428571D01*
X123645714Y-95523809D01*
X123645714Y-95714285D01*
X123693333Y-95809523D01*
X124693333Y-96142857D02*
X124645714Y-96190476D01*
X124502857Y-96285714D01*
X124407619Y-96333333D01*
X124264761Y-96380952D01*
X124026666Y-96428571D01*
X123836190Y-96428571D01*
X123598095Y-96380952D01*
X123455238Y-96333333D01*
X123360000Y-96285714D01*
X123217142Y-96190476D01*
X123169523Y-96142857D01*
X123407619Y-97619047D02*
X123360000Y-97666666D01*
X123312380Y-97761904D01*
X123312380Y-98000000D01*
X123360000Y-98095238D01*
X123407619Y-98142857D01*
X123502857Y-98190476D01*
X123598095Y-98190476D01*
X123740952Y-98142857D01*
X124312380Y-97571428D01*
X124312380Y-98190476D01*
X123312380Y-98809523D02*
X123312380Y-98904761D01*
X123360000Y-99000000D01*
X123407619Y-99047619D01*
X123502857Y-99095238D01*
X123693333Y-99142857D01*
X123931428Y-99142857D01*
X124121904Y-99095238D01*
X124217142Y-99047619D01*
X124264761Y-99000000D01*
X124312380Y-98904761D01*
X124312380Y-98809523D01*
X124264761Y-98714285D01*
X124217142Y-98666666D01*
X124121904Y-98619047D01*
X123931428Y-98571428D01*
X123693333Y-98571428D01*
X123502857Y-98619047D01*
X123407619Y-98666666D01*
X123360000Y-98714285D01*
X123312380Y-98809523D01*
X123407619Y-99523809D02*
X123360000Y-99571428D01*
X123312380Y-99666666D01*
X123312380Y-99904761D01*
X123360000Y-100000000D01*
X123407619Y-100047619D01*
X123502857Y-100095238D01*
X123598095Y-100095238D01*
X123740952Y-100047619D01*
X124312380Y-99476190D01*
X124312380Y-100095238D01*
X123312380Y-101000000D02*
X123312380Y-100523809D01*
X123788571Y-100476190D01*
X123740952Y-100523809D01*
X123693333Y-100619047D01*
X123693333Y-100857142D01*
X123740952Y-100952380D01*
X123788571Y-101000000D01*
X123883809Y-101047619D01*
X124121904Y-101047619D01*
X124217142Y-101000000D01*
X124264761Y-100952380D01*
X124312380Y-100857142D01*
X124312380Y-100619047D01*
X124264761Y-100523809D01*
X124217142Y-100476190D01*
X124312380Y-102238095D02*
X123312380Y-102238095D01*
X123312380Y-102619047D01*
X123360000Y-102714285D01*
X123407619Y-102761904D01*
X123502857Y-102809523D01*
X123645714Y-102809523D01*
X123740952Y-102761904D01*
X123788571Y-102714285D01*
X123836190Y-102619047D01*
X123836190Y-102238095D01*
X124264761Y-103619047D02*
X124312380Y-103523809D01*
X124312380Y-103333333D01*
X124264761Y-103238095D01*
X124169523Y-103190476D01*
X123788571Y-103190476D01*
X123693333Y-103238095D01*
X123645714Y-103333333D01*
X123645714Y-103523809D01*
X123693333Y-103619047D01*
X123788571Y-103666666D01*
X123883809Y-103666666D01*
X123979047Y-103190476D01*
X123645714Y-103952380D02*
X123645714Y-104333333D01*
X123312380Y-104095238D02*
X124169523Y-104095238D01*
X124264761Y-104142857D01*
X124312380Y-104238095D01*
X124312380Y-104333333D01*
X124264761Y-105047619D02*
X124312380Y-104952380D01*
X124312380Y-104761904D01*
X124264761Y-104666666D01*
X124169523Y-104619047D01*
X123788571Y-104619047D01*
X123693333Y-104666666D01*
X123645714Y-104761904D01*
X123645714Y-104952380D01*
X123693333Y-105047619D01*
X123788571Y-105095238D01*
X123883809Y-105095238D01*
X123979047Y-104619047D01*
X124312380Y-105523809D02*
X123645714Y-105523809D01*
X123836190Y-105523809D02*
X123740952Y-105571428D01*
X123693333Y-105619047D01*
X123645714Y-105714285D01*
X123645714Y-105809523D01*
X123312380Y-106809523D02*
X124312380Y-107047619D01*
X123598095Y-107238095D01*
X124312380Y-107428571D01*
X123312380Y-107666666D01*
X124312380Y-108476190D02*
X123788571Y-108476190D01*
X123693333Y-108428571D01*
X123645714Y-108333333D01*
X123645714Y-108142857D01*
X123693333Y-108047619D01*
X124264761Y-108476190D02*
X124312380Y-108380952D01*
X124312380Y-108142857D01*
X124264761Y-108047619D01*
X124169523Y-107999999D01*
X124074285Y-107999999D01*
X123979047Y-108047619D01*
X123931428Y-108142857D01*
X123931428Y-108380952D01*
X123883809Y-108476190D01*
X124312380Y-109095238D02*
X124264761Y-108999999D01*
X124169523Y-108952380D01*
X123312380Y-108952380D01*
X124312380Y-109619047D02*
X124264761Y-109523809D01*
X124169523Y-109476190D01*
X123312380Y-109476190D01*
X124312380Y-109999999D02*
X123312380Y-109999999D01*
X124312380Y-110428571D02*
X123788571Y-110428571D01*
X123693333Y-110380952D01*
X123645714Y-110285714D01*
X123645714Y-110142857D01*
X123693333Y-110047619D01*
X123740952Y-109999999D01*
X124264761Y-111285714D02*
X124312380Y-111190476D01*
X124312380Y-110999999D01*
X124264761Y-110904761D01*
X124169523Y-110857142D01*
X123788571Y-110857142D01*
X123693333Y-110904761D01*
X123645714Y-110999999D01*
X123645714Y-111190476D01*
X123693333Y-111285714D01*
X123788571Y-111333333D01*
X123883809Y-111333333D01*
X123979047Y-110857142D01*
X124312380Y-112190476D02*
X123788571Y-112190476D01*
X123693333Y-112142857D01*
X123645714Y-112047619D01*
X123645714Y-111857142D01*
X123693333Y-111761904D01*
X124264761Y-112190476D02*
X124312380Y-112095238D01*
X124312380Y-111857142D01*
X124264761Y-111761904D01*
X124169523Y-111714285D01*
X124074285Y-111714285D01*
X123979047Y-111761904D01*
X123931428Y-111857142D01*
X123931428Y-112095238D01*
X123883809Y-112190476D01*
X124312380Y-113095238D02*
X123312380Y-113095238D01*
X124264761Y-113095238D02*
X124312380Y-112999999D01*
X124312380Y-112809523D01*
X124264761Y-112714285D01*
X124217142Y-112666666D01*
X124121904Y-112619047D01*
X123836190Y-112619047D01*
X123740952Y-112666666D01*
X123693333Y-112714285D01*
X123645714Y-112809523D01*
X123645714Y-112999999D01*
X123693333Y-113095238D01*
M02*
